<svg width="374" height="64" viewBox="0 0 374 64" fill="none" xmlns="http://www.w3.org/2000/svg">
<path d="M225.26 40L231.714 24.1246H227.325C226.293 24.1246 225.492 24.3741 224.925 24.8732C224.374 25.3551 224.098 26.052 224.098 26.9641H223.324V25.0281C223.324 24.6839 223.384 24.3569 223.505 24.0472C223.625 23.7202 223.84 23.4621 224.15 23.2728C224.477 23.0662 224.933 22.963 225.518 22.963H234.837V24.1246L228.384 40H225.26ZM242.805 40.5163C241.17 40.5163 239.853 40.1377 238.855 39.3805C237.874 38.6233 237.169 37.5649 236.738 36.2054C236.308 34.8459 236.093 33.2712 236.093 31.4815C236.093 29.6917 236.308 28.1171 236.738 26.7576C237.169 25.3981 237.874 24.3397 238.855 23.5825C239.853 22.8253 241.17 22.4467 242.805 22.4467C244.457 22.4467 245.773 22.8253 246.754 23.5825C247.735 24.3397 248.44 25.3981 248.871 26.7576C249.301 28.1171 249.516 29.6917 249.516 31.4815C249.516 33.2712 249.301 34.8459 248.871 36.2054C248.44 37.5649 247.735 38.6233 246.754 39.3805C245.773 40.1377 244.457 40.5163 242.805 40.5163ZM242.805 39.3547C243.889 39.3547 244.672 38.7265 245.154 37.4703C245.653 36.1968 245.902 34.2005 245.902 31.4815C245.902 28.7625 245.653 26.7748 245.154 25.5185C244.672 24.2451 243.889 23.6083 242.805 23.6083C241.72 23.6083 240.929 24.2451 240.43 25.5185C239.948 26.7748 239.707 28.7625 239.707 31.4815C239.707 34.2005 239.948 36.1968 240.43 37.4703C240.929 38.7265 241.72 39.3547 242.805 39.3547ZM252.78 40L265.274 22.963H268.01L255.516 40H252.78ZM265.3 40.1291C264.009 40.1291 262.994 39.8193 262.254 39.1998C261.531 38.5802 261.17 37.7026 261.17 36.5668C261.17 35.431 261.531 34.5533 262.254 33.9338C262.994 33.3143 264.009 33.0045 265.3 33.0045C266.556 33.0045 267.545 33.3143 268.268 33.9338C269.008 34.5533 269.378 35.431 269.378 36.5668C269.378 37.7026 269.008 38.5802 268.268 39.1998C267.545 39.8193 266.556 40.1291 265.3 40.1291ZM265.274 39.0965C266.633 39.0965 267.313 38.2533 267.313 36.5668C267.313 34.8803 266.625 34.037 265.248 34.037C263.906 34.037 263.235 34.8803 263.235 36.5668C263.235 38.2533 263.914 39.0965 265.274 39.0965ZM255.542 29.9585C254.251 29.9585 253.236 29.6487 252.496 29.0292C251.773 28.4097 251.412 27.532 251.412 26.3962C251.412 25.2604 251.773 24.3827 252.496 23.7632C253.236 23.1437 254.251 22.8339 255.542 22.8339C256.798 22.8339 257.788 23.1437 258.511 23.7632C259.251 24.3827 259.621 25.2604 259.621 26.3962C259.621 27.532 259.251 28.4097 258.511 29.0292C257.788 29.6487 256.798 29.9585 255.542 29.9585ZM255.516 28.9259C256.876 28.9259 257.556 28.0827 257.556 26.3962C257.556 24.7097 256.867 23.8665 255.49 23.8665C254.148 23.8665 253.477 24.7097 253.477 26.3962C253.477 28.0827 254.157 28.9259 255.516 28.9259Z" fill="#08213F"/>
<path d="M0 34.2512C0 32.9228 0 31.5944 0 30.2661C0.202479 30.0804 0.349736 29.8381 0.65959 29.7737C3.47282 29.1954 5.05737 27.2488 6.14032 24.7777C7.29997 22.1286 7.75862 19.3138 8.09148 16.4622C8.25408 15.0633 8.14057 13.6582 8.34611 12.2639C8.44582 11.5889 8.36759 10.8941 8.29549 10.2038C7.94883 6.86595 9.10694 4.15396 11.7407 2.06628C12.7562 1.26097 13.9695 1.13979 15.1813 0.984863C31.2308 0.984863 47.2803 0.984863 63.3298 0.984863C64.1167 1.16893 64.9742 1.06616 65.7028 1.46345C68.1909 2.81638 69.711 4.87644 70.119 7.70348C70.2693 8.73888 70.1696 9.78349 70.1788 10.822C70.2172 15.3424 70.4427 19.8583 72.1008 24.1457C72.9353 26.3039 74.098 28.229 76.3054 29.2859C76.7011 29.4745 77.1091 29.6157 77.5325 29.7092C77.9221 29.7951 78.2519 29.9623 78.5111 30.2645C78.5111 31.5929 78.5111 32.9213 78.5111 34.2497C78.2995 34.466 78.1139 34.6914 77.7779 34.7605C75.4095 35.2483 73.9032 36.8021 72.8034 38.8392C71.4949 41.2628 71.001 43.918 70.5899 46.6009C70.3077 48.4462 70.3368 50.3115 70.1604 52.1629C70.0868 52.9452 70.162 53.7383 70.2233 54.5298C70.4918 57.9673 69.2033 60.6992 66.3854 62.701C65.4681 63.3529 64.3729 63.3407 63.3314 63.5309C47.2312 63.5309 31.1296 63.5309 15.0294 63.5309C13.9956 63.3192 12.9264 63.3069 12.003 62.6335C9.18671 60.5826 7.98411 57.7863 8.28629 54.3917C8.44428 52.617 8.20806 50.8759 8.16971 49.1227C8.13443 47.4737 7.84912 45.8262 7.51626 44.1987C7.21867 42.7415 6.78611 41.3318 6.23543 39.9528C5.64793 38.4802 4.77512 37.2117 3.6032 36.1441C2.84391 35.4523 1.92201 35.0841 0.958706 34.8172C0.567554 34.7129 0.240827 34.5733 0 34.2512Z" fill="#564696"/>
<path d="M47.2359 17.2122C49.4432 18.4992 50.7072 20.4473 50.8805 22.9614C51.1628 27.0723 49.2622 29.7766 45.3553 31.1142C45.2633 31.1464 45.1758 31.194 45.0178 31.2661C46.4459 31.5453 47.7866 31.852 48.9217 32.7018C49.658 33.5885 49.5843 33.8277 48.5934 34.4567C47.9078 34.8908 47.1684 35.2405 46.5364 35.759C46.337 35.9231 46.1023 36.0213 45.8308 35.9952C44.4641 34.9874 42.9271 34.4229 41.2444 34.2296C40.1231 34.1008 38.9987 34.179 37.8758 34.1652C36.6242 34.1514 35.3709 34.1483 34.1193 34.1683C33.2342 34.1821 33.0409 34.3738 33.0363 35.2696C33.021 37.8758 33.0286 40.4804 33.0332 43.0866C33.0332 43.4194 33.0256 43.7569 33.2848 44.0192C33.9091 44.3582 34.5917 44.4287 35.282 44.4456C36.0474 44.464 36.8128 44.4333 37.5783 44.461C37.7807 44.4686 38.0216 44.4962 38.0292 44.7631C38.0369 45.0086 37.8283 45.1175 37.6181 45.1359C35.9676 45.2801 34.3187 45.4641 32.6574 45.2939C32.527 45.2801 32.392 45.2463 32.3092 45.1512C31.7263 44.4794 31.1572 44.7355 30.5544 45.1328C30.0221 45.4841 29.4638 45.7924 28.9208 46.1283C28.6554 46.2909 28.4253 46.4857 28.2765 46.7664C27.7182 47.8264 28.0694 48.443 29.2567 48.4476C32.7786 48.4614 36.299 48.4369 39.8209 48.4676C40.2274 48.4706 40.7826 48.2881 40.9376 48.9477C36.5475 48.9569 32.1574 48.96 27.7673 48.9814C27.3347 48.983 27.1506 48.8419 27.1859 48.4124C27.1982 48.2605 27.1874 48.1056 27.1874 47.9537C27.1859 37.4892 27.1844 27.0263 27.189 16.5618C27.189 16.2642 27.1015 15.9483 27.2825 15.666C27.6399 15.8133 27.6415 16.1385 27.6445 16.4407C27.6752 20.9259 27.6691 25.4095 27.6491 29.8948C27.6476 30.1248 27.6031 30.3503 27.5525 30.5298C27.6016 30.2199 27.7826 29.973 28.0986 29.7828C29.0128 29.229 29.9117 28.6477 30.8581 28.1491C31.4471 27.8393 31.7769 27.3944 31.872 26.7257C31.9549 26.1474 32.0132 25.5629 32.1543 24.9923C32.2233 24.7147 32.2693 24.4309 32.6329 24.3925C33.0685 24.5689 33.001 24.9678 33.0133 25.3098C33.0486 26.3299 33.0225 27.3515 33.0302 28.3716C33.0332 28.9054 33.2112 29.2888 33.8125 29.2766C36.1318 29.2321 38.4603 29.4791 40.7688 29.117C42.0696 28.913 43.3121 28.5265 44.1972 27.4405C45.6329 25.678 45.363 22.8663 44.0392 21.6698C43.8704 21.518 43.7094 21.3462 43.6603 21.1069C43.6219 20.6958 43.8321 20.4503 44.1788 20.2617C45.073 19.7754 45.9213 19.2125 46.7895 18.6817C47.1331 18.4716 47.489 18.3228 47.1285 17.8243C46.9966 17.6386 46.9981 17.3809 47.2359 17.2122Z" fill="#F6EFF8"/>
<path d="M40.9375 48.9429C40.6307 48.7634 40.2933 48.8156 39.965 48.8156C36.3679 48.8125 32.7709 48.8217 29.1738 48.8033C28.6507 48.8003 27.9144 49.0702 27.6966 48.3631C27.4681 47.6207 27.5708 46.7509 28.1721 46.2279C29.1891 45.3428 30.4485 44.7875 31.5989 44.0834C31.8704 43.9178 32.0192 44.1524 32.122 44.3687C32.3168 44.7783 32.619 44.9654 33.0853 44.9884C34.6392 45.0636 36.1762 44.8228 37.7239 44.6893C36.3557 44.6893 34.9874 44.6924 33.6207 44.6863C33.2955 44.6847 32.9519 44.7537 32.6589 44.5313C32.9641 44.1187 33.4166 44.1632 33.8461 44.1616C36.2191 44.1494 38.5921 44.1847 40.9651 44.1463C42.4177 44.1233 43.8182 43.8073 44.9917 42.8992C46.7296 41.5555 47.1959 39.1748 46.2342 36.9307C46.0808 36.5733 45.7525 36.2389 45.9857 35.791C46.59 35.0332 47.4935 34.685 48.2896 34.2233C48.9799 33.823 49.325 33.4686 48.9216 32.7017C51.066 33.9257 52.2349 35.8539 52.5463 38.2192C52.8607 40.6137 52.4742 42.9284 50.9433 44.9255C49.2744 47.1037 46.9658 48.1683 44.3459 48.6484C43.2246 48.8539 42.0895 49.0211 40.9375 48.9429Z" fill="#F0E5F3"/>
<path d="M32.6359 24.4385C32.4932 25.2899 32.3184 26.1381 32.2171 26.9956C32.1404 27.6491 31.8091 28.0571 31.2569 28.3685C30.3703 28.867 29.5343 29.4683 28.617 29.8993C27.8193 30.2736 27.7212 31.0084 27.2825 31.6633C27.2825 26.3299 27.2825 20.9964 27.2825 15.6645C27.4942 15.4451 27.7657 15.5571 28.005 15.5556C32.4411 15.5479 36.8787 15.5126 41.3149 15.5694C43.4102 15.5954 45.4488 15.9989 47.2374 17.2153C47.2726 17.4745 47.3355 17.7552 47.561 17.8856C48.3433 18.3427 47.8218 18.5145 47.4076 18.7645C46.2127 19.4839 45.0316 20.2218 43.8443 20.9534C43.5544 21.2173 43.2553 21.0578 42.9884 20.9366C41.726 20.3614 40.3654 20.3015 39.0247 20.234C37.3972 20.1527 35.7636 20.2018 34.133 20.2187C33.2479 20.2279 33.0592 20.4273 33.0362 21.3063C33.0163 22.0702 33.0531 22.8356 33.0132 23.5979C32.9964 23.917 33.0347 24.2805 32.6359 24.4385Z" fill="#FFFEFF"/>
<path d="M45.9859 35.7903C47.0105 37.0942 47.2744 38.602 47.0121 40.1804C46.624 42.5166 44.9903 43.9432 42.4195 44.3681C40.5972 44.6687 38.7641 44.5675 36.9326 44.5782C35.5076 44.5859 34.0826 44.5491 32.6575 44.5307C32.6591 41.1882 32.6713 37.8473 32.6483 34.5049C32.6437 33.9557 32.7496 33.7655 33.3478 33.7747C35.6686 33.8131 37.9925 33.7395 40.3134 33.8039C42.3949 33.8637 44.4059 34.2441 45.9859 35.7903Z" fill="#564696"/>
<path d="M32.6359 24.4382C32.6435 23.1389 32.6681 21.8412 32.6497 20.542C32.642 20.0741 32.7294 19.8609 33.2663 19.8763C35.7344 19.9468 38.2056 19.8042 40.6752 19.9729C41.8195 20.0511 42.8564 20.3963 43.8428 20.95C45.2555 22.1388 45.7433 23.6697 45.4779 25.4598C45.2034 27.3051 44.102 28.4617 42.3825 29.0814C41.4452 29.4204 40.4835 29.6459 39.4849 29.652C37.4171 29.6658 35.3479 29.6474 33.2801 29.6811C32.7586 29.6903 32.6481 29.5124 32.6543 29.0308C32.6711 27.4999 32.6451 25.969 32.6359 24.4382Z" fill="#584596"/>
<path d="M96.1994 25.5319C97.4285 25.8444 98.3764 26.4486 99.043 27.3443C99.7096 28.2401 100.043 29.4171 100.043 30.8754C100.043 32.7711 99.4701 34.271 98.3243 35.3751C97.1785 36.4584 95.6057 37 93.6058 37H85.8563V15.6888H92.8871C94.7828 15.6888 96.2723 16.1888 97.3556 17.1887C98.4389 18.1678 98.9805 19.4802 98.9805 21.126C98.9805 22.1884 98.7409 23.105 98.2618 23.8758C97.7827 24.6258 97.0952 25.1778 96.1994 25.5319ZM88.1999 24.782H93.1684C95.3974 24.782 96.5119 23.5633 96.5119 21.126C96.5119 20.0219 96.189 19.1677 95.5432 18.5636C94.8974 17.9595 94.0016 17.6574 92.8559 17.6574H88.1999V24.782ZM93.2933 35.0626C94.6266 35.0626 95.6682 34.6876 96.4182 33.9377C97.1889 33.1877 97.5743 32.167 97.5743 30.8754C97.5743 29.5838 97.1889 28.5734 96.4182 27.8443C95.6682 27.0944 94.6266 26.7194 93.2933 26.7194H88.1999V35.0626H93.2933ZM109.674 37.5C108.278 37.5 107.029 37.1667 105.924 36.5C104.82 35.8334 103.956 34.9064 103.331 33.7189C102.706 32.5107 102.393 31.1566 102.393 29.6567C102.393 28.1568 102.695 26.8235 103.3 25.6569C103.925 24.4695 104.779 23.5425 105.862 22.8759C106.966 22.2092 108.216 21.8759 109.612 21.8759C111.007 21.8759 112.257 22.2092 113.361 22.8759C114.466 23.5425 115.33 24.4695 115.955 25.6569C116.58 26.8444 116.892 28.188 116.892 29.6879C116.892 31.1879 116.58 32.5315 115.955 33.7189C115.351 34.9064 114.497 35.8334 113.393 36.5C112.309 37.1667 111.07 37.5 109.674 37.5ZM109.612 35.5626C110.612 35.5626 111.497 35.3126 112.268 34.8126C113.059 34.3127 113.674 33.6148 114.111 32.719C114.549 31.8232 114.768 30.8129 114.768 29.6879C114.768 28.563 114.549 27.5527 114.111 26.6569C113.674 25.7611 113.059 25.0632 112.268 24.5633C111.497 24.0633 110.612 23.8133 109.612 23.8133C108.633 23.8133 107.758 24.0633 106.987 24.5633C106.216 25.0632 105.612 25.7611 105.174 26.6569C104.737 27.5318 104.518 28.5318 104.518 29.6567C104.518 30.8025 104.737 31.8232 105.174 32.719C105.612 33.6148 106.216 34.3127 106.987 34.8126C107.758 35.3126 108.633 35.5626 109.612 35.5626ZM126.275 37.5C124.879 37.5 123.629 37.1667 122.525 36.5C121.421 35.8334 120.556 34.9064 119.931 33.7189C119.306 32.5107 118.994 31.1566 118.994 29.6567C118.994 28.1568 119.296 26.8235 119.9 25.6569C120.525 24.4695 121.379 23.5425 122.462 22.8759C123.567 22.2092 124.816 21.8759 126.212 21.8759C127.608 21.8759 128.858 22.2092 129.962 22.8759C131.066 23.5425 131.931 24.4695 132.556 25.6569C133.181 26.8444 133.493 28.188 133.493 29.6879C133.493 31.1879 133.181 32.5315 132.556 33.7189C131.951 34.9064 131.097 35.8334 129.993 36.5C128.91 37.1667 127.67 37.5 126.275 37.5ZM126.212 35.5626C127.212 35.5626 128.098 35.3126 128.868 34.8126C129.66 34.3127 130.274 33.6148 130.712 32.719C131.149 31.8232 131.368 30.8129 131.368 29.6879C131.368 28.563 131.149 27.5527 130.712 26.6569C130.274 25.7611 129.66 25.0632 128.868 24.5633C128.098 24.0633 127.212 23.8133 126.212 23.8133C125.233 23.8133 124.358 24.0633 123.587 24.5633C122.817 25.0632 122.212 25.7611 121.775 26.6569C121.338 27.5318 121.119 28.5318 121.119 29.6567C121.119 30.8025 121.338 31.8232 121.775 32.719C122.212 33.6148 122.817 34.3127 123.587 34.8126C124.358 35.3126 125.233 35.5626 126.212 35.5626ZM137.282 37V24.3133H134.782V22.3759H137.282V17.5324H139.407V22.3759H142.782V24.3133H139.407V37H137.282ZM150.262 37.5C148.845 37.5 147.596 37.1979 146.512 36.5938C145.45 35.9896 144.637 35.1355 144.075 34.0314L145.981 33.094C146.752 34.7397 148.262 35.5626 150.512 35.5626C151.595 35.5626 152.491 35.3647 153.199 34.9689C153.908 34.5731 154.262 33.9585 154.262 33.1252C154.262 32.2711 153.97 31.6357 153.387 31.2191C152.824 30.8025 151.824 30.5316 150.387 30.4067C148.387 30.24 146.95 29.7921 146.075 29.063C145.221 28.3339 144.794 27.3652 144.794 26.1569C144.794 24.8028 145.283 23.7508 146.262 23.0008C147.241 22.2509 148.585 21.8759 150.293 21.8759C153.189 21.8759 155.158 23.0217 156.199 25.3132L154.293 26.2507C153.939 25.4174 153.418 24.8028 152.731 24.407C152.064 24.0112 151.199 23.8133 150.137 23.8133C149.054 23.8133 148.221 24.0112 147.637 24.407C147.075 24.8028 146.794 25.3653 146.794 26.0944C146.794 26.7819 147.096 27.3443 147.7 27.7818C148.325 28.1985 149.387 28.4693 150.887 28.5943C152.741 28.7609 154.116 29.2192 155.012 29.9692C155.928 30.6983 156.387 31.667 156.387 32.8753C156.387 33.8544 156.105 34.6981 155.543 35.4063C154.981 36.0938 154.231 36.6146 153.293 36.9688C152.356 37.3229 151.345 37.5 150.262 37.5ZM160.382 37V24.3133H157.882V22.3759H160.382V17.5324H162.507V22.3759H165.882V24.3133H162.507V37H160.382ZM175.394 21.8759C175.894 21.8759 176.373 21.9488 176.831 22.0947V24.032C176.394 23.8237 175.914 23.7196 175.394 23.7196C174.498 23.7196 173.665 23.9695 172.894 24.4695C172.123 24.9695 171.498 25.6986 171.019 26.6569C170.561 27.5943 170.331 28.7088 170.331 30.0004V37H168.207V22.3759H170.331V25.3132C170.894 24.2299 171.602 23.3862 172.456 22.7821C173.331 22.178 174.31 21.8759 175.394 21.8759ZM192.388 22.3759V37H190.264V34.8439C189.659 35.6772 188.92 36.3334 188.045 36.8125C187.17 37.2708 186.212 37.5 185.17 37.5C183.774 37.5 182.524 37.1667 181.42 36.5C180.316 35.8334 179.452 34.9064 178.827 33.7189C178.202 32.5315 177.889 31.1774 177.889 29.6567C177.889 28.1568 178.191 26.8235 178.795 25.6569C179.42 24.4695 180.275 23.5425 181.358 22.8759C182.462 22.2092 183.712 21.8759 185.108 21.8759C186.17 21.8759 187.139 22.1155 188.014 22.5946C188.909 23.0529 189.659 23.7091 190.264 24.5633V22.3759H192.388ZM185.108 35.5626C186.108 35.5626 186.993 35.3126 187.764 34.8126C188.555 34.3127 189.17 33.6148 189.607 32.719C190.045 31.8232 190.264 30.8129 190.264 29.6879C190.264 28.563 190.045 27.5527 189.607 26.6569C189.17 25.7611 188.555 25.0632 187.764 24.5633C186.993 24.0633 186.108 23.8133 185.108 23.8133C184.128 23.8133 183.254 24.0633 182.483 24.5633C181.712 25.0632 181.108 25.7611 180.67 26.6569C180.233 27.5318 180.014 28.5318 180.014 29.6567C180.014 30.8025 180.233 31.8232 180.67 32.719C181.108 33.6148 181.712 34.3127 182.483 34.8126C183.254 35.3126 184.128 35.5626 185.108 35.5626ZM203.561 21.8759C204.957 21.8759 206.207 22.2092 207.311 22.8759C208.415 23.5425 209.279 24.4695 209.904 25.6569C210.529 26.8444 210.842 28.1985 210.842 29.7192C210.842 31.2191 210.529 32.5628 209.904 33.7502C209.3 34.9168 208.446 35.8334 207.342 36.5C206.259 37.1667 205.019 37.5 203.624 37.5C202.561 37.5 201.582 37.2708 200.686 36.8125C199.811 36.3334 199.072 35.6667 198.468 34.8126V43.2496H196.343V22.3759H198.468V24.532C199.072 23.6987 199.811 23.0529 200.686 22.5946C201.561 22.1155 202.519 21.8759 203.561 21.8759ZM203.624 35.5626C204.603 35.5626 205.478 35.3126 206.248 34.8126C207.019 34.3127 207.623 33.6252 208.061 32.7503C208.498 31.8545 208.717 30.8441 208.717 29.7192C208.717 28.5734 208.498 27.5527 208.061 26.6569C207.623 25.7611 207.019 25.0632 206.248 24.5633C205.478 24.0633 204.603 23.8133 203.624 23.8133C202.624 23.8133 201.728 24.0633 200.936 24.5633C200.165 25.0632 199.561 25.7611 199.124 26.6569C198.686 27.5527 198.468 28.563 198.468 29.6879C198.468 30.8129 198.686 31.8232 199.124 32.719C199.561 33.6148 200.165 34.3127 200.936 34.8126C201.728 35.3126 202.624 35.5626 203.624 35.5626Z" fill="#FF4D5A"/>
<rect x="84.01" y="45.1677" width="289.368" height="14.9351" rx="7.46755" stroke="url(#paint0_linear_104_83)" stroke-width="1.24459"/>
<rect x="83" y="45" width="201" height="15" rx="7.5" fill="url(#paint1_linear_104_83)"/>
<defs>
<linearGradient id="paint0_linear_104_83" x1="228.694" y1="44.5454" x2="14.0017" y2="44.5454" gradientUnits="userSpaceOnUse">
<stop stop-color="#08213F"/>
<stop offset="1" stop-color="#FF4D5A"/>
</linearGradient>
<linearGradient id="paint1_linear_104_83" x1="284" y1="60" x2="59.2047" y2="60" gradientUnits="userSpaceOnUse">
<stop stop-color="#0A294E"/>
<stop offset="1" stop-color="#FF4D5A"/>
</linearGradient>
</defs>
</svg>
