<svg width="218" height="235" viewBox="0 0 218 235" fill="none" xmlns="http://www.w3.org/2000/svg">
<path d="M174.169 134.437C175.826 136.451 177.528 138.416 179.513 140.105C184.188 144.076 189.415 146.737 195.74 145.865C204.497 144.656 210.898 139.893 214.728 131.996C218.226 124.779 218.078 117.17 216.117 109.553C214.64 103.829 212.351 98.4934 208.14 94.0945C207.511 94.4788 207.607 94.923 207.523 95.2993C206.379 100.307 204.413 104.93 200.927 108.764C200.134 109.637 200.187 110.205 200.643 111.134C201.736 113.363 201.776 115.773 201.511 118.178C201.375 119.399 200.535 120.08 199.33 120.092C198.073 120.104 197.433 119.251 197.209 118.106C197.121 117.662 197.229 117.178 197.253 116.713C197.441 113.139 195.892 110.565 192.758 108.908C191.633 108.316 190.44 107.944 189.191 107.688C187.85 107.411 186.962 106.547 187.266 105.142C187.574 103.693 188.667 103.092 190.156 103.437C191.517 103.749 192.802 104.309 194.127 104.71C195.315 105.07 196.132 106.895 197.449 106.038C198.497 105.354 199.154 104.025 199.894 102.924C200.407 102.156 200.815 101.307 201.191 100.459C205.39 91.0365 204.806 81.3741 202.448 71.6876C200.715 64.5589 197.08 58.667 190.464 55.0086C184.964 51.9746 179.069 52.1427 173.133 53.0833C168.874 53.7598 164.927 55.2568 161.501 57.9946C160.468 58.8191 159.996 59.4115 161.077 60.6323C162.181 61.8731 162.754 63.4742 163.214 65.0953C163.618 66.5162 163.09 67.5489 161.813 67.9652C160.476 68.3935 159.512 67.709 159.091 66.3361C158.995 66.0199 158.859 65.7157 158.743 65.4035C157.462 61.9532 154.897 60.2601 151.298 60.088C150.173 60.0359 149.029 60.116 147.916 60.2881C146.503 60.5042 145.474 60.0559 145.17 58.671C144.834 57.146 145.706 56.3335 147.175 56.0293C149.565 55.5369 151.999 55.3848 154.284 56.1854C155.989 56.7818 157.102 56.5136 158.219 55.1767C158.803 54.4802 159.632 53.9679 160.4 53.4396C166.104 49.513 172.596 48.2841 179.341 48.2241C181.142 48.2041 182.043 47.5036 182.671 46.0667C183.015 45.2781 183.343 44.4696 183.548 43.6371C184.672 39.046 183.435 34.7952 181.53 30.6845C177.159 21.2622 170.047 15.9067 159.375 15.8747C158.055 15.8707 157.33 16.0908 156.966 17.7119C155.937 22.3109 153.183 25.5771 148.504 26.89C147.592 27.1461 147.364 27.5024 147.472 28.411C147.776 30.9967 147.223 33.4423 146.003 35.7318C145.366 36.9286 144.454 37.585 143.081 36.9286C141.728 36.2842 141.632 35.1594 142.096 33.8906C142.188 33.6384 142.304 33.3983 142.412 33.1541C143.833 29.952 143.225 27.0661 141.035 24.4323C140.131 23.3396 138.986 22.5471 137.817 21.7706C136.728 21.0461 136.328 19.9974 137.033 18.8446C137.765 17.6438 138.866 17.3797 140.131 18.1202C141.868 19.1448 143.481 20.3817 144.618 22.0267C145.374 23.1235 146.155 23.0474 147.171 22.8113C152.199 21.6625 155.285 13.7853 151.338 9.61051C146.955 4.97944 141.508 2.66191 135.512 1.32502C129.764 0.0401701 124.028 -0.228007 118.512 2.43376C113.853 4.68325 111.2 8.22559 111.14 13.5571C111.104 16.5711 111.464 19.5291 111.78 22.5151C112.436 28.6511 116.539 30.5124 122.183 29.5877C122.707 29.4997 123.232 29.3716 123.728 29.1875C125.181 28.6471 126.394 28.8192 127.018 30.3843C127.546 31.7092 126.726 32.8299 124.913 33.3542C120.822 34.539 116.791 34.5951 112.933 32.5457C111.944 37.1047 110.983 41.5557 109.991 46.1307C111.396 45.6904 112.609 45.1941 113.873 44.9259C119.337 43.7651 124.08 45.7905 128.639 48.4402C131.057 49.8452 131.561 50.8659 130.704 52.2348C129.836 53.6237 128.871 53.5957 126.394 52.1427C123.26 50.3055 120.013 48.8005 116.263 48.9406C112.164 49.0967 107.401 53.1233 107.421 56.5256C107.453 63.2381 108.974 69.8144 109.202 76.771C113.005 74.3934 116.799 73.705 120.85 74.9938C122.283 75.4461 123.256 76.2867 122.755 77.9318C122.275 79.5128 121.026 79.5569 119.669 79.2166C114.658 77.9478 110.227 80.1012 107.965 84.7043C102.21 96.42 101.745 108.264 106.544 120.44C108.742 126.02 110.547 131.811 109.462 137.96C108.95 140.865 108.35 143.767 108.81 146.685C109.643 151.953 109.298 157.12 108.562 162.384C107.805 167.791 108.366 173.295 111.212 178.062C112.504 180.232 112.528 181.745 111.296 183.65C107.553 189.426 108.282 195.442 110.379 201.518C113.705 198.552 116.935 197.623 121.414 198.38C122.527 198.568 123.68 198.68 124.729 199.064C125.653 199.404 126.149 199.152 126.79 198.516C128.683 196.61 131.037 195.618 133.686 195.234C135.744 194.941 136.965 195.474 137.093 196.947C137.257 198.788 136.044 199.22 134.491 199.508C129.776 200.393 127.278 203.427 127.094 208.274C127.078 208.738 127.102 209.207 127.074 209.675C126.994 210.936 126.238 211.684 125.061 211.744C123.788 211.809 122.839 211.12 122.771 209.763C122.715 208.642 122.791 207.494 122.979 206.389C123.6 202.819 123.632 202.823 119.893 202.59C119.429 202.562 118.961 202.562 118.496 202.566C114.834 202.59 113.117 204.043 112.576 207.67C111.808 212.845 113.817 217.284 116.743 221.243C123.528 230.421 133.054 233.959 144.141 233.551C152.275 233.251 159.299 230.213 164.663 223.889C168.49 219.378 167.537 213.906 162.45 210.828C162.053 210.588 161.629 210.392 161.225 210.163C160 209.475 159.492 208.43 160.16 207.165C160.832 205.901 162.017 205.684 163.246 206.341C167.425 208.578 170.511 211.648 171.295 216.604C171.439 217.512 170.835 218.857 171.784 219.261C172.576 219.598 173.729 219.137 174.71 218.973C184.392 217.368 190.412 211.748 192.754 202.17C193.826 197.791 193.87 193.34 193.942 188.865C194.046 182.417 191.661 176.885 187.85 171.954C180.401 162.312 170.351 160.078 158.911 162.392C157.154 162.744 156.041 162.46 155.553 160.655C153.343 152.501 147.86 148.439 139.594 147.642C138.418 147.53 137.673 147.654 136.789 148.354C135.26 149.563 133.454 150.26 131.529 150.6C130.232 150.828 129.248 150.336 128.907 149.043C128.563 147.73 129.191 146.725 130.48 146.485C136.08 145.437 138.153 140.421 137.349 135.606C137.121 134.229 137.633 133.196 139.066 132.952C140.615 132.688 141.36 133.557 141.64 135.042C142.044 137.191 142.008 139.381 141.296 141.362C140.623 143.219 141.284 143.459 142.833 143.747C150.301 145.136 155.721 149.231 158.663 156.304C159.179 157.545 159.652 157.781 160.945 157.605C169.866 156.372 178.196 157.885 185.509 163.436C190.464 167.203 193.846 172.198 196.156 177.902C196.804 179.507 197.413 179.463 198.682 178.699C200.667 177.502 202.284 175.969 203.573 174.071C207.195 168.736 208.684 162.708 209.172 156.392C209.449 152.833 209.509 149.267 208.6 145.577C208.056 145.913 207.679 146.161 207.291 146.389C206.891 146.625 206.487 146.853 206.074 147.078C199.538 150.616 192.722 151.477 185.673 148.895C180.421 146.97 176.191 143.515 172.64 139.268C171.459 137.859 170.671 137.107 169.054 138.736C168.257 139.533 166.977 139.885 165.872 140.333C164.399 140.934 162.902 141.13 162.245 139.228C161.625 137.423 162.918 136.783 164.315 136.254C168.482 134.685 170.343 131.767 170.055 127.305C170.011 126.64 169.979 125.972 169.866 125.315C169.63 123.938 169.991 122.862 171.443 122.553C173.001 122.225 173.825 123.122 174.097 124.567C174.586 127.156 174.606 129.75 173.801 132.276C173.521 133.148 173.593 133.741 174.169 134.437ZM148.252 223.62C147.428 224.269 146.531 224.349 145.666 223.728C141.756 220.915 139.138 217.336 139.002 212.325C138.95 209.907 139.775 207.754 140.959 205.72C141.692 204.464 142.76 203.859 144.121 204.684C145.358 205.432 145.458 206.581 144.742 207.79C141.988 212.433 143.701 216.816 147.656 219.862C149.349 221.163 149.557 222.592 148.252 223.62ZM134.087 170.113C134.599 171.27 135.151 171.586 136.432 171.534C143.893 171.222 151.182 172.066 157.983 175.412C162.722 177.746 166.4 181.216 168.59 186.091C169.038 187.096 169.322 187.356 170.379 186.716C172.884 185.203 175.686 185.095 178.512 185.459C179.909 185.639 180.962 186.304 180.818 187.893C180.678 189.486 179.617 189.902 178.128 189.81C172.352 189.458 169.794 191.215 167.901 196.771C167.433 198.151 166.72 199.34 165.063 198.84C163.346 198.328 163.206 196.947 163.754 195.434C164.027 194.689 164.183 193.829 164.663 193.24C166.188 191.355 165.532 189.594 164.623 187.757C161.561 181.564 156.113 178.655 149.781 177.041C146.291 176.153 142.708 175.829 139.102 175.809H138.902C135.644 175.813 135.664 175.817 134.611 178.947C134.335 179.763 133.951 180.544 133.558 181.312C132.906 182.589 131.829 182.981 130.56 182.389C129.296 181.801 129.216 180.684 129.636 179.491C129.744 179.179 129.928 178.895 130.056 178.59C131.513 175.168 130.957 172.074 128.423 169.384C127.61 168.524 126.614 167.823 125.661 167.103C124.572 166.282 124.336 165.258 125.029 164.153C125.801 162.928 126.958 162.776 128.139 163.549C130.692 165.21 132.838 167.299 134.087 170.113ZM164.923 105.77C156.47 111.686 145.51 111.286 137.049 104.71C136.052 103.933 135.111 103.084 134.027 102.168C132.79 104.005 131.893 105.938 131.497 108.104C131.073 108.52 131.117 109.084 131.073 109.597C130.921 111.446 130.024 112.351 128.271 112.231C128.259 112.231 128.243 112.231 128.231 112.227C128.127 112.223 128.019 112.211 127.911 112.194C126.778 111.538 126.45 110.557 126.686 109.309C128.483 99.8223 134.811 90.1039 148.256 90.9804C148.588 91.0004 148.929 90.9964 149.245 91.0765C150.474 91.4007 151.278 92.1212 151.134 93.4861C150.986 94.847 150.121 95.4634 148.792 95.3793C145.77 95.1872 142.801 95.2993 140.007 96.6402C136.5 98.3173 136.456 98.6695 139.394 101.043C146.407 106.707 155.073 107.135 162.514 102.128C163.854 101.227 165.127 100.815 166.136 102.32C167.157 103.837 166.192 104.886 164.923 105.77ZM173.809 91.7169C172.332 91.813 171.532 90.6242 171.596 88.5949C171.836 81.0739 176.167 76.0946 183.191 75.186C184.688 74.9898 185.753 75.4301 186.013 76.9191C186.273 78.4441 185.417 79.2527 183.888 79.4328C177.988 80.1412 176.067 84.4361 175.974 88.763C175.938 90.336 175.642 91.5968 173.809 91.7169Z" fill="#08213F"/>
<path d="M104.515 171.665C104.215 171.925 104.047 172.025 103.943 172.169C100.537 176.92 96.0458 179.814 90.1179 180.178C89.1733 180.239 89.1092 180.699 89.0372 181.443C88.8571 183.249 88.2767 184.946 87.4161 186.539C86.7356 187.792 85.6349 188.272 84.3981 187.647C83.1733 187.027 82.8371 185.882 83.5335 184.593C86.1393 179.77 84.262 175.535 79.8911 172.605C78.5302 171.693 78.0459 170.604 78.9465 169.271C79.8271 167.962 81.0879 168.167 82.2727 168.987C84.4942 170.524 86.4394 172.333 87.6362 174.795C88.0885 175.724 88.6769 175.964 89.6856 175.892C93.6202 175.607 96.9344 174.046 99.356 170.972C103.943 165.153 105.556 158.424 104.9 151.115C104.563 147.405 103.811 143.674 104.72 139.98C106.052 134.564 105.084 129.449 103.279 124.329C101.333 118.818 99.5081 113.282 99.0078 107.366C98.3273 99.3729 100.096 91.908 103.259 84.6672C104.027 82.91 104.956 81.2209 104.872 79.1795C104.523 70.786 103.907 62.4124 101.838 54.243C100.641 49.5159 98.8717 44.9729 95.3333 41.4065C92.6115 38.6607 89.4574 37.3558 85.5589 38.7768C83.7737 39.4252 81.8884 39.4252 80.0192 39.2451C78.6663 39.109 77.7337 38.3925 77.8297 36.9115C77.9218 35.4545 78.8424 34.8301 80.2674 34.8942C80.6676 34.9102 81.0679 34.9222 81.4682 34.9342C85.0745 35.0623 87.5682 33.3411 89.1052 30.1911C89.6256 29.1264 89.9378 27.9536 90.254 26.8048C90.6342 25.4279 91.4788 24.6714 92.8757 25.0156C94.2366 25.3519 94.6889 26.3685 94.4488 27.7815C94.0565 30.115 92.9718 32.1644 91.819 34.2738C95.2893 35.4025 97.9631 37.4799 100.141 40.2657C102.254 42.9715 103.583 46.0936 105.072 49.6079C105.612 45.0569 106.613 41.0543 107.549 37.0436C108.466 33.121 108.906 29.2705 107.926 25.2238C106.829 20.6928 106.341 16.0297 107.041 11.3426C107.133 10.7342 106.825 10.3539 106.533 9.90161C103.703 5.5107 99.7963 2.52072 94.7249 1.30391C85.767 -0.84551 77.6136 1.5881 69.9165 6.08308C68.0032 7.19982 66.4662 8.76886 65.1013 10.534C64.1847 11.7228 64.2608 12.2312 65.7257 12.9116C70.5689 15.1491 72.8304 19.1077 72.8304 24.3992C72.8304 25.7601 72.3061 26.7888 70.8211 26.8689C69.232 26.9569 68.5756 25.9883 68.5196 24.4993C68.4996 24.035 68.4395 23.5707 68.3995 23.1064C68.1273 20.1164 66.5663 17.9509 63.8925 16.7622C61.1987 15.5654 58.3248 15.033 55.3428 15.4533C45.8886 16.7862 39.7365 22.3339 35.8539 30.7474C33.9847 34.7981 32.7519 38.9889 33.8366 43.5079C34.7212 47.2103 36.8706 49.8361 40.5931 50.9568C44.0794 52.0055 46.8132 50.5165 49.2548 48.195C49.595 47.8748 49.9152 47.5346 50.2675 47.2264C51.1961 46.4058 52.1928 46.3057 53.1294 47.1623C54.13 48.0789 54.1821 49.2117 53.3295 50.1923C49.8312 54.231 43.3309 58.0095 36.7745 54.0028C34.5851 52.666 32.7439 52.77 30.6305 53.4585C28.6612 54.0989 26.7639 54.9155 25.0868 56.1443C15.0401 63.5212 13.6672 74.3443 13.1549 85.8359C19.8113 82.6658 26.5478 82.0574 33.4723 82.958C34.441 83.0821 35.0534 82.7699 35.6858 82.0574C37.5711 79.924 40.0447 78.8273 42.7945 78.311C44.0273 78.0788 44.8839 78.6912 45.2482 79.844C45.6324 81.0528 45.052 81.9173 43.9673 82.4217C43.4309 82.6698 42.8145 82.7419 42.2502 82.934C38.8599 84.0828 37.0627 86.5164 36.6865 90.0067C36.5664 91.1275 36.6304 92.2722 36.7025 93.401C36.8066 94.954 36.0861 95.9266 34.6091 96.0027C33.1882 96.0747 32.4637 95.026 32.3556 93.6932C32.2115 91.972 32.0834 90.2228 32.5557 88.5297C32.8119 87.6171 32.6358 87.2089 31.6311 87.1048C20.936 86.0201 11.87 89.2702 6.02617 98.2882C1.84339 104.744 -0.0738761 112.017 0.00217425 119.706C0.074222 127.075 2.1516 133.752 7.67926 139.007C14.1115 145.123 21.6605 143.222 24.2663 134.82C24.3023 134.696 24.3103 134.556 24.3623 134.436C24.8426 133.343 25.6312 132.683 26.868 132.967C28.1648 133.267 28.7092 134.2 28.5771 135.501C28.0888 140.268 24.2142 144.991 19.6872 146.316C16.4731 147.253 13.331 146.7 10.293 145.596C9.08019 145.151 8.71995 145.247 8.54383 146.584C7.37906 155.462 8.37572 163.992 12.5465 172.005C13.8834 174.575 15.7086 176.76 18.1742 178.381C19.399 179.19 19.9474 179.294 20.2996 177.525C22.1609 168.187 26.908 160.77 35.2575 155.906C38.7839 153.849 42.6464 152.644 46.9893 151.792C43.7952 148.578 41.5217 145.187 40.1848 141.197C39.6885 139.716 39.5324 138.339 41.2695 137.726C43.0187 137.106 43.7912 138.263 44.2835 139.756C45.3882 143.114 47.2655 145.988 49.8672 148.373C53.8018 151.98 58.4849 154.049 63.6964 155.006C65.1814 155.278 66.7184 155.578 66.5863 157.588C66.4862 159.093 65.2334 159.697 62.9919 159.333C60.4903 158.928 57.9566 158.388 55.7631 157.163C53.0894 155.666 50.4636 155.598 47.5617 156.123C37.6911 157.908 30.3903 162.947 26.3436 172.313C24.3783 176.86 23.934 181.699 23.6338 186.555C23.2216 193.179 23.3937 199.763 25.8833 206.044C29.5417 215.282 36.9346 218.212 44.7478 219.324C46.0247 219.509 45.5403 218.616 45.4723 218.052C45.1121 214.889 45.4923 211.924 47.6497 209.406C50.0714 206.58 53.3295 205.331 56.8358 204.587C58.1727 204.302 59.0853 205.003 59.3775 206.256C59.6857 207.577 58.9292 208.465 57.6924 208.789C56.2715 209.162 54.8745 209.562 53.5617 210.218C50.4676 211.775 49.2468 214.189 49.8392 217.591C50.2595 220.005 51.2681 222.186 52.8612 224.02C59.9059 232.133 68.9639 235.003 79.4068 233.83C99.0918 231.613 107.229 215.462 105.088 199.699C104.223 193.335 103.967 187.431 107.361 181.792C107.617 181.363 107.782 180.967 107.489 180.499C105.836 177.837 105.156 174.823 104.515 171.665ZM88.6689 150.387C88.2486 151.459 87.3721 151.944 86.2793 151.716C80.2794 150.463 74.3875 146.092 74.7117 138.383C74.8198 135.873 75.6283 134.624 77.1533 134.684C78.5822 134.744 79.1626 135.857 79.0866 138.383C78.9465 142.814 81.4161 145.908 86.1473 147.241C86.7797 147.417 87.4961 147.521 88.0045 147.889C88.821 148.489 89.0532 149.414 88.6689 150.387ZM61.0146 66.5592C63.6804 63.285 67.9552 61.0595 71.6617 61.0435C74.3354 61.0995 76.741 61.9721 78.9145 63.4771C80.0592 64.2696 80.3954 65.3944 79.5989 66.5832C78.8584 67.6919 77.7657 67.856 76.645 67.1275C71.5456 63.8173 67.4309 65.7546 64.3488 69.389C63.2921 70.6339 62.1353 71.2343 60.7985 70.0575C59.5056 68.9167 60.098 67.6879 61.0146 66.5592ZM66.3021 126.427C65.8938 127.928 64.7811 128.412 63.3562 127.94C58.3889 126.307 54.3862 129.181 52.545 133.596C52.0887 134.696 51.5283 135.673 50.1874 135.697C48.6864 135.717 47.7098 134.084 48.3142 132.491C49.1948 130.165 50.5036 128.1 52.3329 126.379C52.7691 125.971 53.5256 125.702 52.8932 124.802C48.9146 119.154 44.3716 114.207 37.3429 112.426C30.9627 110.808 25.2709 112.598 19.9634 116.124C19.0188 116.748 18.7466 117.845 18.0581 118.654C16.8734 120.039 15.5205 121.207 13.9314 122.072C12.8067 122.684 11.6899 122.58 10.9734 121.404C10.233 120.191 10.4731 119.022 11.738 118.345C15.9447 116.088 17.5098 111.541 15.0962 106.269C14.4517 104.861 14.4477 103.636 15.9768 102.907C17.5898 102.135 18.4344 103.143 19.0668 104.472C19.9594 106.346 20.2956 108.371 20.6519 110.584C27.3683 107.302 34.0447 106.39 40.9533 108.967C45.8766 110.805 49.8032 114.039 53.1494 118.013C54.3022 119.382 55.4229 120.799 56.3835 122.304C56.9959 123.257 57.6804 123.509 58.6891 123.289C60.6984 122.844 62.6557 123.185 64.581 123.757C65.8858 124.145 66.6944 124.982 66.3021 126.427ZM60.11 95.9667C58.7411 96.1708 57.7124 95.7145 57.4082 94.2735C57.132 92.9447 57.7685 92.0841 59.0493 91.7359C67.8311 89.3463 80.3754 94.1815 85.2627 101.895C86.1072 103.231 86.8517 104.676 87.3601 106.165C87.7683 107.374 88.1646 107.222 88.9571 106.63C90.1539 105.729 91.4868 105.437 92.4394 106.834C93.4281 108.287 92.6956 109.364 91.3347 110.28C87.7843 112.682 86.5835 116.164 87.9364 119.738C87.7643 120.571 88.2126 121.255 88.5689 121.912C89.3734 123.393 89.1813 124.626 87.8764 125.686C86.2433 125.971 85.2707 125.274 84.6222 123.761C82.9852 119.947 82.4408 116.112 84.0739 112.165C84.31 111.601 84.4461 111.109 84.274 110.464C82.1566 102.427 76.9412 97.7278 68.8518 96.2028C65.9699 95.6625 63.0399 95.5224 60.11 95.9667ZM83.5655 215.37C83.2453 216.675 82.4648 217.379 81.1479 217.191C79.8311 216.999 79.1266 216.046 79.3107 214.761C80.5916 205.843 76.0245 199.779 69.5483 194.668C66.6703 192.391 63.4682 190.617 60.15 189.052C59.1574 188.584 58.5089 188.412 57.6804 189.541C56.0073 191.826 53.5096 192.991 50.8118 193.683C49.4429 194.032 48.2341 193.767 47.8219 192.194C47.4136 190.637 48.2862 189.857 49.6711 189.429C54.5423 187.924 56.4436 185.27 56.3195 180.158C56.3035 179.494 56.2114 178.83 56.1994 178.165C56.1794 176.996 56.7798 176.276 57.9165 176.072C59.1414 175.852 60.0139 176.372 60.3662 177.565C60.8665 179.262 60.8545 181.035 60.5063 182.716C60.2381 184.037 60.5823 184.529 61.7671 185.066C68.2034 187.976 74.0232 191.758 78.5262 197.33C81.9365 201.549 83.8858 206.316 83.9018 211.799C83.8858 213 83.8537 214.189 83.5655 215.37Z" fill="#08213F"/>
</svg>
