<svg width="364" height="229" viewBox="0 0 364 229" fill="none" xmlns="http://www.w3.org/2000/svg">
<path d="M296.338 46.7313C299.143 46.1294 301.993 46.3944 304.825 46.4133C306.123 46.4247 306.646 46.2619 306.631 44.7288C306.54 35.708 306.585 26.6873 306.585 17.6665C306.585 15.7586 306.203 13.9302 305.574 12.1283C303.5 6.18138 297.186 0.885504 288.457 0.893075C198.063 0.999068 107.666 0.964998 17.2731 0.953642C7.54444 0.953642 0 8.42237 0 18.1435C0 72.711 0.00378547 127.275 0 181.839C0 192.442 7.19618 199.676 17.7576 199.676C54.7265 199.676 91.6917 199.683 128.657 199.638C130.205 199.638 130.667 199.982 130.625 201.58C130.508 206.054 130.512 210.54 130.625 215.014C130.659 216.487 130.209 216.759 128.838 216.737C123.857 216.65 118.871 216.699 113.886 216.71C110.343 216.722 107.882 219.031 107.871 222.335C107.856 225.754 110.301 228.059 113.973 228.059C140.214 228.067 166.455 228.07 192.696 228.07C196.193 228.07 198.688 225.72 198.711 222.43C198.737 219.11 196.288 216.722 192.798 216.71C187.752 216.695 182.702 216.661 177.66 216.741C176.354 216.759 175.945 216.445 175.971 215.094C176.055 210.616 176.096 206.134 175.956 201.659C175.899 199.956 176.395 199.634 178.019 199.634C215.174 199.687 252.328 199.668 289.482 199.687C292.257 199.687 294.873 199.108 297.307 197.836C301.24 195.78 304.015 192.691 305.593 188.319C301.331 188.3 297.277 188.546 293.336 187.433C292.927 187.316 292.571 187.399 292.25 187.577C290.8 188.387 289.221 188.323 287.647 188.323C234.279 188.319 180.911 188.323 127.544 188.319C121.366 188.319 115.184 188.278 109.003 188.259C107.367 188.259 105.728 188.255 104.089 188.255C103.964 188.255 103.839 188.255 103.714 188.259H95.0039C93.3686 188.278 91.7295 188.315 90.0904 188.315C66.2495 188.319 42.4086 188.319 18.5677 188.315C13.4157 188.315 11.3564 186.252 11.3602 181.134C11.3602 176.403 11.4094 171.671 11.3261 166.943C11.3034 165.629 11.8258 165.447 12.8744 165.671C13.3135 165.648 13.7526 165.606 14.1917 165.606C43.0862 165.603 71.9845 165.603 100.879 165.606C101.318 165.606 101.757 165.648 102.196 165.671H103.336C108.128 165.671 112.921 165.675 117.713 165.675C127.665 165.652 137.617 165.618 147.569 165.614C180.01 165.606 212.456 165.614 244.897 165.618C245.272 165.618 245.651 165.656 246.025 165.675C246.404 165.675 246.782 165.671 247.161 165.671H251.264C251.295 165.622 251.31 165.565 251.31 165.508C251.31 165.47 251.31 165.432 251.302 165.398C250.405 164.13 249.258 163.384 248.694 162.196C247.097 160.458 245.957 158.418 245.219 156.218C244.693 154.663 243.955 154.205 242.285 154.205C165.959 154.261 89.6286 154.246 13.3021 154.288C11.7842 154.288 11.3186 154.012 11.3186 152.376C11.3678 108.029 11.3564 63.6864 11.3564 19.3397C11.3564 14.4034 13.4384 12.3176 18.3557 12.3176H288.407C293.082 12.3176 295.225 14.464 295.229 19.139C295.236 27.8456 295.229 36.5484 295.24 45.255C295.24 45.978 294.846 47.0493 296.338 46.7313ZM141.913 201.008C141.902 199.922 142.22 199.63 143.288 199.653C146.623 199.717 149.958 199.676 153.296 199.676C156.631 199.676 159.97 199.717 163.305 199.653C164.365 199.63 164.683 199.929 164.672 201.004C164.615 205.789 164.619 210.574 164.668 215.359C164.679 216.415 164.376 216.737 163.301 216.729C156.628 216.684 149.954 216.684 143.28 216.729C142.209 216.737 141.902 216.438 141.913 215.363C141.97 210.578 141.974 205.793 141.913 201.008ZM103.336 165.671C103.396 165.837 103.51 166 103.563 166.159C103.65 166.163 103.737 166.167 103.824 166.167C103.828 166.163 103.828 166.159 103.832 166.155C103.938 165.993 103.559 165.784 103.336 165.671Z" fill="#08213F"/>
<path d="M303.243 94.606C290.648 94.8521 280.78 105.239 281.018 118C281.249 130.261 291.727 140.346 303.973 140.085C316.923 139.808 326.739 129.569 326.489 116.596C326.255 104.327 315.72 94.36 303.243 94.606ZM303.489 128.645C297.258 128.547 292.367 123.436 292.477 117.13C292.583 110.865 297.652 105.97 303.928 106.072C310.284 106.171 315.159 111.266 315.023 117.66C314.891 123.894 309.799 128.743 303.489 128.645Z" fill="#08213F"/>
<path d="M363.341 114.079C363.401 107.004 359.866 102.064 353.252 99.7888C351.594 99.2172 350.41 96.2077 351.223 94.6292C354.108 89.0418 353.165 82.5573 348.782 78.0488C346.98 76.1977 345.125 74.3921 343.3 72.5637C338.709 67.9719 332.466 66.9385 326.641 69.8041C324.672 70.7694 321.882 69.5391 321.137 67.4344C319.365 62.4224 315.935 59.1783 310.7 58.0653C307.153 57.312 303.534 57.7928 299.949 57.7587C293.484 57.6981 288.313 61.4836 286.265 67.6199C285.629 69.5315 282.672 70.7315 280.878 69.8116C275.393 67.0028 269.045 67.9 264.612 72.1624C262.568 74.1271 260.554 76.1334 258.593 78.1813C254.278 82.6822 253.399 89.0532 256.269 94.5989C257.132 96.2645 255.871 99.2285 254.088 99.8493C248.864 101.663 245.465 105.179 244.409 110.676C243.735 114.166 244.185 117.721 244.151 121.241C244.091 127.691 248.092 133.021 254.281 134.929C255.739 135.376 257.12 138.442 256.413 139.801C253.755 144.885 254.092 149.84 256.98 154.705C257.961 155.825 258.941 156.942 259.922 158.062C261.205 159.361 262.458 160.697 263.775 161.958C268.889 166.837 274.897 167.749 281.291 164.653C282.672 163.983 285.72 165.41 286.231 166.966C288.263 173.189 293.468 176.967 300.025 176.971C302.546 176.971 305.071 176.967 307.592 176.967C314.005 176.963 319.263 173.132 321.246 167.023C321.844 165.183 324.801 163.968 326.527 164.85C332.201 167.764 338.709 166.746 343.228 162.238C345.011 160.455 346.802 158.679 348.581 156.889C353.143 152.305 354.153 145.994 351.269 140.199C350.357 138.37 351.575 135.497 353.529 134.804C358.749 132.949 362.076 129.403 363.102 123.887C363.704 120.639 363.31 117.35 363.341 114.079ZM351.984 121.218C351.89 123.013 350.898 123.914 349.088 123.997C347.211 124.08 344.841 123.247 343.599 124.341C342.468 125.341 342.623 127.726 342.063 129.456C340.919 132.999 339.398 136.383 337.255 139.445C336.664 140.293 336.509 140.869 337.437 141.63C338.5 142.504 339.42 143.564 340.374 144.567C341.817 146.089 341.832 147.361 340.405 148.83C338.69 150.594 336.967 152.346 335.203 154.061C333.81 155.416 332.508 155.405 331.054 154.091C329.661 152.838 328.571 150.571 326.951 150.45C325.46 150.336 323.858 152.123 322.257 152.986C319.138 154.663 315.848 155.935 312.358 156.529C310.734 156.806 310.166 157.479 310.359 159.088C310.499 160.269 310.412 161.481 310.378 162.681C310.329 164.509 309.417 165.531 307.615 165.58C305.029 165.652 302.44 165.652 299.858 165.58C298.06 165.527 297.163 164.513 297.11 162.673C297.057 160.852 297.67 158.623 296.83 157.317C295.99 156.011 293.521 156.325 291.814 155.753C288.169 154.527 284.656 153.009 281.51 150.775C280.666 150.177 280.193 150.2 279.519 150.987C278.576 152.089 277.52 153.092 276.457 154.08C275.033 155.401 273.716 155.416 272.304 154.069C270.479 152.327 268.696 150.544 266.955 148.72C265.695 147.399 265.74 146.108 266.951 144.703C266.993 144.658 267.038 144.613 267.084 144.567C268.337 143.254 270.381 142.069 270.619 140.592C270.835 139.252 269.052 137.613 268.219 136.073C266.38 132.677 265.108 129.066 264.373 125.284C264.18 124.303 263.862 123.898 262.818 123.967C261.372 124.065 259.918 124.016 258.468 123.989C256.632 123.951 255.568 123.05 255.515 121.279C255.436 118.633 255.425 115.979 255.542 113.333C255.614 111.656 256.621 110.706 258.385 110.71C259.77 110.714 261.16 110.661 262.545 110.725C263.609 110.774 264.161 110.615 264.407 109.332C265.384 104.214 267.371 99.4708 270.29 95.1478C270.877 94.2809 270.82 93.7812 270.071 93.0999C268.95 92.0853 267.89 90.9989 266.879 89.8784C265.74 88.6141 265.691 87.274 266.917 86.0172C268.719 84.1661 270.529 82.3188 272.383 80.5207C273.636 79.3056 275.079 79.3359 276.404 80.5775C277.554 81.6526 278.671 82.7769 279.735 83.9352C280.272 84.5182 280.666 84.5333 281.306 84.0829C285.739 80.9523 290.686 79.0028 295.978 77.9353C297 77.7271 297.144 77.2728 297.118 76.4173C297.076 74.9674 297.084 73.5138 297.114 72.064C297.152 70.2432 298.075 69.1719 299.843 69.1189C302.429 69.0394 305.018 69.0432 307.6 69.1189C309.413 69.1719 310.299 70.1902 310.386 72.011C310.48 73.8924 309.625 76.2659 310.715 77.5113C311.707 78.6356 314.099 78.469 315.829 79.0179C319.441 80.1687 322.866 81.7548 325.978 83.9314C326.811 84.5144 327.299 84.5333 327.984 83.7157C328.916 82.6103 329.991 81.6185 331.051 80.6343C332.504 79.2829 333.78 79.2602 335.196 80.6229C337.009 82.368 338.796 84.1548 340.522 85.9907C341.851 87.4027 341.839 88.5308 340.529 89.9806C339.473 91.1503 338.349 92.2557 337.206 93.3421C336.638 93.8759 336.615 94.2582 337.07 94.9244C340.117 99.3989 342.131 104.328 343.183 109.627C343.357 110.521 343.668 110.759 344.516 110.725C345.962 110.664 347.415 110.691 348.865 110.71C351.011 110.74 351.935 111.66 351.996 113.84C352.03 115.037 352.003 116.237 351.999 117.433C351.999 118.697 352.052 119.958 351.984 121.218Z" fill="#08213F"/>
<path d="M179.034 181.937C179.091 181.115 179.73 180.619 180.132 179.995C182.373 176.512 180.321 172.291 176.195 171.909C175.377 171.833 174.556 171.864 173.738 171.86C160.5 171.86 147.262 171.886 134.025 171.841C131.348 171.829 128.736 171.871 126.386 173.37C126.276 173.381 126.174 173.381 126.079 173.37C126.06 173.366 126.037 173.366 126.018 173.363C126.068 173.317 126.117 173.275 126.166 173.238C127.563 171.814 129.228 171.254 131.238 171.262C145.771 171.307 160.303 171.322 174.832 171.254C177.739 171.243 180.056 171.958 181.26 174.793C182.357 177.375 181.665 179.487 179.034 181.937Z" fill="white"/>
<path d="M81.2853 83.2948C92.3351 90.6576 103.18 97.8803 114.022 105.107C117.531 107.446 121.037 109.797 124.546 112.136C127.824 114.321 128.71 117.587 126.806 120.517C124.973 123.334 121.445 123.803 118.171 121.619C102.242 111.001 86.32 100.375 70.3945 89.7529C69.7131 89.2986 69.0204 88.8633 68.339 88.4128C64.2128 85.71 64.1901 80.9592 68.2973 78.2185C82.8525 68.5012 97.4114 58.7877 111.97 49.0742C114.17 47.6054 116.373 46.1443 118.572 44.6793C121.457 42.7563 124.917 43.29 126.76 45.9436C128.645 48.654 127.9 52.201 124.943 54.177C111.02 63.4741 97.0783 72.7447 83.1477 82.0267C82.5723 82.4053 82.0083 82.8027 81.2853 83.2948Z" fill="#08213F"/>
<path d="M225.273 83.2461C216.306 77.2764 207.501 71.4203 198.703 65.5566C192.945 61.7181 187.173 57.8948 181.449 54.0033C178.901 52.2734 178.148 49.5062 179.325 46.8829C180.431 44.4147 182.997 43.1163 185.696 43.6349C186.457 43.7826 187.123 44.1081 187.752 44.5283C204.718 55.8317 221.696 67.12 238.644 78.4537C242.391 80.9597 242.24 85.7104 238.352 88.3148C225.164 97.1426 211.949 105.932 198.745 114.734C195.289 117.039 191.825 119.337 188.376 121.65C185.185 123.788 181.646 123.308 179.738 120.45C177.841 117.614 178.826 114.283 182.108 112.099C196.152 102.76 210.185 93.3987 224.217 84.0411C224.531 83.8366 224.819 83.5906 225.273 83.2461Z" fill="#08213F"/>
<path d="M141.997 131.552C138.083 131.567 135.486 128.123 136.531 124.163C140.21 110.187 143.924 96.2149 147.641 82.2465C151.407 68.0964 155.182 53.9501 158.975 39.8076C159.815 36.6808 161.742 35.0644 164.49 35.0228C167.2 34.9811 169.351 36.5597 170.13 39.1452C170.509 40.4019 170.312 41.6208 169.983 42.8587C162.832 69.6371 155.696 96.4231 148.553 123.205C148.148 124.723 147.796 126.26 147.285 127.74C146.441 130.174 144.469 131.541 141.997 131.552Z" fill="#08213F"/>
<path d="M179.034 181.937C177.739 182.47 176.403 182.663 174.995 182.66C160.428 182.629 145.858 182.618 131.292 182.663C129.119 182.671 127.358 182.027 125.946 180.388C124.485 178.004 124.569 175.664 126.079 173.37C126.06 173.366 126.037 173.366 126.018 173.363C126.068 173.317 126.117 173.275 126.166 173.238C127.563 171.814 129.228 171.254 131.239 171.262C145.771 171.307 160.303 171.322 174.832 171.254C177.739 171.243 180.056 171.958 181.26 174.793C182.357 177.375 181.665 179.487 179.034 181.937Z" fill="#08213F"/>
<path d="M126.165 173.238C126.135 173.284 126.105 173.325 126.079 173.37C126.06 173.367 126.037 173.367 126.018 173.363C126.067 173.317 126.116 173.276 126.165 173.238Z" fill="#F2F2F2"/>
<path d="M27.6264 170.478C30.3141 170.497 32.3772 172.602 32.3431 175.293C32.3128 177.951 30.174 180.036 27.5015 180.014C24.8744 179.991 22.6902 177.761 22.7469 175.165C22.8037 172.481 24.9047 170.463 27.6264 170.478Z" fill="white"/>
<path d="M46.6749 170.478C49.3512 170.493 51.4597 172.628 51.437 175.289C51.4143 177.905 49.1922 180.055 46.5575 180.014C43.9115 179.972 41.7803 177.795 41.8181 175.172C41.8598 172.484 43.9531 170.463 46.6749 170.478Z" fill="white"/>
<path d="M103.832 166.155C103.828 166.159 103.828 166.163 103.824 166.167C103.737 166.167 103.65 166.163 103.563 166.159C103.51 166 103.396 165.837 103.336 165.671C103.559 165.784 103.938 165.993 103.832 166.155Z" fill="white"/>
<path d="M103.832 166.155C103.828 166.159 103.828 166.163 103.824 166.167C103.737 166.167 103.65 166.163 103.563 166.159C103.51 166 103.396 165.837 103.336 165.671C103.559 165.784 103.938 165.993 103.832 166.155Z" fill="#F2F2F2"/>
<path d="M303.243 94.606C290.648 94.8521 280.78 105.239 281.018 118C281.249 130.261 291.727 140.346 303.973 140.085C316.923 139.808 326.739 129.569 326.489 116.596C326.255 104.327 315.72 94.36 303.243 94.606ZM303.489 128.645C297.258 128.547 292.367 123.436 292.477 117.13C292.583 110.865 297.652 105.97 303.928 106.072C310.284 106.171 315.159 111.266 315.023 117.66C314.891 123.894 309.799 128.743 303.489 128.645Z" fill="white"/>
<path d="M51.437 175.289C51.4143 177.905 49.1922 180.055 46.5575 180.014C43.9115 179.972 41.7803 177.795 41.8181 175.172C41.8598 172.484 43.9531 170.463 46.6749 170.478C49.3512 170.493 51.4597 172.628 51.437 175.289Z" fill="#08213F"/>
<path d="M32.3431 175.293C32.3128 177.951 30.174 180.036 27.5015 180.014C24.8744 179.991 22.6902 177.761 22.7469 175.165C22.8037 172.481 24.9047 170.463 27.6264 170.478C30.3141 170.497 32.3772 172.602 32.3431 175.293Z" fill="#08213F"/>
<path d="M303.243 94.606C290.648 94.8521 280.78 105.239 281.018 118C281.249 130.261 291.727 140.346 303.973 140.085C316.923 139.808 326.739 129.569 326.489 116.596C326.255 104.327 315.72 94.36 303.243 94.606ZM303.489 128.645C297.258 128.547 292.367 123.436 292.477 117.13C292.583 110.865 297.652 105.97 303.928 106.072C310.284 106.171 315.159 111.266 315.023 117.66C314.891 123.894 309.799 128.743 303.489 128.645Z" fill="#08213F"/>
</svg>
