<svg width="356" height="64" viewBox="0 0 356 64" fill="none" xmlns="http://www.w3.org/2000/svg">
<path d="M21.0829 33.1561C21.0551 33.2377 21.0622 33.3226 21.0622 33.4065C21.0619 36.5328 21.0619 39.6593 21.0612 42.7857C21.0612 42.839 21.0771 42.8956 21.0427 42.9453C21.0054 42.9847 20.9584 42.9968 20.9053 42.9971C20.8465 42.9974 20.7874 42.9984 20.7285 42.9984C17.3104 42.9984 13.8921 42.9984 10.474 42.9984C10.3899 42.9984 10.3055 42.9994 10.2219 42.9946C10.0011 42.9329 9.77301 42.962 9.54869 42.9433C9.32209 42.9246 9.09752 42.8923 8.87346 42.8569C7.01525 42.5646 5.3556 41.8204 3.89121 40.644C2.55465 39.5702 1.54622 38.2409 0.848007 36.6763C0.456207 35.7987 0.197028 34.882 0.0608708 33.9314C0.0199478 33.6449 0.0186847 33.3539 0.0121169 33.0642C0.0111064 33.0149 0.0265157 32.9636 0.000244141 32.9162C0.000244141 32.5794 0.000244141 32.2427 0.000244141 31.9057C0.032831 31.7615 0.0186847 31.6134 0.0212109 31.4684C0.0320731 30.8147 0.167473 30.1834 0.340764 29.5584C0.766413 28.0246 1.51288 26.6613 2.55414 25.4613C3.41226 24.4724 4.42801 23.6774 5.5827 23.0588C6.70833 22.4555 7.90949 22.0915 9.17002 21.9134C9.38904 21.8824 9.61184 21.8755 9.83313 21.8677C9.94705 21.8637 10.0597 21.8609 10.1699 21.828C10.2416 21.8235 10.3131 21.824 10.3848 21.824C13.8484 21.8237 17.3119 21.8238 20.7752 21.8245C20.8626 21.8245 20.9526 21.8111 21.0369 21.8498C21.0614 21.8609 21.0791 21.8793 21.0933 21.9016C21.136 21.9892 21.119 22.0834 21.119 22.1746C21.12 24.7692 21.1195 27.3638 21.1203 29.9583C21.1205 30.3953 21.1188 30.8326 21.1034 31.2694C21.0988 31.3959 21.1056 31.5215 21.1372 31.6445C21.1036 32.078 21.1256 32.5125 21.1188 32.9465C21.1173 33.0172 21.1602 33.0975 21.0829 33.1561Z" fill="#765EA5"/>
<path d="M21.0651 0.837402C24.7191 0.837402 28.3731 0.837402 32.0272 0.837402C32.18 0.870494 32.3364 0.855338 32.4897 0.858369C33.4236 0.877062 34.3113 1.11351 35.1823 1.4222C36.177 1.77484 37.0933 2.2788 37.9355 2.91513C39.3501 3.98393 40.427 5.32731 41.1777 6.93164C41.6178 7.87211 41.9058 8.85957 42.0457 9.88795C42.0904 10.2163 42.0927 10.5495 42.0934 10.8817C42.0934 10.9267 42.0793 10.9739 42.1053 11.0171C42.1053 11.2528 42.1053 11.4887 42.1053 11.7244C42.0722 11.9068 42.0884 12.0922 42.0844 12.2751C42.0692 12.9582 41.9272 13.6185 41.7428 14.2708C41.4015 15.477 40.8594 16.5885 40.116 17.5976C39.412 18.5533 38.5761 19.3765 37.5982 20.0538C36.7341 20.6522 35.8019 21.114 34.8031 21.4371C34.0647 21.6758 33.3074 21.8337 32.5319 21.8867C32.3568 21.8986 32.181 21.9223 32.0044 21.9165C31.8867 21.9196 31.7685 21.9067 31.652 21.9329C31.6053 21.9332 31.5583 21.9337 31.5116 21.9332C31.3529 21.9021 31.1925 21.9223 31.0329 21.9168C27.7982 21.9504 24.5635 21.9259 21.3288 21.9322C21.2389 21.9324 21.1416 21.9562 21.0633 21.8847C21.034 21.8506 21.028 21.8097 21.028 21.7665C21.028 21.7286 21.0275 21.6907 21.0275 21.6528C21.0275 14.7914 21.0275 7.92996 21.0285 1.06879C21.0282 0.990485 21.0045 0.906365 21.0651 0.837402Z" fill="#ED7164"/>
<path d="M21.0385 21.8783C20.9879 21.8791 20.9374 21.8809 20.8871 21.8809C17.4612 21.8809 14.0353 21.8809 10.6094 21.8811C10.4495 21.8811 10.2896 21.8819 10.1297 21.8821C9.80333 21.8892 9.47771 21.8907 9.1521 21.8493C8.54078 21.7715 7.94133 21.6389 7.35502 21.4539C6.73587 21.2589 6.13819 21.0091 5.56527 20.7014C4.97037 20.3819 4.40579 20.0156 3.88364 19.5877C2.80095 18.7 1.91151 17.6509 1.24057 16.4179C0.661336 15.3536 0.282419 14.2227 0.086393 13.0294C0.0222298 12.6386 0.0171775 12.2432 0.0118727 11.8484C0.0113675 11.8072 0.0252611 11.7643 0 11.7254C0 11.4811 0 11.2371 0 10.9928C0.033092 10.8188 0.0174302 10.6417 0.0209667 10.4671C0.0361234 9.75831 0.186174 9.07399 0.379927 8.39775C0.687355 7.32466 1.1658 6.33038 1.79354 5.40885C2.54834 4.30065 3.48426 3.37382 4.59095 2.61599C5.59508 1.92863 6.69015 1.44387 7.86201 1.12912C8.28034 1.01671 8.70624 0.927786 9.13745 0.8856C9.42921 0.857055 9.72401 0.844172 10.0186 0.851498C10.039 0.852003 10.0607 0.855287 10.0782 0.83912C13.7319 0.838867 17.386 0.838867 21.04 0.838867C21.0637 0.882569 21.0521 0.929807 21.0521 0.975277C21.0526 7.89783 21.0526 14.8204 21.0521 21.7429C21.0518 21.7879 21.065 21.8354 21.0385 21.8783Z" fill="#E95026"/>
<path d="M10.1802 42.9428C10.2474 42.9436 10.3149 42.9451 10.3821 42.9451C13.9358 42.9453 17.4893 42.9453 21.043 42.9453C21.0455 42.9956 21.0506 43.0459 21.0506 43.0959C21.0508 46.5178 21.0478 49.9399 21.0521 53.3618C21.0549 55.6231 20.4238 57.6854 19.1186 59.5328C18.0059 61.1078 16.5594 62.2847 14.8005 63.0764C14.0184 63.4283 13.2035 63.6764 12.3602 63.8239C11.9394 63.8974 11.5148 63.9598 11.0848 63.9623C11.027 63.9626 10.9663 63.955 10.9118 63.9848C10.6508 63.9848 10.3899 63.9848 10.1287 63.9848C9.9463 63.9517 9.76113 63.9689 9.57774 63.9636C8.95909 63.9459 8.35965 63.8244 7.76525 63.6655C6.88187 63.4293 6.04624 63.0767 5.2538 62.623C4.6349 62.2686 4.05794 61.8528 3.52518 61.3786C2.07393 60.0873 1.04959 58.5158 0.452165 56.6677C0.255129 56.0579 0.107604 55.4354 0.0454615 54.7968C0.0174217 54.5089 0.00706464 54.2184 0.0126221 53.9281C0.0131273 53.9039 0.0194426 53.8773 0.000244141 53.8559C0.000244141 53.5863 0.000244141 53.317 0.000244141 53.0475C0.0323257 52.8818 0.0181795 52.7133 0.0214635 52.5471C0.0366201 51.7905 0.206122 51.0635 0.424125 50.3458C0.708313 49.4099 1.11931 48.5313 1.6551 47.7126C2.02467 47.148 2.44122 46.6213 2.91032 46.1346C3.65805 45.3588 4.50177 44.7103 5.44351 44.1892C6.27308 43.7302 7.15116 43.3945 8.07445 43.1772C8.57437 43.0595 9.07833 42.9572 9.59214 42.941C9.78665 42.9352 9.98444 42.9077 10.1802 42.9428Z" fill="#4CB37D"/>
<path d="M31.5229 21.8813C31.5638 21.8813 31.6047 21.8813 31.6456 21.8813C31.7659 21.9016 31.8869 21.8849 32.0074 21.8902C33.1808 21.8432 34.2887 22.1398 35.3742 22.5427C36.4776 22.9522 37.4688 23.5564 38.3714 24.3079C39.3548 25.1266 40.1548 26.1007 40.7861 27.2119C41.4093 28.3088 41.8178 29.4832 42.0191 30.729C42.081 31.1115 42.0868 31.498 42.0934 31.8842C42.0941 31.9335 42.079 31.9848 42.1053 32.032C42.1053 32.2846 42.1053 32.5372 42.1053 32.7898C42.0603 32.9707 42.0754 33.1569 42.0598 33.3403C41.9772 34.3065 41.7607 35.2419 41.4174 36.1468C40.9806 37.2977 40.3584 38.3405 39.5536 39.2729C38.5225 40.4675 37.2852 41.3859 35.8458 42.0311C35.0521 42.387 34.2248 42.6384 33.3677 42.7844C32.4391 42.9428 31.5034 42.9827 30.5657 42.8882C28.5034 42.6806 26.648 41.9432 25.031 40.6463C23.0804 39.0819 21.8282 37.0726 21.2893 34.6248C21.1827 34.1403 21.111 33.6513 21.083 33.1559C21.0539 32.6562 21.0521 32.1568 21.0842 31.6576C21.0701 31.2105 21.1168 30.7695 21.2052 30.3314C21.4892 28.9272 22.0373 27.6338 22.8421 26.4506C23.1569 25.9878 23.5113 25.5558 23.8953 25.1463C24.7812 24.2021 25.8111 23.4564 26.9698 22.8885C27.9206 22.4227 28.924 22.1165 29.9708 21.9546C30.3331 21.8985 30.6989 21.8998 31.0639 21.8904C31.2172 21.8854 31.3703 21.9013 31.5229 21.8813Z" fill="#46B7E9"/>
<path d="M21.0386 21.8769C21.0391 19.128 21.0398 16.379 21.0398 13.6304C21.0401 9.36606 21.0398 5.10173 21.0398 0.837402C21.0482 0.837402 21.0568 0.837402 21.0651 0.837402C21.0651 7.77511 21.0651 14.7128 21.0651 21.6508C21.0651 21.7266 21.0641 21.8024 21.0636 21.8781C21.0724 21.8925 21.0661 21.8711 21.0694 21.8877C21.0704 21.8925 21.0659 21.8938 21.0555 21.892C21.0472 21.8903 21.0414 21.8852 21.0386 21.8769Z" fill="#BD4D39"/>
<path d="M31.0389 21.8985C31.0386 21.8932 31.0391 21.8879 31.0406 21.8829C31.2011 21.8824 31.3619 21.8819 31.5224 21.8813C31.3621 21.9131 31.2006 21.9089 31.0389 21.8985Z" fill="#2A6C8D"/>
<path d="M32.0309 21.8809C32.0304 21.8869 32.0307 21.8927 32.032 21.8988C31.9025 21.9081 31.7733 21.9116 31.6459 21.8814C31.7741 21.8811 31.9025 21.8811 32.0309 21.8809Z" fill="#2A6C8D"/>
<path d="M67.3932 36.9487V15.6375H79.0175V17.6062H69.7368V25.0432H76.6114V26.9493H69.7368V36.9487H67.3932ZM82.1476 36.9487V22.3246H84.2725V36.9487H82.1476ZM83.2101 19.481C82.7309 19.481 82.3247 19.3144 81.9914 18.9811C81.6789 18.6478 81.5227 18.2415 81.5227 17.7624C81.5227 17.3041 81.6789 16.9187 81.9914 16.6062C82.3247 16.2729 82.7309 16.1062 83.2101 16.1062C83.6684 16.1062 84.0642 16.2729 84.3975 16.6062C84.7308 16.9187 84.8975 17.3145 84.8975 17.7936C84.8975 18.2519 84.7308 18.6478 84.3975 18.9811C84.0642 19.3144 83.6684 19.481 83.2101 19.481ZM102.946 22.3246V36.3863C102.946 37.6987 102.675 38.8653 102.133 39.8861C101.592 40.9277 100.831 41.7401 99.8521 42.3234C98.873 42.9067 97.7585 43.1984 96.5086 43.1984H90.4464V41.261H96.5086C97.7793 41.261 98.8105 40.8027 99.6021 39.8861C100.415 38.9694 100.821 37.8028 100.821 36.3863V34.7926C100.217 35.6259 99.4772 36.2821 98.6022 36.7612C97.7273 37.2195 96.769 37.4487 95.7274 37.4487C94.3316 37.4487 93.0817 37.1154 91.9776 36.4488C90.8735 35.7821 90.009 34.8551 89.384 33.6677C88.7591 32.4803 88.4466 31.1262 88.4466 29.6054C88.4466 28.1055 88.7486 26.7723 89.3528 25.6057C89.9777 24.4182 90.8318 23.4912 91.9151 22.8246C93.0192 22.158 94.2691 21.8246 95.6649 21.8246C96.7273 21.8246 97.696 22.0642 98.571 22.5434C99.4667 23.0017 100.217 23.6579 100.821 24.512V22.3246H102.946ZM95.6649 35.5113C96.6648 35.5113 97.5502 35.2613 98.321 34.7614C99.1126 34.2614 99.7271 33.5635 100.165 32.6677C100.602 31.772 100.821 30.7616 100.821 29.6367C100.821 28.5117 100.602 27.5014 100.165 26.6056C99.7271 25.7098 99.1126 25.012 98.321 24.512C97.5502 24.012 96.6648 23.762 95.6649 23.762C94.6858 23.762 93.8108 24.012 93.04 24.512C92.2693 25.012 91.6651 25.7098 91.2277 26.6056C90.7902 27.4806 90.5714 28.4805 90.5714 29.6054C90.5714 30.7512 90.7902 31.772 91.2277 32.6677C91.6651 33.5635 92.2693 34.2614 93.04 34.7614C93.8108 35.2613 94.6858 35.5113 95.6649 35.5113ZM122.43 21.8246C123.784 21.8246 124.909 22.3038 125.805 23.2621C126.701 24.1995 127.149 25.5015 127.149 27.1681V36.9487H125.024V28.1055C125.024 26.5639 124.732 25.4598 124.149 24.7932C123.566 24.1058 122.805 23.762 121.868 23.762C120.722 23.762 119.826 24.2099 119.181 25.1057C118.556 25.9806 118.191 27.1785 118.087 28.6992V36.9487H115.962V28.1055C115.962 26.5639 115.67 25.4598 115.087 24.7932C114.504 24.1058 113.743 23.762 112.806 23.762C111.535 23.762 110.577 24.2932 109.931 25.3557C109.306 26.4181 108.994 27.8451 108.994 29.6367V36.9487H106.869V22.3246H108.994V24.6057C109.473 23.71 110.077 23.0225 110.806 22.5434C111.556 22.0642 112.41 21.8246 113.368 21.8246C114.431 21.8246 115.358 22.1163 116.149 22.6996C116.941 23.2621 117.493 24.0745 117.806 25.1369C118.264 24.0953 118.889 23.2829 119.681 22.6996C120.472 22.1163 121.389 21.8246 122.43 21.8246ZM144.508 22.3246V36.9487H142.383V34.7926C141.779 35.6259 141.04 36.2821 140.165 36.7612C139.29 37.2195 138.331 37.4487 137.29 37.4487C135.894 37.4487 134.644 37.1154 133.54 36.4488C132.436 35.7821 131.571 34.8551 130.946 33.6677C130.321 32.4803 130.009 31.1262 130.009 29.6054C130.009 28.1055 130.311 26.7723 130.915 25.6057C131.54 24.4182 132.394 23.4912 133.478 22.8246C134.582 22.158 135.832 21.8246 137.227 21.8246C138.29 21.8246 139.258 22.0642 140.133 22.5434C141.029 23.0017 141.779 23.6579 142.383 24.512V22.3246H144.508ZM137.227 35.5113C138.227 35.5113 139.113 35.2613 139.883 34.7614C140.675 34.2614 141.29 33.5635 141.727 32.6677C142.164 31.772 142.383 30.7616 142.383 29.6367C142.383 28.5117 142.164 27.5014 141.727 26.6056C141.29 25.7098 140.675 25.012 139.883 24.512C139.113 24.012 138.227 23.762 137.227 23.762C136.248 23.762 135.373 24.012 134.602 24.512C133.832 25.012 133.228 25.7098 132.79 26.6056C132.353 27.4806 132.134 28.4805 132.134 29.6054C132.134 30.7512 132.353 31.772 132.79 32.6677C133.228 33.5635 133.832 34.2614 134.602 34.7614C135.373 35.2613 136.248 35.5113 137.227 35.5113Z" fill="#FF4D5A"/>
<path d="M158.88 36.7939L165.334 20.9186H160.945C159.913 20.9186 159.113 21.1681 158.545 21.6671C157.994 22.149 157.719 22.846 157.719 23.7581H156.944V21.822C156.944 21.4778 157.004 21.1509 157.125 20.8411C157.245 20.5141 157.46 20.256 157.77 20.0667C158.097 19.8602 158.553 19.7569 159.138 19.7569H168.457V20.9186L162.004 36.7939H158.88ZM176.425 37.3102C174.79 37.3102 173.473 36.9316 172.475 36.1744C171.494 35.4172 170.789 34.3589 170.358 32.9993C169.928 31.6398 169.713 30.0652 169.713 28.2754C169.713 26.4857 169.928 24.9111 170.358 23.5515C170.789 22.192 171.494 21.1337 172.475 20.3765C173.473 19.6193 174.79 19.2407 176.425 19.2407C178.077 19.2407 179.393 19.6193 180.374 20.3765C181.355 21.1337 182.061 22.192 182.491 23.5515C182.921 24.9111 183.136 26.4857 183.136 28.2754C183.136 30.0652 182.921 31.6398 182.491 32.9993C182.061 34.3589 181.355 35.4172 180.374 36.1744C179.393 36.9316 178.077 37.3102 176.425 37.3102ZM176.425 36.1486C177.509 36.1486 178.292 35.5205 178.774 34.2642C179.273 32.9907 179.522 30.9945 179.522 28.2754C179.522 25.5564 179.273 23.5688 178.774 22.3125C178.292 21.039 177.509 20.4023 176.425 20.4023C175.34 20.4023 174.549 21.039 174.05 22.3125C173.568 23.5688 173.327 25.5564 173.327 28.2754C173.327 30.9945 173.568 32.9907 174.05 34.2642C174.549 35.5205 175.34 36.1486 176.425 36.1486ZM186.4 36.7939L198.894 19.7569H201.63L189.136 36.7939H186.4ZM198.92 36.923C197.629 36.923 196.614 36.6132 195.874 35.9937C195.151 35.3742 194.79 34.4965 194.79 33.3607C194.79 32.2249 195.151 31.3473 195.874 30.7277C196.614 30.1082 197.629 29.7984 198.92 29.7984C200.176 29.7984 201.166 30.1082 201.888 30.7277C202.628 31.3473 202.998 32.2249 202.998 33.3607C202.998 34.4965 202.628 35.3742 201.888 35.9937C201.166 36.6132 200.176 36.923 198.92 36.923ZM198.894 35.8905C200.254 35.8905 200.933 35.0472 200.933 33.3607C200.933 31.6742 200.245 30.831 198.868 30.831C197.526 30.831 196.855 31.6742 196.855 33.3607C196.855 35.0472 197.534 35.8905 198.894 35.8905ZM189.162 26.7524C187.872 26.7524 186.856 26.4427 186.116 25.8231C185.393 25.2036 185.032 24.326 185.032 23.1902C185.032 22.0544 185.393 21.1767 186.116 20.5572C186.856 19.9376 187.872 19.6279 189.162 19.6279C190.419 19.6279 191.408 19.9376 192.131 20.5572C192.871 21.1767 193.241 22.0544 193.241 23.1902C193.241 24.326 192.871 25.2036 192.131 25.8231C191.408 26.4427 190.419 26.7524 189.162 26.7524ZM189.136 25.7199C190.496 25.7199 191.176 24.8766 191.176 23.1902C191.176 21.5037 190.487 20.6604 189.111 20.6604C187.768 20.6604 187.097 21.5037 187.097 23.1902C187.097 24.8766 187.777 25.7199 189.136 25.7199Z" fill="#08213F"/>
<rect x="65.5469" y="45.0202" width="289.368" height="14.9351" rx="7.46755" stroke="url(#paint0_linear_104_68)" stroke-width="1.24459"/>
<rect x="65" y="45" width="211" height="15" rx="7.5" fill="url(#paint1_linear_104_68)"/>
<defs>
<linearGradient id="paint0_linear_104_68" x1="210.231" y1="44.3979" x2="-4.46147" y2="44.398" gradientUnits="userSpaceOnUse">
<stop stop-color="#08213F"/>
<stop offset="1" stop-color="#FF4D5A"/>
</linearGradient>
<linearGradient id="paint1_linear_104_68" x1="276" y1="60" x2="40.0209" y2="60" gradientUnits="userSpaceOnUse">
<stop stop-color="#0A294E"/>
<stop offset="1" stop-color="#FF4D5A"/>
</linearGradient>
</defs>
</svg>
