<svg width="372" height="58" viewBox="0 0 372 58" fill="none" xmlns="http://www.w3.org/2000/svg">
<path d="M3.21827 46.8517L0 10.4292H35.3604L32.139 46.8454L17.6588 50.8963L3.21827 46.8517Z" fill="#E44F26"/>
<path d="M17.6807 47.8001L29.3813 44.5263L32.1348 13.4072H17.6807V47.8001Z" fill="#F1662A"/>
<path d="M17.6806 26.9155H11.8225L11.4181 22.3419H17.6806V17.8745H17.665H6.57922L6.68553 19.0723L7.77357 31.3828H17.6806V26.9155Z" fill="#EBEBEB"/>
<path d="M17.6807 38.5169L17.6609 38.5221L12.7303 37.1781L12.4156 33.6162H10.0196H7.97168L8.59178 40.6296L17.6598 43.1693L17.6807 43.164V38.5169Z" fill="#EBEBEB"/>
<path d="M3.29028 0.530762H5.53932V2.77391H7.59764V0.530762H9.84772V7.3233H7.59764V5.04861H5.53932V7.3233H3.29028V0.530762Z" fill="#010101"/>
<path d="M12.8053 2.78337H10.8252V0.530762H17.0366V2.78337H15.0554V7.3233H12.8053V2.78337Z" fill="#010101"/>
<path d="M18.0226 0.530762H20.3685L21.8109 2.91798L23.2533 0.530762H25.5993V7.3233H23.3586V3.957L21.8109 6.37157H21.7724L20.2237 3.957V7.3233H18.0226V0.530762Z" fill="#010101"/>
<path d="M26.7185 0.530762H28.9696V5.07805H32.1327V7.3233H26.7185V0.530762Z" fill="#010101"/>
<path d="M17.665 26.915V31.3824H23.1157L22.6019 37.1748L17.665 38.5199V43.1671L26.7404 40.6295L26.8071 39.8744L27.8472 28.115L27.9545 26.915H26.7623H17.665Z" fill="white"/>
<path d="M17.665 17.8745V20.6487V22.3303V22.3419H28.3433H28.3579L28.4465 21.3376L28.6486 19.0723L28.7539 17.8745H17.665Z" fill="white"/>
<path d="M54.7865 8.51283H51.8516L54.9037 11.8548V13.4455H48.6171V11.5831H51.6686L48.6171 8.241V6.64795H54.7865V8.51283ZM47.371 8.51283H44.4361L47.4881 11.8548V13.4455H41.2014V11.5831H44.2533L41.2014 8.241V6.64795H47.371V8.51283ZM40.028 8.58852H36.861V11.5051H40.028V13.4455H34.6101V6.64795H40.028V8.58852Z" fill="#131313"/>
<path d="M30.2943 52.9703L27.076 16.5488H62.4374L59.216 52.965L44.7349 57.0159L30.2943 52.9703Z" fill="#1572B6"/>
<path d="M44.7568 53.9197L56.4585 50.6459L59.2109 19.5269H44.7568V53.9197Z" fill="#33A9DC"/>
<path d="M44.7566 32.7227H50.6147L51.0191 28.148H44.7566V23.6807H44.7722H55.8569L55.7517 24.8795L54.6636 37.189H44.7566V32.7227Z" fill="white"/>
<path d="M44.7837 44.3235L44.7639 44.3288L39.8333 42.9858L39.5186 39.4229H37.1226H35.0747L35.6948 46.4362L44.7629 48.977L44.7837 48.9717V44.3235Z" fill="#EBEBEB"/>
<path d="M50.2385 37L49.7049 42.9828L44.7681 44.3278V48.975L53.8434 46.4364L53.9101 45.6823L54.6803 37H50.2385Z" fill="white"/>
<path d="M44.7725 23.6826V26.4568V28.1395V28.15H34.0932H34.0796L33.991 27.1457L33.7889 24.8815L33.6836 23.6826H44.7725Z" fill="#EBEBEB"/>
<path d="M44.7568 32.7231V35.4974V37.1789V37.1905H39.9033H39.8897L39.8001 36.1862L39.599 33.922L39.4927 32.7231H44.7568Z" fill="#EBEBEB"/>
<path d="M77.7969 30.7798V11.6177H79.9042V19.9063H90.0191V11.6177H92.1263V30.7798H90.0191V21.6483H79.9042V30.7798H77.7969ZM100.834 30.7798V13.3598H94.7933V11.6177H108.954V13.3598H102.913V30.7798H100.834ZM127.953 11.6177H130.313V30.7798H128.234V15.467L121.828 30.7798H119.861L113.736 15.5232V30.7798H111.628V11.6177H114.213L120.928 28.4197L127.953 11.6177ZM134.786 30.7798V11.6177H136.893V29.0378H145.519V30.7798H134.786ZM146.884 30.7798L153.852 11.6177H155.594L148.626 30.7798H146.884ZM165.876 31.2293C164.265 31.2293 162.87 30.836 161.689 30.0493C160.528 29.2438 159.629 28.1012 158.992 26.6215C158.374 25.123 158.065 23.3341 158.065 21.255C158.065 19.1571 158.365 17.3589 158.964 15.8604C159.582 14.3431 160.453 13.1912 161.577 12.4045C162.72 11.599 164.068 11.1963 165.623 11.1963C167.215 11.1963 168.573 11.5522 169.697 12.264C170.84 12.957 171.729 13.9404 172.366 15.2141L170.68 16.1975C170.081 15.0924 169.379 14.3057 168.573 13.8374C167.768 13.3504 166.784 13.1069 165.623 13.1069C163.956 13.1069 162.645 13.828 161.689 15.2703C160.753 16.6939 160.285 18.6794 160.285 21.2269C160.285 22.8939 160.5 24.3362 160.931 25.5538C161.362 26.7713 161.98 27.7079 162.785 28.3635C163.591 29.0003 164.527 29.3188 165.595 29.3188C166.925 29.3188 167.955 29.0284 168.686 28.4477C169.435 27.8483 170.128 26.9212 170.765 25.6662L172.535 26.7338C171.861 28.1949 170.961 29.3094 169.838 30.0774C168.732 30.8453 167.412 31.2293 165.876 31.2293ZM182.157 31.2293C180.752 31.2293 179.385 30.8828 178.055 30.1898C176.725 29.478 175.62 28.5227 174.74 27.3239L176.453 25.8066C177.128 26.8743 177.989 27.7266 179.038 28.3635C180.087 28.9816 181.221 29.2907 182.438 29.2907C183.768 29.2907 184.779 29.0003 185.473 28.4197C186.166 27.8203 186.512 27.0148 186.512 26.0033C186.512 24.8982 186.138 24.0553 185.388 23.4746C184.658 22.8752 183.487 22.3507 181.876 21.9012C177.83 20.9084 175.807 19.0728 175.807 16.3942C175.807 14.7271 176.35 13.444 177.437 12.5449C178.523 11.6458 180.031 11.1963 181.96 11.1963C183.365 11.1963 184.62 11.4585 185.725 11.983C186.849 12.5075 187.851 13.3129 188.732 14.3993L187.074 15.8042C186.4 14.8863 185.66 14.212 184.854 13.7812C184.049 13.3317 183.084 13.1069 181.96 13.1069C180.78 13.1069 179.816 13.3878 179.066 13.9498C178.317 14.493 177.943 15.2422 177.943 16.1975C177.943 17.1716 178.289 17.9489 178.982 18.5296C179.675 19.0915 180.846 19.5692 182.494 19.9625C184.442 20.487 185.95 21.2081 187.018 22.126C188.104 23.0438 188.647 24.3362 188.647 26.0033C188.647 27.0335 188.385 27.942 187.861 28.7287C187.336 29.5154 186.578 30.1336 185.585 30.5831C184.611 31.0139 183.468 31.2293 182.157 31.2293ZM198.538 31.2293C197.133 31.2293 195.766 30.8828 194.436 30.1898C193.106 29.478 192.001 28.5227 191.12 27.3239L192.834 25.8066C193.508 26.8743 194.37 27.7266 195.419 28.3635C196.468 28.9816 197.601 29.2907 198.819 29.2907C200.149 29.2907 201.16 29.0003 201.853 28.4197C202.546 27.8203 202.893 27.0148 202.893 26.0033C202.893 24.8982 202.518 24.0553 201.769 23.4746C201.038 22.8752 199.868 22.3507 198.257 21.9012C194.211 20.9084 192.188 19.0728 192.188 16.3942C192.188 14.7271 192.731 13.444 193.818 12.5449C194.904 11.6458 196.412 11.1963 198.341 11.1963C199.746 11.1963 201.001 11.4585 202.106 11.983C203.23 12.5075 204.232 13.3129 205.112 14.3993L203.455 15.8042C202.78 14.8863 202.041 14.212 201.235 13.7812C200.43 13.3317 199.465 13.1069 198.341 13.1069C197.161 13.1069 196.196 13.3878 195.447 13.9498C194.698 14.493 194.323 15.2422 194.323 16.1975C194.323 17.1716 194.67 17.9489 195.363 18.5296C196.056 19.0915 197.227 19.5692 198.875 19.9625C200.823 20.487 202.331 21.2081 203.399 22.126C204.485 23.0438 205.028 24.3362 205.028 26.0033C205.028 27.0335 204.766 27.942 204.241 28.7287C203.717 29.5154 202.958 30.1336 201.966 30.5831C200.992 31.0139 199.849 31.2293 198.538 31.2293Z" fill="#FF4D5A"/>
<path d="M222.27 31.4199C220.37 31.4199 218.816 31.0573 217.608 30.3321C216.399 29.5896 215.795 28.4673 215.795 26.9651C215.795 25.8428 216.183 24.919 216.96 24.1938C217.737 23.4513 218.79 22.7952 220.12 22.2254C218.911 21.552 217.996 20.8959 217.375 20.257C216.753 19.6009 216.442 18.7635 216.442 17.7447C216.442 16.1562 216.969 15.0166 218.022 14.326C219.093 13.6353 220.508 13.29 222.27 13.29C224.031 13.29 225.438 13.618 226.491 14.2742C227.562 14.9303 228.097 16.0008 228.097 17.4857C228.097 18.4181 227.778 19.2297 227.139 19.9203C226.517 20.611 225.671 21.1808 224.601 21.6297C225.913 22.3376 226.932 23.0715 227.657 23.8312C228.382 24.5909 228.745 25.5492 228.745 26.7061C228.745 28.3291 228.149 29.5205 226.957 30.2803C225.783 31.04 224.221 31.4199 222.27 31.4199ZM223.254 20.9563C223.72 20.5937 224.057 20.1534 224.264 19.6354C224.488 19.1174 224.601 18.4009 224.601 17.4857C224.601 16.4152 224.359 15.6468 223.875 15.1807C223.409 14.6972 222.874 14.4555 222.27 14.4555C221.665 14.4555 221.121 14.6799 220.638 15.1289C220.172 15.5605 219.939 16.2598 219.939 17.2267C219.939 17.9865 220.241 18.6858 220.845 19.3246C221.467 19.9635 222.27 20.5074 223.254 20.9563ZM222.27 30.2544C223.167 30.2544 223.884 29.9954 224.419 29.4774C224.972 28.9421 225.248 28.191 225.248 27.2241C225.248 26.2572 224.92 25.4456 224.264 24.7895C223.625 24.1334 222.701 23.4859 221.493 22.847C220.767 23.2269 220.215 23.7362 219.835 24.3751C219.472 24.9967 219.291 25.86 219.291 26.9651C219.291 28.0701 219.559 28.8989 220.094 29.4515C220.629 29.9867 221.354 30.2544 222.27 30.2544ZM236.621 31.4199C235.275 31.4199 234.144 31.1868 233.228 30.7206C232.331 30.2544 231.493 29.5551 230.716 28.6227L231.467 27.9493C232.089 28.7263 232.805 29.3047 233.617 29.6846C234.428 30.0644 235.231 30.2544 236.026 30.2544C237.096 30.2544 237.96 29.909 238.616 29.2184C239.272 28.5104 239.6 27.4313 239.6 25.9809C239.6 24.6514 239.246 23.6585 238.538 23.0024C237.83 22.329 236.82 21.9923 235.508 21.9923C234.696 21.9923 233.617 22.1909 232.27 22.588L231.234 21.5779L231.519 13.808H241.594V14.9476H234.523L234.29 20.9304L235.067 20.8786C235.948 20.8268 236.44 20.8009 236.544 20.8009C237.597 20.8009 238.624 20.9649 239.626 21.293C240.644 21.6038 241.499 22.1477 242.19 22.9247C242.88 23.7017 243.226 24.7204 243.226 25.9809C243.226 27.3277 242.872 28.4068 242.164 29.2184C241.456 30.0299 240.593 30.5997 239.574 30.9278C238.572 31.2558 237.588 31.4199 236.621 31.4199ZM248.818 20.8268C247.523 20.8268 246.504 20.516 245.761 19.8944C245.036 19.2728 244.674 18.3922 244.674 17.2526C244.674 16.113 245.036 15.2325 245.761 14.6109C246.504 13.9893 247.523 13.6785 248.818 13.6785C250.078 13.6785 251.071 13.9979 251.796 14.6368C252.538 15.2584 252.91 16.1303 252.91 17.2526C252.91 18.375 252.538 19.2556 251.796 19.8944C251.071 20.516 250.078 20.8268 248.818 20.8268ZM258.582 13.808H261.327L248.792 30.9019H246.046L258.582 13.808ZM248.792 19.7908C249.465 19.7908 249.974 19.575 250.32 19.1433C250.665 18.7117 250.838 18.0814 250.838 17.2526C250.838 16.4238 250.656 15.7936 250.294 15.362C249.949 14.9303 249.439 14.7145 248.766 14.7145C248.11 14.7145 247.609 14.9303 247.264 15.362C246.918 15.7936 246.746 16.4238 246.746 17.2526C246.746 18.0814 246.918 18.7117 247.264 19.1433C247.609 19.575 248.118 19.7908 248.792 19.7908ZM258.608 31.0314C257.313 31.0314 256.294 30.7206 255.552 30.099C254.826 29.4774 254.464 28.5968 254.464 27.4572C254.464 26.3176 254.826 25.437 255.552 24.8154C256.294 24.1938 257.313 23.883 258.608 23.883C259.868 23.883 260.861 24.2024 261.586 24.8413C262.329 25.4629 262.7 26.3349 262.7 27.4572C262.7 28.5795 262.329 29.4601 261.586 30.099C260.861 30.7206 259.868 31.0314 258.608 31.0314ZM258.582 29.9954C259.255 29.9954 259.765 29.7795 260.11 29.3479C260.455 28.9162 260.628 28.286 260.628 27.4572C260.628 26.6284 260.447 25.9982 260.084 25.5665C259.739 25.1348 259.229 24.919 258.556 24.919C257.9 24.919 257.399 25.1348 257.054 25.5665C256.708 25.9982 256.536 26.6284 256.536 27.4572C256.536 28.286 256.708 28.9162 257.054 29.3479C257.399 29.7795 257.908 29.9954 258.582 29.9954Z" fill="#08213F"/>
<rect x="76.1268" y="40.889" width="294.751" height="14.7513" rx="7.37563" stroke="url(#paint0_linear_104_97)" stroke-width="1.24875"/>
<rect x="75.5492" y="40.4907" width="243.506" height="14.985" rx="7.49249" fill="url(#paint1_linear_104_97)"/>
<defs>
<linearGradient id="paint0_linear_104_97" x1="223.502" y1="40.2646" x2="4.83006" y2="40.2646" gradientUnits="userSpaceOnUse">
<stop stop-color="#08213F"/>
<stop offset="1" stop-color="#FF4D5A"/>
</linearGradient>
<linearGradient id="paint1_linear_104_97" x1="319.055" y1="55.4757" x2="46.7219" y2="55.4757" gradientUnits="userSpaceOnUse">
<stop stop-color="#0A294E"/>
<stop offset="1" stop-color="#FF4D5A"/>
</linearGradient>
</defs>
</svg>
