<svg width="373" height="64" viewBox="0 0 373 64" fill="none" xmlns="http://www.w3.org/2000/svg">
<path d="M0 0.015625H63.0618V63.0774H0V0.015625Z" fill="#F7DF1E"/>
<path d="M16.5812 52.7153L21.4071 49.7947C22.3381 51.4455 23.185 52.8421 25.2165 52.8421C27.1638 52.8421 28.3915 52.0804 28.3915 49.1175V28.9677H34.3177V49.2013C34.3177 55.3393 30.7198 58.1331 25.4706 58.1331C20.7298 58.1331 17.9779 55.6778 16.5811 52.7148L16.5812 52.7153ZM37.5367 52.0803L42.362 49.2864C43.6322 51.3609 45.2832 52.8847 48.2038 52.8847C50.6593 52.8847 52.2252 51.657 52.2252 49.9637C52.2252 47.9318 50.6167 47.2121 47.9074 46.0272L46.4263 45.3918C42.1506 43.5719 39.3143 41.2861 39.3143 36.4603C39.3143 32.0155 42.7007 28.6289 47.9923 28.6289C51.7598 28.6289 54.469 29.9413 56.416 33.3702L51.8019 36.3332C50.7859 34.5131 49.6856 33.7936 47.9924 33.7936C46.2568 33.7936 45.1561 34.8941 45.1561 36.3332C45.1561 38.1111 46.2568 38.8309 48.7964 39.9316L50.2779 40.5665C55.3153 42.7255 58.1516 44.9265 58.1516 49.879C58.1516 55.213 53.9609 58.1336 48.331 58.1336C42.828 58.1336 39.2721 55.5092 37.5368 52.0803" fill="black"/>
<path d="M82.9144 36.6393C81.4512 36.6393 80.1658 36.2527 79.058 35.4793C77.9711 34.685 77.1351 33.5772 76.5498 32.1559L78.525 31.2154C78.8385 32.2186 79.382 33.0129 80.1553 33.5981C80.9496 34.1625 81.8275 34.4447 82.7889 34.4447C84.1267 34.4447 85.1404 34.0371 85.8301 33.2219C86.5199 32.3859 86.8648 31.2154 86.8648 29.7104V14.7553H89.2162V29.7104C89.2162 31.8842 88.6519 33.5877 87.5232 34.8209C86.3945 36.0332 84.8582 36.6393 82.9144 36.6393ZM107.341 21.4648V36.1377H105.209V33.9744C104.603 34.8104 103.861 35.4688 102.983 35.9496C102.105 36.4094 101.144 36.6393 100.098 36.6393C98.698 36.6393 97.4439 36.3049 96.3361 35.6361C95.2284 34.9672 94.3609 34.0371 93.7339 32.8457C93.1068 31.6543 92.7933 30.2957 92.7933 28.7699C92.7933 27.265 93.0964 25.9273 93.7025 24.7568C94.3296 23.5654 95.1866 22.6352 96.2734 21.9664C97.3812 21.2975 98.6353 20.9631 100.036 20.9631C101.102 20.9631 102.074 21.2035 102.952 21.6842C103.85 22.1441 104.603 22.8025 105.209 23.6594V21.4648H107.341ZM100.036 34.6955C101.039 34.6955 101.927 34.4447 102.701 33.943C103.495 33.4414 104.112 32.7412 104.55 31.8424C104.989 30.9436 105.209 29.9299 105.209 28.8012C105.209 27.6725 104.989 26.6588 104.55 25.76C104.112 24.8613 103.495 24.1611 102.701 23.6594C101.927 23.1578 101.039 22.907 100.036 22.907C99.0534 22.907 98.1755 23.1578 97.4021 23.6594C96.6288 24.1611 96.0226 24.8613 95.5837 25.76C95.1447 26.6379 94.9253 27.6412 94.9253 28.7699C94.9253 29.9195 95.1447 30.9436 95.5837 31.8424C96.0226 32.7412 96.6288 33.4414 97.4021 33.943C98.1755 34.4447 99.0534 34.6955 100.036 34.6955ZM120.777 21.4648H122.94L117.61 36.1377H115.259L109.96 21.4648H112.186L116.513 33.849L120.777 21.4648ZM138.571 21.4648V36.1377H136.439V33.9744C135.833 34.8104 135.091 35.4688 134.213 35.9496C133.335 36.4094 132.373 36.6393 131.328 36.6393C129.928 36.6393 128.674 36.3049 127.566 35.6361C126.458 34.9672 125.591 34.0371 124.964 32.8457C124.337 31.6543 124.023 30.2957 124.023 28.7699C124.023 27.265 124.326 25.9273 124.933 24.7568C125.56 23.5654 126.417 22.6352 127.503 21.9664C128.611 21.2975 129.865 20.9631 131.266 20.9631C132.332 20.9631 133.304 21.2035 134.181 21.6842C135.08 22.1441 135.833 22.8025 136.439 23.6594V21.4648H138.571ZM131.266 34.6955C132.269 34.6955 133.157 34.4447 133.931 33.943C134.725 33.4414 135.342 32.7412 135.78 31.8424C136.219 30.9436 136.439 29.9299 136.439 28.8012C136.439 27.6725 136.219 26.6588 135.78 25.76C135.342 24.8613 134.725 24.1611 133.931 23.6594C133.157 23.1578 132.269 22.907 131.266 22.907C130.283 22.907 129.405 23.1578 128.632 23.6594C127.859 24.1611 127.253 24.8613 126.814 25.76C126.375 26.6379 126.155 27.6412 126.155 28.7699C126.155 29.9195 126.375 30.9436 126.814 31.8424C127.253 32.7412 127.859 33.4414 128.632 33.943C129.405 34.4447 130.283 34.6955 131.266 34.6955ZM147.68 36.6393C146.259 36.6393 145.005 36.3363 143.918 35.7301C142.852 35.124 142.037 34.267 141.472 33.1592L143.385 32.2186C144.158 33.8699 145.674 34.6955 147.931 34.6955C149.018 34.6955 149.917 34.4969 150.627 34.0998C151.338 33.7027 151.693 33.0861 151.693 32.25C151.693 31.393 151.401 30.7555 150.815 30.3375C150.251 29.9195 149.248 29.6477 147.806 29.5223C145.799 29.3551 144.357 28.9057 143.479 28.1742C142.622 27.4426 142.193 26.4707 142.193 25.2584C142.193 23.8998 142.685 22.8443 143.667 22.0918C144.649 21.3393 145.998 20.9631 147.712 20.9631C150.617 20.9631 152.592 22.1127 153.637 24.4119L151.725 25.3525C151.369 24.5164 150.847 23.8998 150.157 23.5027C149.488 23.1055 148.621 22.907 147.555 22.907C146.468 22.907 145.632 23.1055 145.047 23.5027C144.482 23.8998 144.2 24.4641 144.2 25.1957C144.2 25.8854 144.503 26.4498 145.109 26.8887C145.736 27.3068 146.802 27.5785 148.307 27.7039C150.167 27.8711 151.547 28.3309 152.446 29.0834C153.365 29.815 153.825 30.7869 153.825 31.9992C153.825 32.9816 153.543 33.8281 152.979 34.5387C152.414 35.2285 151.662 35.751 150.721 36.1063C149.781 36.4617 148.767 36.6393 147.68 36.6393ZM163.415 36.6393C161.994 36.6393 160.729 36.3049 159.621 35.6361C158.513 34.9672 157.646 34.0371 157.019 32.8457C156.392 31.6543 156.078 30.3061 156.078 28.8012C156.078 27.2963 156.382 25.9482 156.988 24.7568C157.615 23.5654 158.482 22.6352 159.59 21.9664C160.698 21.2975 161.952 20.9631 163.352 20.9631C164.544 20.9631 165.578 21.2244 166.456 21.7469C167.355 22.2486 168.17 22.9697 168.902 23.9102L167.334 25.133C166.31 23.649 164.983 22.907 163.352 22.907C162.37 22.907 161.482 23.1578 160.687 23.6594C159.914 24.1611 159.308 24.8613 158.869 25.76C158.43 26.6588 158.21 27.6725 158.21 28.8012C158.21 29.9299 158.43 30.9436 158.869 31.8424C159.308 32.7412 159.914 33.4414 160.687 33.943C161.482 34.4447 162.37 34.6955 163.352 34.6955C164.355 34.6955 165.181 34.5283 165.829 34.1938C166.477 33.8385 167.062 33.3264 167.585 32.6576L169.246 33.8176C168.557 34.6746 167.7 35.3643 166.676 35.8869C165.672 36.3885 164.585 36.6393 163.415 36.6393ZM179.203 20.9631C179.704 20.9631 180.185 21.0363 180.645 21.1826V23.1264C180.206 22.9174 179.725 22.8129 179.203 22.8129C178.304 22.8129 177.468 23.0637 176.695 23.5654C175.921 24.067 175.294 24.7986 174.813 25.76C174.354 26.7006 174.124 27.8188 174.124 29.1147V36.1377H171.992V21.4648H174.124V24.4119C174.688 23.325 175.399 22.4785 176.256 21.8723C177.134 21.2662 178.116 20.9631 179.203 20.9631ZM183.776 36.1377V21.4648H185.908V36.1377H183.776ZM184.842 18.6117C184.361 18.6117 183.954 18.4445 183.619 18.11C183.306 17.7756 183.149 17.368 183.149 16.8873C183.149 16.4275 183.306 16.0408 183.619 15.7273C183.954 15.3928 184.361 15.2256 184.842 15.2256C185.302 15.2256 185.699 15.3928 186.034 15.7273C186.368 16.0408 186.535 16.4379 186.535 16.9187C186.535 17.3785 186.368 17.7756 186.034 18.11C185.699 18.4445 185.302 18.6117 184.842 18.6117ZM198.279 20.9631C199.679 20.9631 200.934 21.2975 202.041 21.9664C203.149 22.6352 204.017 23.5654 204.644 24.7568C205.271 25.9482 205.584 27.3068 205.584 28.8326C205.584 30.3375 205.271 31.6856 204.644 32.877C204.037 34.0475 203.181 34.9672 202.073 35.6361C200.986 36.3049 199.742 36.6393 198.342 36.6393C197.276 36.6393 196.293 36.4094 195.395 35.9496C194.517 35.4688 193.775 34.8 193.169 33.943V42.4082H191.037V21.4648H193.169V23.6281C193.775 22.792 194.517 22.1441 195.395 21.6842C196.273 21.2035 197.234 20.9631 198.279 20.9631ZM198.342 34.6955C199.324 34.6955 200.202 34.4447 200.975 33.943C201.749 33.4414 202.355 32.7516 202.794 31.8738C203.233 30.975 203.452 29.9613 203.452 28.8326C203.452 27.683 203.233 26.6588 202.794 25.76C202.355 24.8613 201.749 24.1611 200.975 23.6594C200.202 23.1578 199.324 22.907 198.342 22.907C197.339 22.907 196.44 23.1578 195.645 23.6594C194.872 24.1611 194.266 24.8613 193.827 25.76C193.388 26.6588 193.169 27.6725 193.169 28.8012C193.169 29.9299 193.388 30.9436 193.827 31.8424C194.266 32.7412 194.872 33.4414 195.645 33.943C196.44 34.4447 197.339 34.6955 198.342 34.6955ZM209.364 36.1377V23.4086H206.855V21.4648H209.364V16.6051H211.496V21.4648H214.882V23.4086H211.496V36.1377H209.364Z" fill="#FF4D5A"/>
<path d="M230.389 36.5239C228.973 36.5239 227.817 36.2735 226.919 35.7728C226.021 35.272 225.209 34.59 224.484 33.7267L225.235 33.0533C225.891 33.8648 226.625 34.4519 227.437 34.8145C228.266 35.1771 229.051 35.3584 229.794 35.3584C230.467 35.3584 231.071 35.2202 231.607 34.944C232.142 34.6504 232.565 34.1929 232.876 33.5713C233.204 32.9324 233.368 32.1036 233.368 31.0849C233.368 29.7381 233.005 28.7366 232.28 28.0805C231.572 27.4244 230.571 27.0963 229.276 27.0963C228.689 27.0963 228.084 27.174 227.463 27.3294C226.858 27.4675 226.383 27.5884 226.038 27.692L225.002 26.6819L225.287 18.912H235.362V20.0516H228.291L228.058 26.0344L228.835 25.9826C229.06 25.9654 229.302 25.9481 229.561 25.9308C229.82 25.9136 230.07 25.9049 230.312 25.9049C230.985 25.9049 231.71 25.9826 232.487 26.138C233.264 26.2934 233.989 26.5697 234.663 26.9668C235.353 27.3467 235.915 27.8733 236.346 28.5467C236.778 29.2201 236.994 30.0662 236.994 31.0849C236.994 32.1727 236.769 33.0705 236.32 33.7785C235.871 34.4864 235.302 35.0389 234.611 35.4361C233.92 35.8332 233.195 36.1095 232.435 36.2649C231.693 36.4375 231.011 36.5239 230.389 36.5239ZM244.528 36.5239C243.112 36.5239 241.955 36.2735 241.057 35.7728C240.16 35.272 239.348 34.59 238.623 33.7267L239.374 33.0533C240.03 33.8648 240.764 34.4519 241.575 34.8145C242.404 35.1771 243.19 35.3584 243.932 35.3584C244.606 35.3584 245.21 35.2202 245.745 34.944C246.281 34.6504 246.704 34.1929 247.014 33.5713C247.342 32.9324 247.506 32.1036 247.506 31.0849C247.506 29.7381 247.144 28.7366 246.419 28.0805C245.711 27.4244 244.709 27.0963 243.414 27.0963C242.827 27.0963 242.223 27.174 241.601 27.3294C240.997 27.4675 240.522 27.5884 240.177 27.692L239.141 26.6819L239.426 18.912H249.501V20.0516H242.43L242.197 26.0344L242.974 25.9826C243.198 25.9654 243.44 25.9481 243.699 25.9308C243.958 25.9136 244.209 25.9049 244.45 25.9049C245.124 25.9049 245.849 25.9826 246.626 26.138C247.403 26.2934 248.128 26.5697 248.801 26.9668C249.492 27.3467 250.053 27.8733 250.485 28.5467C250.917 29.2201 251.132 30.0662 251.132 31.0849C251.132 32.1727 250.908 33.0705 250.459 33.7785C250.01 34.4864 249.44 35.0389 248.75 35.4361C248.059 35.8332 247.334 36.1095 246.574 36.2649C245.832 36.4375 245.15 36.5239 244.528 36.5239ZM253.953 36.0059L266.488 18.912H269.234L256.698 36.0059H253.953ZM266.514 36.1354C265.219 36.1354 264.201 35.8246 263.458 35.203C262.733 34.5814 262.37 33.7008 262.37 32.5612C262.37 31.4216 262.733 30.541 263.458 29.9194C264.201 29.2978 265.219 28.987 266.514 28.987C267.775 28.987 268.768 29.2978 269.493 29.9194C270.235 30.541 270.607 31.4216 270.607 32.5612C270.607 33.7008 270.235 34.5814 269.493 35.203C268.768 35.8246 267.775 36.1354 266.514 36.1354ZM266.488 35.0994C267.853 35.0994 268.535 34.2533 268.535 32.5612C268.535 30.8691 267.844 30.023 266.463 30.023C265.116 30.023 264.442 30.8691 264.442 32.5612C264.442 34.2533 265.124 35.0994 266.488 35.0994ZM256.724 25.9308C255.429 25.9308 254.41 25.62 253.668 24.9984C252.943 24.3768 252.58 23.4962 252.58 22.3566C252.58 21.2171 252.943 20.3365 253.668 19.7149C254.41 19.0933 255.429 18.7825 256.724 18.7825C257.985 18.7825 258.977 19.0933 259.703 19.7149C260.445 20.3365 260.816 21.2171 260.816 22.3566C260.816 23.4962 260.445 24.3768 259.703 24.9984C258.977 25.62 257.985 25.9308 256.724 25.9308ZM256.698 24.8948C258.062 24.8948 258.744 24.0488 258.744 22.3566C258.744 20.6645 258.054 19.8185 256.672 19.8185C255.326 19.8185 254.652 20.6645 254.652 22.3566C254.652 24.0488 255.334 24.8948 256.698 24.8948Z" fill="#08213F"/>
<rect x="76.7512" y="44.1185" width="294.751" height="14.7513" rx="7.37563" stroke="url(#paint0_linear_104_125)" stroke-width="1.24875"/>
<rect x="76" y="44" width="153" height="15" rx="7.5" fill="url(#paint1_linear_104_125)"/>
<defs>
<linearGradient id="paint0_linear_104_125" x1="224.127" y1="43.4941" x2="5.45445" y2="43.4941" gradientUnits="userSpaceOnUse">
<stop stop-color="#08213F"/>
<stop offset="1" stop-color="#FF4D5A"/>
</linearGradient>
<linearGradient id="paint1_linear_104_125" x1="229" y1="59" x2="57.8872" y2="59" gradientUnits="userSpaceOnUse">
<stop stop-color="#0A294E"/>
<stop offset="1" stop-color="#FF4D5A"/>
</linearGradient>
</defs>
</svg>
