<svg id="ecbf1cb2-7c88-4f92-a7ca-cf8d27e99ca1" data-name="Capa 1" xmlns="http://www.w3.org/2000/svg" xmlns:xlink="http://www.w3.org/1999/xlink" width="565.7" height="483.3" viewBox="0 0 565.7 483.3">
  <defs>
    <style>
      .f70e5fc6-7059-4e74-ac7a-771232308fe9 {
        fill: url(#ffb55871-0eec-4042-86e0-280fc71a9fcf);
      }

      .af83b76f-1f12-4f1f-bb05-2d27edcb3d66 {
        fill: url(#e98c30e0-5f6b-47b3-8ff2-a7631f556561);
      }

      .e491003d-5abc-43ed-bbd7-1571dcce17ab {
        fill: #fff;
      }

      .b7e57f09-97d8-4468-92a4-f4d4369e7fd4 {
        fill: url(#b644a685-e4cb-4aa7-b87a-7cfd52ff95dd);
      }

      .ab64c634-5754-4f2c-a3c6-e87db6420ba2 {
        fill: url(#e133867d-50b7-4a55-8dac-0c6febf4685c);
      }

      .f21d4a54-eedd-47db-a1f3-0736fde0f06c {
        fill: url(#e09296b6-3587-4c97-a3de-b35e5e5857be);
      }

      .e14a536f-1e48-4c00-a23a-81b4c8d550b6 {
        fill: url(#b54a777c-94a2-40ac-a393-9f8782bc576b);
      }

      .be13d46c-4461-4d72-b2d1-2c7512d68e0d {
        fill: url(#ab19a549-bdf6-466f-9378-7e50c831d778);
      }

      .b80b14c4-2c2c-4f98-b2b2-3ef65fa429d5 {
        fill: #1a1818;
      }

      .b6995b2d-7579-4c80-a592-98d296217c49 {
        fill: #fafafa;
      }

      .a6c69212-282b-4a10-8268-e780ecd0a73c {
        fill: #22231e;
      }

      .b02d1aa4-9a98-42e6-b88f-bfbe1fb762db, .fb9f004d-b8e4-4b7c-9192-f683ba1ca98d {
        fill: #fefefe;
      }

      .eb0f2744-bf56-4571-869d-22d07cc5a2af {
        fill: #fc5672;
      }

      .fb9f004d-b8e4-4b7c-9192-f683ba1ca98d {
        opacity: 0.64;
      }

      .a4d6ab49-5de8-4f3f-bcaa-335086ca0d15 {
        fill: #ff4d58;
      }
    </style>
    <linearGradient id="ffb55871-0eec-4042-86e0-280fc71a9fcf" data-name="Degradado sin nombre 28" y1="241.64" x2="565.69" y2="241.64" gradientUnits="userSpaceOnUse">
      <stop offset="0" stop-color="#0a284c"/>
      <stop offset="0.32" stop-color="#082446"/>
      <stop offset="0.74" stop-color="#041935"/>
      <stop offset="0.98" stop-color="#001128"/>
    </linearGradient>
    <linearGradient id="e98c30e0-5f6b-47b3-8ff2-a7631f556561" data-name="Degradado sin nombre 22" x1="111.22" y1="265.6" x2="144.48" y2="265.6" gradientUnits="userSpaceOnUse">
      <stop offset="0" stop-color="#ff4d58"/>
      <stop offset="0.16" stop-color="#f94a55"/>
      <stop offset="0.38" stop-color="#e8414d"/>
      <stop offset="0.64" stop-color="#cb3241"/>
      <stop offset="0.91" stop-color="#a41d2f"/>
      <stop offset="0.98" stop-color="#99172a"/>
    </linearGradient>
    <linearGradient id="b644a685-e4cb-4aa7-b87a-7cfd52ff95dd" x1="185.93" y1="266.34" x2="525.1" y2="266.34" xlink:href="#e98c30e0-5f6b-47b3-8ff2-a7631f556561"/>
    <linearGradient id="e133867d-50b7-4a55-8dac-0c6febf4685c" x1="534.52" y1="267.23" x2="553" y2="267.23" xlink:href="#e98c30e0-5f6b-47b3-8ff2-a7631f556561"/>
    <linearGradient id="e09296b6-3587-4c97-a3de-b35e5e5857be" x1="280.9" y1="442.29" x2="311.59" y2="442.29" xlink:href="#e98c30e0-5f6b-47b3-8ff2-a7631f556561"/>
    <linearGradient id="b54a777c-94a2-40ac-a393-9f8782bc576b" x1="400.25" y1="442.29" x2="430.94" y2="442.29" xlink:href="#e98c30e0-5f6b-47b3-8ff2-a7631f556561"/>
    <linearGradient id="ab19a549-bdf6-466f-9378-7e50c831d778" x1="213.79" y1="84.2" x2="464.4" y2="84.2" xlink:href="#ffb55871-0eec-4042-86e0-280fc71a9fcf"/>
  </defs>
  <title>mascota</title>
  <g>
    <path class="f70e5fc6-7059-4e74-ac7a-771232308fe9" d="M173.2,261.8c-4.6-69.4,24-116.5,65.4-155.1C213.6,86,205.2,45.8,197.1,5.2c20.8,8.3,43.4,15.2,71.8,17.7L258.9,0q27,10.2,75.5,13.2c74.8,4.2,149.3-1.6,139.3,94.5,23.1,22.8,46.3,45.4,58.7,94.8,22.9,10.7,47.4,103.8,23.5,113.1a11.4,11.4,0,0,1-6.6.2c-10.7-2.9-16.6-8.2-21.1-14.3-13.9,43-38.2,79.8-84.1,104.1-1.7,34.3-7.8,64.2-22.5,75.2a12,12,0,0,1-13.1.9c-17.6-9.9-16.3-35.3-20.9-55.8a154.1,154.1,0,0,1-63.6-.3c-3.2,23.6-7,46.3-19.4,55.3a13.2,13.2,0,0,1-15.3-.1c-19.4-13.9-18.1-46.6-21.7-74.9l-10.9-7.1-.4,8.6a35.3,35.3,0,0,1-7.4,20.7A30,30,0,0,1,230,439H29.5a27.9,27.9,0,0,1-10.2-1.9A27.8,27.8,0,0,1,3.4,422.5,37.4,37.4,0,0,1,0,406.3v-111a35.3,35.3,0,0,1,2.3-12.8c3.3-8.3,9.4-14,17.5-17.6A43.6,43.6,0,0,1,38,261.2H99.2c-3.1-45.6,62.5-45.4,59,.4Z"/>
    <path class="af83b76f-1f12-4f1f-bb05-2d27edcb3d66" d="M129.2,290.6c10.9-7.7,16.3-22.3,15.1-35-1-10.6-11.8-17.8-21.7-14h-.3a16,16,0,0,0-8.5,8.1C107.7,262.5,112.4,280.3,129.2,290.6Z"/>
    <path class="e491003d-5abc-43ed-bbd7-1571dcce17ab" d="M101.2,274.1H34.5a21.3,21.3,0,0,0-21.3,21.3v112a18.9,18.9,0,0,0,18.9,18.9H225.6a18.9,18.9,0,0,0,18.8-18.9V293.6a19.5,19.5,0,0,0-19.5-19.5H154.5C147.3,317.3,107.1,308.1,101.2,274.1Z"/>
    <path class="b7e57f09-97d8-4468-92a4-f4d4369e7fd4" d="M186.7,260.5c-5.7-55.6,21-111.5,60.6-144.4,50.6,53.2,179.6,70.9,220.3,1.3,165,183.8-62.6,377.2-212.2,267V291.8a31,31,0,0,0-30.7-30.9Z"/>
    <path class="ab64c634-5754-4f2c-a3c6-e87db6420ba2" d="M537.3,231.2c.2,19.6.2,38.7-2.5,51.2a9.5,9.5,0,0,0,3.1,9.4,95.8,95.8,0,0,1,11.7,12,.9.9,0,0,0,1.4-.3c6.3-18.1-3.6-45.7-12.1-72.5A.8.8,0,0,0,537.3,231.2Z"/>
    <path class="f21d4a54-eedd-47db-a1f3-0736fde0f06c" d="M284.3,415.2c8.4,3.9,16.7,6.8,24.6,7.9a2.9,2.9,0,0,1,2.6,3.5c-2.9,16.2-6.2,31.8-12.6,41.9a2.5,2.5,0,0,1-4,.2c-9.5-12.5-12.2-31.4-14-51.2A2.3,2.3,0,0,1,284.3,415.2Z"/>
    <path class="e14a536f-1e48-4c00-a23a-81b4c8d550b6" d="M427.6,415.2c-8.4,3.9-16.7,6.8-24.7,7.9a3,3,0,0,0-2.6,3.5c3,16.2,6.3,31.8,12.7,41.9a2.5,2.5,0,0,0,4,.2c9.4-12.5,12.1-31.4,13.9-51.2A2.3,2.3,0,0,0,427.6,415.2Z"/>
    <path class="be13d46c-4461-4d72-b2d1-2c7512d68e0d" d="M287.6,37.4l-7.1-17.7c23.3,4.8,61.3,7.5,108.6,8.8,2.1,0,4.2.2,6.3.4,66.3,2.9,89.6,63.7,48.7,99.6a71.7,71.7,0,0,1-34.2,16.3c-110.7,20.7-181.8-43-196.1-119.6,32.4,11.1,57.5,15.4,73.8,11.6"/>
    <path class="b80b14c4-2c2c-4f98-b2b2-3ef65fa429d5" d="M272.5,214.8h11.1c1.8-22.5,34.3-22.6,35,0h10.3C328.2,179.8,277.5,176.5,272.5,214.8Z"/>
    <rect class="b80b14c4-2c2c-4f98-b2b2-3ef65fa429d5" x="385" y="168.3" width="52.9" height="67.28" rx="24.9"/>
    <circle class="b6995b2d-7579-4c80-a592-98d296217c49" cx="418.5" cy="188" r="8.1"/>
    <path class="a6c69212-282b-4a10-8268-e780ecd0a73c" d="M317.5,253.4H393a12.9,12.9,0,0,1,12.9,12.9V277A48.1,48.1,0,0,1,357.8,325h-5.1A48.1,48.1,0,0,1,304.6,277V266.3A12.9,12.9,0,0,1,317.5,253.4Z"/>
    <path class="b02d1aa4-9a98-42e6-b88f-bfbe1fb762db" d="M392,259.7a8.9,8.9,0,0,1,8.7,8,40.4,40.4,0,0,1,.1,6.1c-34.5,14.1-64.4,13.3-90.2-.6v-8.1a5.4,5.4,0,0,1,5.3-5.4Z"/>
    <path class="eb0f2744-bf56-4571-869d-22d07cc5a2af" d="M325.8,300.1c19.6-12.6,40.3-15,62.7.6a2.8,2.8,0,0,1,.2,4.4c-20.1,17.3-41.1,19.2-63.3.8A3.6,3.6,0,0,1,325.8,300.1Z"/>
    <ellipse class="fb9f004d-b8e4-4b7c-9192-f683ba1ca98d" cx="343" cy="301.8" rx="7" ry="5.2"/>
    <path class="a4d6ab49-5de8-4f3f-bcaa-335086ca0d15" d="M127.2,329.9c1.6-2.1,2.9-4.1,4.4-5.8,5.2-6,11.5-9.9,19.8-8.3s15.4,6.8,18.4,15.7c3.8,11.6.8,21.7-6.7,30.8-5.6,6.8-13,11.5-19.8,16.8s-10.8,8.3-15.2,13.6c-.4.5-.6,1.3-1.5.3-7.1-8.4-16.3-14.4-24.8-21-6.3-5-12.2-10.3-15.7-17.8s-4.2-17.8.4-26.6c7.1-13.5,23.5-16.1,34.5-5.6A40.9,40.9,0,0,1,127.2,329.9Z"/>
  </g>
</svg>
