<svg width="366" height="64" viewBox="0 0 366 64" fill="none" xmlns="http://www.w3.org/2000/svg">
<path d="M3.92824 4.9136V59.909H58.9237V4.9136H3.92824ZM0 0.985352H62.8519V63.8373H0V0.985352Z" fill="#43C9FF"/>
<mask id="mask0_104_67" style="mask-type:alpha" maskUnits="userSpaceOnUse" x="14" y="18" width="38" height="29">
<path d="M22.1554 18.6626C26.1099 18.6626 29.1411 19.3828 31.2493 20.8231C33.3575 22.2635 34.4115 24.5157 34.4115 27.5797C34.4115 29.1772 34.13 30.5455 33.567 31.6847C33.0039 32.8239 32.1855 33.7536 31.1118 34.4738C30.0381 35.194 28.7287 35.7243 27.1836 36.0647C25.6384 36.4052 23.8708 36.5754 21.8804 36.5754H19.4056V46.1603H14.4561V19.3304C15.6083 19.0685 16.885 18.8917 18.2861 18.8001C19.6872 18.7084 20.9769 18.6626 22.1554 18.6626ZM22.509 22.9444C21.2519 22.9444 20.2175 22.9837 19.4056 23.0622V32.3329H21.8019C24.185 32.3329 26.0182 31.999 27.3014 31.3312C28.5846 30.6634 29.2263 29.3998 29.2263 27.5404C29.2263 26.65 29.056 25.9037 28.7156 25.3013C28.3751 24.699 27.9037 24.2276 27.3014 23.8872C26.6991 23.5467 25.9855 23.3045 25.1605 23.1604C24.3356 23.0164 23.4517 22.9444 22.509 22.9444ZM42.8573 42.7427C44.1143 42.7427 45.0309 42.5922 45.607 42.291C46.1832 41.9898 46.4712 41.4726 46.4712 40.7393C46.4712 40.0584 46.1635 39.4954 45.5481 39.0502C44.9327 38.605 43.9179 38.1205 42.5037 37.5967C41.6395 37.2825 40.8473 36.9486 40.1271 36.595C39.4069 36.2415 38.785 35.829 38.2612 35.3576C37.7374 34.8862 37.325 34.3167 37.0238 33.6489C36.7227 32.981 36.5721 32.1627 36.5721 31.1937C36.5721 29.3081 37.2661 27.822 38.654 26.7351C40.042 25.6483 41.9276 25.1049 44.3107 25.1049C45.5154 25.1049 46.6676 25.2162 47.7676 25.4388C48.8675 25.6614 49.6924 25.8775 50.2424 26.087L49.3781 29.9367C48.8544 29.701 48.1866 29.4849 47.3747 29.2885C46.5629 29.0921 45.6201 28.9939 44.5464 28.9939C43.5774 28.9939 42.7918 29.1576 42.1895 29.4849C41.5871 29.8123 41.286 30.3164 41.286 30.9973C41.286 31.3377 41.3449 31.6389 41.4627 31.9008C41.5806 32.1627 41.7835 32.4049 42.0716 32.6275C42.3597 32.8501 42.7394 33.0727 43.2108 33.2953C43.6822 33.5179 44.2583 33.7471 44.9392 33.9828C46.0653 34.4018 47.0212 34.8142 47.8068 35.2202C48.5925 35.6261 49.2407 36.0844 49.7513 36.595C50.262 37.1057 50.6352 37.6884 50.8709 38.3431C51.1066 38.9978 51.2244 39.7835 51.2244 40.7C51.2244 42.6642 50.4977 44.1504 49.0442 45.1586C47.5908 46.1669 45.5154 46.671 42.818 46.671C41.011 46.671 39.5575 46.5204 38.4576 46.2192C37.3577 45.9181 36.5852 45.6758 36.14 45.4925L36.9649 41.525C37.672 41.8131 38.5165 42.088 39.4986 42.3499C40.4807 42.6118 41.6002 42.7427 42.8573 42.7427Z" fill="white"/>
</mask>
<g mask="url(#mask0_104_67)">
<path d="M22.1554 18.6626C26.1099 18.6626 29.1411 19.3828 31.2493 20.8231C33.3575 22.2635 34.4115 24.5157 34.4115 27.5797C34.4115 29.1772 34.13 30.5455 33.567 31.6847C33.0039 32.8239 32.1855 33.7536 31.1118 34.4738C30.0381 35.194 28.7287 35.7243 27.1836 36.0647C25.6384 36.4052 23.8708 36.5754 21.8804 36.5754H19.4056V46.1603H14.4561V19.3304C15.6083 19.0685 16.885 18.8917 18.2861 18.8001C19.6872 18.7084 20.9769 18.6626 22.1554 18.6626ZM22.509 22.9444C21.2519 22.9444 20.2175 22.9837 19.4056 23.0622V32.3329H21.8019C24.185 32.3329 26.0182 31.999 27.3014 31.3312C28.5846 30.6634 29.2263 29.3998 29.2263 27.5404C29.2263 26.65 29.056 25.9037 28.7156 25.3013C28.3751 24.699 27.9037 24.2276 27.3014 23.8872C26.6991 23.5467 25.9855 23.3045 25.1605 23.1604C24.3356 23.0164 23.4517 22.9444 22.509 22.9444ZM42.8573 42.7427C44.1143 42.7427 45.0309 42.5922 45.607 42.291C46.1832 41.9898 46.4712 41.4726 46.4712 40.7393C46.4712 40.0584 46.1635 39.4954 45.5481 39.0502C44.9327 38.605 43.9179 38.1205 42.5037 37.5967C41.6395 37.2825 40.8473 36.9486 40.1271 36.595C39.4069 36.2415 38.785 35.829 38.2612 35.3576C37.7374 34.8862 37.325 34.3167 37.0238 33.6489C36.7227 32.981 36.5721 32.1627 36.5721 31.1937C36.5721 29.3081 37.2661 27.822 38.654 26.7351C40.042 25.6483 41.9276 25.1049 44.3107 25.1049C45.5154 25.1049 46.6676 25.2162 47.7676 25.4388C48.8675 25.6614 49.6924 25.8775 50.2424 26.087L49.3781 29.9367C48.8544 29.701 48.1866 29.4849 47.3747 29.2885C46.5629 29.0921 45.6201 28.9939 44.5464 28.9939C43.5774 28.9939 42.7918 29.1576 42.1895 29.4849C41.5871 29.8123 41.286 30.3164 41.286 30.9973C41.286 31.3377 41.3449 31.6389 41.4627 31.9008C41.5806 32.1627 41.7835 32.4049 42.0716 32.6275C42.3597 32.8501 42.7394 33.0727 43.2108 33.2953C43.6822 33.5179 44.2583 33.7471 44.9392 33.9828C46.0653 34.4018 47.0212 34.8142 47.8068 35.2202C48.5925 35.6261 49.2407 36.0844 49.7513 36.595C50.262 37.1057 50.6352 37.6884 50.8709 38.3431C51.1066 38.9978 51.2244 39.7835 51.2244 40.7C51.2244 42.6642 50.4977 44.1504 49.0442 45.1586C47.5908 46.1669 45.5154 46.671 42.818 46.671C41.011 46.671 39.5575 46.5204 38.4576 46.2192C37.3577 45.9181 36.5852 45.6758 36.14 45.4925L36.9649 41.525C37.672 41.8131 38.5165 42.088 39.4986 42.3499C40.4807 42.6118 41.6002 42.7427 42.8573 42.7427Z" fill="white"/>
<path d="M62.8519 0.985352H0V63.8373H62.8519V0.985352Z" fill="#43C9FF"/>
</g>
<path d="M232.238 38.7033C227.936 38.7033 225.785 35.6917 225.785 29.6685C225.785 26.5881 226.387 24.3165 227.592 22.8537C228.796 21.3737 230.603 20.6337 233.013 20.6337C233.735 20.6337 234.475 20.7284 235.233 20.9177C236.007 21.0898 236.644 21.2877 237.143 21.5114L236.988 22.2342C236.162 22.0793 235.473 21.9674 234.923 21.8986C234.389 21.8298 233.925 21.7953 233.529 21.7953C232.204 21.7953 231.163 22.3374 230.405 23.4216C229.648 24.4886 229.27 26.0976 229.27 28.2488C229.683 27.9046 230.207 27.612 230.844 27.3711C231.498 27.1302 232.178 27.0097 232.883 27.0097C234.811 27.0097 236.196 27.526 237.039 28.5585C237.883 29.5739 238.304 31.0194 238.304 32.8952C238.304 33.9278 238.072 34.8915 237.607 35.7863C237.143 36.664 236.446 37.3696 235.516 37.9031C234.604 38.4365 233.512 38.7033 232.238 38.7033ZM232.238 37.5417C233.047 37.5417 233.675 37.1028 234.123 36.2252C234.587 35.3303 234.82 34.2203 234.82 32.8952C234.82 31.312 234.604 30.1332 234.174 29.3587C233.761 28.5671 233.073 28.1713 232.109 28.1713C231.644 28.1713 231.197 28.266 230.767 28.4553C230.337 28.6446 229.975 28.8511 229.683 29.0748C229.407 29.2985 229.27 29.4362 229.27 29.4878C229.27 32.2585 229.528 34.2978 230.044 35.6056C230.56 36.8963 231.292 37.5417 232.238 37.5417ZM246.915 38.7033C242.441 38.7033 240.203 35.6917 240.203 29.6685C240.203 23.6453 242.441 20.6337 246.915 20.6337C251.389 20.6337 253.627 23.6453 253.627 29.6685C253.627 35.6917 251.389 38.7033 246.915 38.7033ZM246.915 37.5417C247.999 37.5417 248.782 36.9135 249.264 35.6573C249.763 34.401 250.013 32.4048 250.013 29.6685C250.013 26.9323 249.763 24.936 249.264 23.6797C248.782 22.4235 247.999 21.7953 246.915 21.7953C245.831 21.7953 245.039 22.4235 244.54 23.6797C244.058 24.936 243.817 26.9323 243.817 29.6685C243.817 32.4048 244.058 34.401 244.54 35.6573C245.039 36.9135 245.831 37.5417 246.915 37.5417ZM259.653 28.1455C258.362 28.1455 257.347 27.8357 256.607 27.2162C255.884 26.5967 255.522 25.719 255.522 24.5832C255.522 23.4474 255.884 22.5698 256.607 21.9502C257.347 21.3307 258.362 21.0209 259.653 21.0209C260.909 21.0209 261.898 21.3393 262.621 21.976C263.361 22.5956 263.731 23.4646 263.731 24.5832C263.731 25.7018 263.361 26.5795 262.621 27.2162C261.898 27.8357 260.909 28.1455 259.653 28.1455ZM269.384 21.15H272.121L259.627 38.187H256.891L269.384 21.15ZM259.627 27.113C260.298 27.113 260.806 26.8978 261.15 26.4676C261.494 26.0374 261.666 25.4093 261.666 24.5832C261.666 23.7572 261.485 23.129 261.124 22.6988C260.78 22.2686 260.272 22.0535 259.601 22.0535C258.947 22.0535 258.448 22.2686 258.104 22.6988C257.76 23.129 257.588 23.7572 257.588 24.5832C257.588 25.4093 257.76 26.0374 258.104 26.4676C258.448 26.8978 258.956 27.113 259.627 27.113ZM269.41 38.3161C268.12 38.3161 267.104 38.0063 266.364 37.3868C265.641 36.7673 265.28 35.8896 265.28 34.7538C265.28 33.618 265.641 32.7403 266.364 32.1208C267.104 31.5013 268.12 31.1915 269.41 31.1915C270.666 31.1915 271.656 31.5099 272.379 32.1466C273.119 32.7661 273.489 33.6352 273.489 34.7538C273.489 35.8724 273.119 36.7501 272.379 37.3868C271.656 38.0063 270.666 38.3161 269.41 38.3161ZM269.384 37.2835C270.056 37.2835 270.563 37.0684 270.907 36.6382C271.252 36.208 271.424 35.5798 271.424 34.7538C271.424 33.9278 271.243 33.2996 270.882 32.8694C270.537 32.4392 270.03 32.2241 269.359 32.2241C268.705 32.2241 268.206 32.4392 267.861 32.8694C267.517 33.2996 267.345 33.9278 267.345 34.7538C267.345 35.5798 267.517 36.208 267.861 36.6382C268.206 37.0684 268.713 37.2835 269.384 37.2835Z" fill="#08213F"/>
<path d="M77.7977 15.7855H84.9223C86.8388 15.7855 88.37 16.3688 89.5157 17.5354C90.6615 18.702 91.2344 20.3164 91.2344 22.3788C91.2344 24.4204 90.6303 26.0244 89.422 27.191C88.2346 28.3576 86.6513 28.9409 84.6723 28.9409H80.1413V37.0967H77.7977V15.7855ZM84.6098 27.0035C86.0055 27.0035 87.068 26.6181 87.7971 25.8474C88.5262 25.0557 88.8908 23.8996 88.8908 22.3788C88.8908 20.8581 88.5262 19.7019 87.7971 18.9103C87.068 18.1187 86.0055 17.7229 84.6098 17.7229H80.1413V27.0035H84.6098ZM100.957 21.9726C101.978 21.9726 102.916 22.1809 103.77 22.5976C104.645 23.0142 105.332 23.6287 105.832 24.4412C106.353 25.2536 106.613 26.2119 106.613 27.316V37.0967H104.488V28.2535C104.488 25.3578 103.197 23.91 100.614 23.91C99.1138 23.91 97.9889 24.4412 97.2389 25.5036C96.4889 26.5661 96.114 27.9931 96.114 29.7846V37.0967H93.9891V14.4106H96.114V24.9099C96.6139 23.9725 97.2702 23.2538 98.0826 22.7538C98.9159 22.233 99.8742 21.9726 100.957 21.9726ZM117.056 37.5966C115.66 37.5966 114.41 37.2633 113.306 36.5967C112.202 35.9301 111.337 35.0031 110.712 33.8156C110.087 32.6074 109.775 31.2533 109.775 29.7534C109.775 28.2535 110.077 26.9202 110.681 25.7536C111.306 24.5662 112.16 23.6392 113.244 22.9725C114.348 22.3059 115.598 21.9726 116.993 21.9726C118.389 21.9726 119.639 22.3059 120.743 22.9725C121.847 23.6392 122.712 24.5662 123.337 25.7536C123.962 26.941 124.274 28.2847 124.274 29.7846C124.274 31.2845 123.962 32.6282 123.337 33.8156C122.733 35.0031 121.878 35.9301 120.774 36.5967C119.691 37.2633 118.452 37.5966 117.056 37.5966ZM116.993 35.6593C117.993 35.6593 118.879 35.4093 119.649 34.9093C120.441 34.4093 121.056 33.7115 121.493 32.8157C121.931 31.9199 122.149 30.9096 122.149 29.7846C122.149 28.6597 121.931 27.6493 121.493 26.7536C121.056 25.8578 120.441 25.1599 119.649 24.6599C118.879 24.16 117.993 23.91 116.993 23.91C116.014 23.91 115.139 24.16 114.368 24.6599C113.598 25.1599 112.994 25.8578 112.556 26.7536C112.119 27.6285 111.9 28.6284 111.9 29.7534C111.9 30.8991 112.119 31.9199 112.556 32.8157C112.994 33.7115 113.598 34.4093 114.368 34.9093C115.139 35.4093 116.014 35.6593 116.993 35.6593ZM128.063 37.0967V24.4099H125.563V22.4726H128.063V17.6291H130.188V22.4726H133.563V24.4099H130.188V37.0967H128.063ZM142.262 37.5966C140.866 37.5966 139.616 37.2633 138.512 36.5967C137.408 35.9301 136.543 35.0031 135.918 33.8156C135.293 32.6074 134.981 31.2533 134.981 29.7534C134.981 28.2535 135.283 26.9202 135.887 25.7536C136.512 24.5662 137.366 23.6392 138.45 22.9725C139.554 22.3059 140.804 21.9726 142.199 21.9726C143.595 21.9726 144.845 22.3059 145.949 22.9725C147.053 23.6392 147.918 24.5662 148.543 25.7536C149.168 26.941 149.48 28.2847 149.48 29.7846C149.48 31.2845 149.168 32.6282 148.543 33.8156C147.939 35.0031 147.084 35.9301 145.98 36.5967C144.897 37.2633 143.658 37.5966 142.262 37.5966ZM142.199 35.6593C143.199 35.6593 144.085 35.4093 144.855 34.9093C145.647 34.4093 146.262 33.7115 146.699 32.8157C147.137 31.9199 147.355 30.9096 147.355 29.7846C147.355 28.6597 147.137 27.6493 146.699 26.7536C146.262 25.8578 145.647 25.1599 144.855 24.6599C144.085 24.16 143.199 23.91 142.199 23.91C141.22 23.91 140.345 24.16 139.574 24.6599C138.804 25.1599 138.2 25.8578 137.762 26.7536C137.325 27.6285 137.106 28.6284 137.106 29.7534C137.106 30.8991 137.325 31.9199 137.762 32.8157C138.2 33.7115 138.804 34.4093 139.574 34.9093C140.345 35.4093 141.22 35.6593 142.199 35.6593ZM157.644 37.5966C156.227 37.5966 154.977 37.2946 153.894 36.6905C152.831 36.0863 152.019 35.2322 151.457 34.1281L153.363 33.1907C154.133 34.8364 155.644 35.6593 157.894 35.6593C158.977 35.6593 159.873 35.4614 160.581 35.0656C161.289 34.6697 161.643 34.0552 161.643 33.2219C161.643 32.3678 161.352 31.7324 160.768 31.3158C160.206 30.8991 159.206 30.6283 157.769 30.5033C155.769 30.3367 154.331 29.8888 153.456 29.1597C152.602 28.4305 152.175 27.4618 152.175 26.2536C152.175 24.8995 152.665 23.8475 153.644 23.0975C154.623 22.3476 155.967 21.9726 157.675 21.9726C160.571 21.9726 162.539 23.1184 163.581 25.4099L161.675 26.3473C161.321 25.514 160.8 24.8995 160.112 24.5037C159.446 24.1079 158.581 23.91 157.519 23.91C156.435 23.91 155.602 24.1079 155.019 24.5037C154.456 24.8995 154.175 25.462 154.175 26.1911C154.175 26.8785 154.477 27.441 155.081 27.8785C155.706 28.2951 156.769 28.5659 158.269 28.6909C160.123 28.8576 161.498 29.3159 162.393 30.0659C163.31 30.795 163.768 31.7637 163.768 32.9719C163.768 33.951 163.487 34.7947 162.925 35.503C162.362 36.1905 161.612 36.7113 160.675 37.0654C159.737 37.4196 158.727 37.5966 157.644 37.5966ZM173.951 21.9726C174.972 21.9726 175.909 22.1809 176.763 22.5976C177.638 23.0142 178.326 23.6287 178.826 24.4412C179.347 25.2536 179.607 26.2119 179.607 27.316V37.0967H177.482V28.2535C177.482 25.3578 176.19 23.91 173.607 23.91C172.107 23.91 170.982 24.4412 170.233 25.5036C169.483 26.5661 169.108 27.9931 169.108 29.7846V37.0967H166.983V14.4106H169.108V24.9099C169.608 23.9725 170.264 23.2538 171.076 22.7538C171.909 22.233 172.868 21.9726 173.951 21.9726ZM190.049 37.5966C188.654 37.5966 187.404 37.2633 186.3 36.5967C185.196 35.9301 184.331 35.0031 183.706 33.8156C183.081 32.6074 182.769 31.2533 182.769 29.7534C182.769 28.2535 183.071 26.9202 183.675 25.7536C184.3 24.5662 185.154 23.6392 186.237 22.9725C187.341 22.3059 188.591 21.9726 189.987 21.9726C191.383 21.9726 192.633 22.3059 193.737 22.9725C194.841 23.6392 195.705 24.5662 196.33 25.7536C196.955 26.941 197.268 28.2847 197.268 29.7846C197.268 31.2845 196.955 32.6282 196.33 33.8156C195.726 35.0031 194.872 35.9301 193.768 36.5967C192.685 37.2633 191.445 37.5966 190.049 37.5966ZM189.987 35.6593C190.987 35.6593 191.872 35.4093 192.643 34.9093C193.435 34.4093 194.049 33.7115 194.487 32.8157C194.924 31.9199 195.143 30.9096 195.143 29.7846C195.143 28.6597 194.924 27.6493 194.487 26.7536C194.049 25.8578 193.435 25.1599 192.643 24.6599C191.872 24.16 190.987 23.91 189.987 23.91C189.008 23.91 188.133 24.16 187.362 24.6599C186.591 25.1599 185.987 25.8578 185.55 26.7536C185.112 27.6285 184.893 28.6284 184.893 29.7534C184.893 30.8991 185.112 31.9199 185.55 32.8157C185.987 33.7115 186.591 34.4093 187.362 34.9093C188.133 35.4093 189.008 35.6593 189.987 35.6593ZM207.525 21.9726C208.921 21.9726 210.171 22.3059 211.275 22.9725C212.379 23.6392 213.243 24.5662 213.868 25.7536C214.493 26.941 214.806 28.2951 214.806 29.8159C214.806 31.3158 214.493 32.6594 213.868 33.8469C213.264 35.0135 212.41 35.9301 211.306 36.5967C210.223 37.2633 208.983 37.5966 207.587 37.5966C206.525 37.5966 205.546 37.3675 204.65 36.9092C203.775 36.4301 203.036 35.7634 202.431 34.9093V43.3463H200.307V22.4726H202.431V24.6287C203.036 23.7954 203.775 23.1496 204.65 22.6913C205.525 22.2122 206.483 21.9726 207.525 21.9726ZM207.587 35.6593C208.567 35.6593 209.441 35.4093 210.212 34.9093C210.983 34.4093 211.587 33.7219 212.025 32.8469C212.462 31.9512 212.681 30.9408 212.681 29.8159C212.681 28.6701 212.462 27.6493 212.025 26.7536C211.587 25.8578 210.983 25.1599 210.212 24.6599C209.441 24.16 208.567 23.91 207.587 23.91C206.587 23.91 205.692 24.16 204.9 24.6599C204.129 25.1599 203.525 25.8578 203.088 26.7536C202.65 27.6493 202.431 28.6597 202.431 29.7846C202.431 30.9096 202.65 31.9199 203.088 32.8157C203.525 33.7115 204.129 34.4093 204.9 34.9093C205.692 35.4093 206.587 35.6593 207.587 35.6593Z" fill="#FF4D5A"/>
<rect x="75.9201" y="45.1682" width="289.368" height="14.9351" rx="7.46755" stroke="url(#paint0_linear_104_67)" stroke-width="1.24459"/>
<rect x="75.2979" y="45.1685" width="168.02" height="14.9351" rx="7.46755" fill="url(#paint1_linear_104_67)"/>
<defs>
<linearGradient id="paint0_linear_104_67" x1="220.604" y1="44.5459" x2="5.91182" y2="44.5459" gradientUnits="userSpaceOnUse">
<stop stop-color="#08213F"/>
<stop offset="1" stop-color="#FF4D5A"/>
</linearGradient>
<linearGradient id="paint1_linear_104_67" x1="243.318" y1="60.1036" x2="55.4069" y2="60.1036" gradientUnits="userSpaceOnUse">
<stop stop-color="#0A294E"/>
<stop offset="1" stop-color="#FF4D5A"/>
</linearGradient>
</defs>
</svg>
