<svg width="372" height="64" viewBox="0 0 372 64" fill="none" xmlns="http://www.w3.org/2000/svg">
<path d="M35.6054 25.2269C32.0882 25.2226 29.2417 28.054 29.2448 31.553C29.2484 35.0405 32.0876 37.8689 35.586 37.8695C39.0856 37.8707 41.926 35.0447 41.9309 31.5578C41.9357 28.0685 39.1001 25.2311 35.6054 25.2269ZM35.6054 25.2269C32.0882 25.2226 29.2417 28.054 29.2448 31.553C29.2484 35.0405 32.0876 37.8689 35.586 37.8695C39.0856 37.8707 41.926 35.0447 41.9309 31.5578C41.9357 28.0685 39.1001 25.2311 35.6054 25.2269ZM35.6054 25.2269C32.0882 25.2226 29.2417 28.054 29.2448 31.553C29.2484 35.0405 32.0876 37.8689 35.586 37.8695C39.0856 37.8707 41.926 35.0447 41.9309 31.5578C41.9357 28.0685 39.1001 25.2311 35.6054 25.2269ZM35.6054 25.2269C32.0882 25.2226 29.2417 28.054 29.2448 31.553C29.2484 35.0405 32.0876 37.8689 35.586 37.8695C39.0856 37.8707 41.926 35.0447 41.9309 31.5578C41.9357 28.0685 39.1001 25.2311 35.6054 25.2269ZM35.6054 25.2269C32.0882 25.2226 29.2417 28.054 29.2448 31.553C29.2484 35.0405 32.0876 37.8689 35.586 37.8695C39.0856 37.8707 41.926 35.0447 41.9309 31.5578C41.9357 28.0685 39.1001 25.2311 35.6054 25.2269ZM35.6054 25.2269C32.0882 25.2226 29.2417 28.054 29.2448 31.553C29.2484 35.0405 32.0876 37.8689 35.586 37.8695C39.0856 37.8707 41.926 35.0447 41.9309 31.5578C41.9357 28.0685 39.1001 25.2311 35.6054 25.2269ZM35.6054 25.2269C32.0882 25.2226 29.2417 28.054 29.2448 31.553C29.2484 35.0405 32.0876 37.8689 35.586 37.8695C39.0856 37.8707 41.926 35.0447 41.9309 31.5578C41.9357 28.0685 39.1001 25.2311 35.6054 25.2269ZM35.6054 25.2269C32.0882 25.2226 29.2417 28.054 29.2448 31.553C29.2484 35.0405 32.0876 37.8689 35.586 37.8695C39.0856 37.8707 41.926 35.0447 41.9309 31.5578C41.9357 28.0685 39.1001 25.2311 35.6054 25.2269ZM35.6054 25.2269C32.0882 25.2226 29.2417 28.054 29.2448 31.553C29.2484 35.0405 32.0876 37.8689 35.586 37.8695C39.0856 37.8707 41.926 35.0447 41.9309 31.5578C41.9357 28.0685 39.1001 25.2311 35.6054 25.2269ZM35.6054 25.2269C32.0882 25.2226 29.2417 28.054 29.2448 31.553C29.2484 35.0405 32.0876 37.8689 35.586 37.8695C39.0856 37.8707 41.926 35.0447 41.9309 31.5578C41.9357 28.0685 39.1001 25.2311 35.6054 25.2269ZM35.6054 25.2269C32.0882 25.2226 29.2417 28.054 29.2448 31.553C29.2484 35.0405 32.0876 37.8689 35.586 37.8695C39.0856 37.8707 41.926 35.0447 41.9309 31.5578C41.9357 28.0685 39.1001 25.2311 35.6054 25.2269ZM35.6054 25.2269C32.0882 25.2226 29.2417 28.054 29.2448 31.553C29.2484 35.0405 32.0876 37.8689 35.586 37.8695C39.0856 37.8707 41.926 35.0447 41.9309 31.5578C41.9357 28.0685 39.1001 25.2311 35.6054 25.2269ZM70.8365 29.5804C70.3892 28.2735 69.5988 27.1832 68.6461 26.2126C66.7474 24.2768 64.4432 22.9373 62.0047 21.8089C60.2815 21.0113 58.4966 20.3769 56.6796 19.8278C56.3159 19.7177 56.3098 19.6996 56.394 19.3392C56.5616 18.6232 56.7141 17.9041 56.8431 17.1803C57.2074 15.1248 57.4283 13.0554 57.429 10.9648C57.4296 10.2391 57.3763 9.51706 57.3097 8.79561C57.1699 7.27229 56.8697 5.78464 56.2699 4.37137C55.6386 2.88312 54.7453 1.59987 53.3023 0.77985C52.6856 0.429104 52.0368 0.168463 51.3105 0.127946C51.0938 0.115851 50.8692 0.147902 50.6562 0.0771484H49.3246C49.2526 0.132784 49.1691 0.103152 49.091 0.106176C48.5275 0.130365 47.9689 0.171487 47.4181 0.3136C45.3227 0.854233 43.4222 1.81879 41.6101 2.9696C39.5437 4.28187 37.6529 5.81911 35.8856 7.50995C35.6284 7.75547 35.6041 7.7597 35.3493 7.50632C34.9559 7.11505 34.5341 6.75584 34.1158 6.39179C31.9006 4.4639 29.5232 2.77548 26.857 1.51884C25.7331 0.988484 24.5728 0.548842 23.3514 0.296667C22.3497 0.0892431 21.3341 0.0977094 20.3155 0.132179C18.6988 0.186001 17.3757 0.855442 16.2948 2.01472C15.399 2.97564 14.847 4.13976 14.45 5.38188C13.8798 7.16767 13.7321 9.01634 13.7085 10.8705C13.6982 11.7008 13.7418 12.5395 13.8217 13.3722C14.0118 15.3612 14.3392 17.326 14.8113 19.2672C14.9087 19.6675 14.9015 19.6808 14.5105 19.797C13.5336 20.0866 12.564 20.3975 11.6095 20.7536C9.19152 21.6559 6.87219 22.7505 4.76712 24.2623C3.48217 25.1845 2.3104 26.2235 1.39284 27.5261C0.8124 28.3503 0.360882 29.2357 0.146017 30.2244C-0.223187 31.9255 0.124833 33.5045 0.997002 34.9861C1.9182 36.5511 3.1977 37.7824 4.63699 38.8612C7.49802 41.005 10.7307 42.3905 14.111 43.4705C14.9814 43.7487 14.8882 43.5364 14.68 44.4732C14.0142 47.4714 13.5663 50.4903 13.7424 53.5768C13.8138 54.8286 13.9688 56.0629 14.2926 57.2748C14.5988 58.4226 15.0328 59.5129 15.7313 60.4847C16.94 62.1659 18.5318 63.1268 20.6399 63.1087C20.658 63.1093 20.6762 63.1087 20.6943 63.1087H21.604C21.6283 63.1087 21.6519 63.1093 21.6761 63.1093C22.5634 63.1165 23.4313 63.0016 24.2883 62.7573C26.7917 62.0431 29.0323 60.8064 31.1567 59.3363C32.6838 58.2793 34.0983 57.0825 35.4631 55.8252C35.7343 55.5755 35.7639 55.5761 36.0278 55.844C36.4799 56.3048 36.9672 56.7269 37.455 57.1478C39.6781 59.0642 42.0495 60.7581 44.7416 61.9627C45.8934 62.4785 47.0737 62.9139 48.3393 63.0651C48.6467 63.102 48.9584 63.0827 49.2641 63.1389H50.6562C50.7385 63.0809 50.8317 63.1165 50.9195 63.1093C51.2499 63.0827 51.5864 63.093 51.9078 63.0077C53.1656 62.6733 54.1981 61.9845 55.0291 60.9873C56.026 59.7911 56.604 58.3942 56.9774 56.9035C57.6366 54.2705 57.6589 51.603 57.3969 48.9216C57.2292 47.2048 56.9339 45.5091 56.5301 43.8327C56.4745 43.6029 56.5507 43.4977 56.7644 43.4379C57.4731 43.2383 58.1668 42.9934 58.8586 42.7406C61.4254 41.8033 63.8876 40.6579 66.1295 39.0789C67.7921 37.9082 69.2834 36.5644 70.29 34.7623C71.2093 33.115 71.4569 31.3933 70.8365 29.5804ZM37.8623 9.94763C40.3632 7.59521 43.0245 5.46776 46.193 4.05993C47.4102 3.5193 48.6649 3.11473 50.0182 3.0984C51.3105 3.08208 52.2789 3.63118 52.9458 4.72877C53.5499 5.72235 53.8483 6.82176 54.0389 7.95322C54.2181 9.01634 54.2804 10.091 54.2847 11.1686C54.2538 13.752 53.884 16.2913 53.2993 18.8034C53.246 19.0308 53.1407 19.0265 52.9652 18.986C50.8904 18.5058 48.792 18.1539 46.6827 17.8648C45.7766 17.7402 44.8651 17.6501 43.9542 17.5606C43.795 17.5449 43.703 17.4887 43.6153 17.3641C42.2994 15.484 40.8959 13.6716 39.3991 11.9312C38.9003 11.3512 38.3889 10.781 37.8793 10.2101C37.7982 10.1194 37.7401 10.0625 37.8623 9.94763ZM21.0042 35.3084C21.0139 35.2848 21.0327 35.2649 21.0702 35.208C22.3654 37.6917 23.7515 40.0894 25.2797 42.4582C24.7816 42.4697 24.3404 42.382 23.9004 42.3233C22.2589 42.105 20.6253 41.8311 19.0033 41.4948C18.8296 41.4586 18.7491 41.4338 18.8199 41.2136C19.4614 39.2132 20.1902 37.2454 21.0042 35.3084ZM19.62 24.3814C19.3567 23.637 19.1237 22.8811 18.8647 22.1349C18.806 21.9673 18.8296 21.9202 19.0069 21.8809C20.3693 21.5791 21.7414 21.33 23.1208 21.1189C23.8041 21.0143 24.4893 20.923 25.2362 20.8165C23.7236 23.1835 22.3473 25.5649 21.0557 28.054C20.5212 26.8095 20.0522 25.6024 19.62 24.3814ZM22.7813 31.8669C22.6917 31.6836 22.6977 31.5463 22.7861 31.3649C24.5716 27.6966 26.6083 24.1728 28.881 20.7839C29.0559 20.5226 29.2502 20.4126 29.5583 20.3938C31.9642 20.2487 34.3712 20.1816 36.782 20.2064C38.4053 20.2227 40.0249 20.3164 41.6458 20.3962C41.946 20.4114 42.13 20.5238 42.2976 20.7748C44.5637 24.1789 46.6052 27.7111 48.4385 31.3655C48.5208 31.5294 48.5112 31.6425 48.4325 31.8028C46.6028 35.5382 44.5141 39.1249 42.2238 42.5961C42.1457 42.7146 42.0779 42.815 41.9036 42.8247C39.7598 42.9486 37.6148 43.0393 35.7252 43.0188C33.4398 43.0194 31.4146 42.9764 29.3918 42.8374C29.2084 42.8253 29.108 42.7557 29.0099 42.6112C26.6827 39.1751 24.6025 35.5963 22.7813 31.8669ZM50.1859 35.0556C50.5509 35.9464 50.8928 36.7634 51.2221 37.5846C51.6839 38.7366 52.0985 39.9056 52.4889 41.0836C52.553 41.2765 52.5064 41.3285 52.3351 41.3642C50.595 41.7277 48.8513 42.0633 47.0864 42.2846C46.7287 42.3294 46.374 42.4013 45.9546 42.4092C47.4713 40.0024 48.8616 37.5937 50.1859 35.0556ZM50.224 27.8871C50.2053 27.9318 50.175 27.9712 50.1357 28.0383C48.8356 25.5849 47.458 23.2016 45.9552 20.8389C47.0967 20.9611 48.1765 21.1328 49.252 21.3233C50.2295 21.4969 51.1997 21.7097 52.1735 21.9026C52.3176 21.9311 52.4338 21.9274 52.3612 22.1542C51.7359 24.0978 51.0211 26.0082 50.224 27.8871ZM35.4546 12.4083C35.5327 12.3224 35.5884 12.1821 35.7415 12.3515C37.1487 13.9123 38.4973 15.5209 39.7913 17.2601C36.9835 17.147 34.2369 17.1452 31.4146 17.2589C31.7426 16.8337 32.0277 16.4552 32.3225 16.0839C33.3242 14.8224 34.367 13.596 35.4546 12.4083ZM17.616 5.83181C17.8369 5.23493 18.1275 4.67495 18.5518 4.19479C19.3803 3.25745 20.4686 3.0724 21.6337 3.19153C23.8126 3.41408 25.7252 4.35686 27.5676 5.4605C29.6666 6.71714 31.558 8.24591 33.3435 9.91135C33.4954 10.0535 33.45 10.1218 33.3393 10.2421C31.7759 11.939 30.2973 13.7073 28.9076 15.5487C28.4652 16.1341 28.0361 16.7297 27.6088 17.3266C27.5028 17.4742 27.3933 17.5461 27.1984 17.5649C24.1739 17.8485 21.1767 18.3087 18.2098 18.963C18.0197 19.0054 17.9628 18.9691 17.9223 18.7979C17.3098 16.2109 16.8661 13.6008 16.871 11.318C16.8685 9.19474 17.0078 7.4785 17.616 5.83181ZM15.9377 40.3265C15.839 40.641 15.7519 40.6887 15.4389 40.5974C12.5531 39.755 9.80464 38.6133 7.32674 36.8892C6.32867 36.1955 5.2943 35.5382 4.50202 34.5906C3.80477 33.7573 3.3708 32.7975 3.16199 31.735C3.14081 31.6274 3.14686 31.5143 3.1396 31.3933C3.19286 30.5691 3.55843 29.8622 4.04506 29.2109C5.05704 27.8563 6.39162 26.8736 7.82002 26.0088C10.2725 24.523 12.929 23.5191 15.6707 22.7184C15.905 22.6501 15.8923 22.797 15.9334 22.9252C16.7911 25.6066 17.7661 28.2451 18.9573 30.7965C19.2308 31.3819 19.2448 31.8354 18.967 32.4287C17.7704 34.9873 16.7844 37.6318 15.9377 40.3265ZM24.637 59.3351C23.9216 59.6266 23.2146 59.9332 22.4369 60.0257C21.3904 60.1503 20.3627 60.0687 19.3828 59.6756C18.907 59.4839 18.5729 59.0872 18.2836 58.6675C17.6499 57.7495 17.334 56.7094 17.1312 55.6287C16.7566 53.6319 16.7941 51.626 16.9956 49.6134C17.1627 47.9419 17.4889 46.3001 17.8545 44.6631C17.9138 44.3982 18.0179 44.3679 18.2594 44.4187C20.2943 44.8493 22.3443 45.191 24.4112 45.4323C25.3911 45.5472 26.3716 45.6524 27.3558 45.7219C27.5065 45.7322 27.564 45.8254 27.6324 45.9215C28.7466 47.4878 29.922 49.0081 31.1549 50.4836C31.9424 51.4258 32.7576 52.3444 33.585 53.2485C30.983 55.8476 28.0506 57.943 24.637 59.3351ZM35.8844 50.8846C35.7954 50.9843 35.7331 51.1198 35.5678 50.9384C34.1304 49.3624 32.7655 47.7266 31.44 45.979C34.2659 46.0715 37.0325 46.0805 39.8312 45.9626C39.7162 46.2257 39.5377 46.4132 39.3858 46.6151C38.2806 48.0889 37.11 49.5094 35.8844 50.8846ZM54.3924 52.1243C54.3767 52.8058 54.2677 54.0564 54.1219 55.3076C53.9693 56.6132 53.5021 57.7562 52.7104 58.8005C51.8515 59.9338 50.7094 60.2422 49.3718 60.0844C47.3212 59.8425 45.5158 58.959 43.7763 57.9188C41.6579 56.6519 39.7731 55.0814 37.9767 53.3984C37.8248 53.2557 37.8799 53.1898 37.984 53.0737C39.5849 51.2885 41.098 49.4314 42.5089 47.4932C42.8938 46.9647 43.2691 46.4295 43.6413 45.8925C43.7345 45.757 43.841 45.6826 44.0081 45.6717C45.1738 45.598 46.3335 45.4546 47.4889 45.2938C49.2496 45.0489 51.003 44.7519 52.7382 44.3625C53.3877 44.2168 53.3925 44.2101 53.539 44.8348C54.0589 47.0421 54.4106 49.2717 54.3924 52.1243ZM66.9695 34.1074C65.8474 35.514 64.4081 36.5409 62.8708 37.4395C60.6192 38.756 58.2158 39.7187 55.724 40.4753C55.5539 40.5267 55.4879 40.5212 55.4262 40.3338C54.4674 37.3996 53.3272 34.538 51.9901 31.755C51.9218 31.6117 51.9278 31.4974 51.9926 31.3595C53.2733 28.6279 54.3652 25.8225 55.2791 22.9476C55.3281 22.7934 55.3723 22.7112 55.5684 22.7698C58.5372 23.6606 61.4067 24.7763 64.0147 26.4835C65.2258 27.2769 66.3504 28.1719 67.2074 29.3566C67.685 30.017 68.0445 30.7287 68.0306 31.8771C68.0142 32.5593 67.5603 33.3672 66.9695 34.1074ZM35.586 37.8695C39.0856 37.8707 41.926 35.0447 41.9309 31.5578C41.9357 28.0685 39.1001 25.2311 35.6054 25.2269C32.0882 25.2226 29.2417 28.054 29.2448 31.553C29.2484 35.0405 32.0876 37.8689 35.586 37.8695ZM35.6054 25.2269C32.0882 25.2226 29.2417 28.054 29.2448 31.553C29.2484 35.0405 32.0876 37.8689 35.586 37.8695C39.0856 37.8707 41.926 35.0447 41.9309 31.5578C41.9357 28.0685 39.1001 25.2311 35.6054 25.2269ZM35.6054 25.2269C32.0882 25.2226 29.2417 28.054 29.2448 31.553C29.2484 35.0405 32.0876 37.8689 35.586 37.8695C39.0856 37.8707 41.926 35.0447 41.9309 31.5578C41.9357 28.0685 39.1001 25.2311 35.6054 25.2269ZM35.6054 25.2269C32.0882 25.2226 29.2417 28.054 29.2448 31.553C29.2484 35.0405 32.0876 37.8689 35.586 37.8695C39.0856 37.8707 41.926 35.0447 41.9309 31.5578C41.9357 28.0685 39.1001 25.2311 35.6054 25.2269ZM35.6054 25.2269C32.0882 25.2226 29.2417 28.054 29.2448 31.553C29.2484 35.0405 32.0876 37.8689 35.586 37.8695C39.0856 37.8707 41.926 35.0447 41.9309 31.5578C41.9357 28.0685 39.1001 25.2311 35.6054 25.2269ZM35.6054 25.2269C32.0882 25.2226 29.2417 28.054 29.2448 31.553C29.2484 35.0405 32.0876 37.8689 35.586 37.8695C39.0856 37.8707 41.926 35.0447 41.9309 31.5578C41.9357 28.0685 39.1001 25.2311 35.6054 25.2269ZM35.6054 25.2269C32.0882 25.2226 29.2417 28.054 29.2448 31.553C29.2484 35.0405 32.0876 37.8689 35.586 37.8695C39.0856 37.8707 41.926 35.0447 41.9309 31.5578C41.9357 28.0685 39.1001 25.2311 35.6054 25.2269ZM35.6054 25.2269C32.0882 25.2226 29.2417 28.054 29.2448 31.553C29.2484 35.0405 32.0876 37.8689 35.586 37.8695C39.0856 37.8707 41.926 35.0447 41.9309 31.5578C41.9357 28.0685 39.1001 25.2311 35.6054 25.2269ZM35.6054 25.2269C32.0882 25.2226 29.2417 28.054 29.2448 31.553C29.2484 35.0405 32.0876 37.8689 35.586 37.8695C39.0856 37.8707 41.926 35.0447 41.9309 31.5578C41.9357 28.0685 39.1001 25.2311 35.6054 25.2269ZM35.6054 25.2269C32.0882 25.2226 29.2417 28.054 29.2448 31.553C29.2484 35.0405 32.0876 37.8689 35.586 37.8695C39.0856 37.8707 41.926 35.0447 41.9309 31.5578C41.9357 28.0685 39.1001 25.2311 35.6054 25.2269ZM35.6054 25.2269C32.0882 25.2226 29.2417 28.054 29.2448 31.553C29.2484 35.0405 32.0876 37.8689 35.586 37.8695C39.0856 37.8707 41.926 35.0447 41.9309 31.5578C41.9357 28.0685 39.1001 25.2311 35.6054 25.2269Z" fill="#75CBEC"/>
<path d="M94.4046 36.1987L88.9807 26.7616H84.7481V36.1987H82.3966V14.8164H89.545C90.8409 14.8164 91.98 15.0672 92.9624 15.5688C93.9448 16.0705 94.6972 16.7811 95.2198 17.7008C95.7423 18.5996 96.0036 19.6342 96.0036 20.8047C96.0036 22.226 95.5751 23.4487 94.7182 24.4729C93.8612 25.4762 92.722 26.1555 91.3007 26.5108L96.8815 36.1987H94.4046ZM84.7481 24.8178H89.2315C90.611 24.8178 91.6665 24.452 92.3981 23.7205C93.1505 22.9889 93.5268 22.017 93.5268 20.8047C93.5268 19.5924 93.1505 18.6205 92.3981 17.8889C91.6665 17.1364 90.611 16.7602 89.2315 16.7602H84.7481V24.8178ZM106.415 21.0242C107.732 21.0242 108.923 21.3481 109.989 21.9961C111.055 22.644 111.891 23.5323 112.497 24.661C113.104 25.7688 113.407 27.0125 113.407 28.392C113.407 28.7891 113.396 29.0922 113.375 29.3012H101.305C101.388 30.8061 101.879 32.0916 102.778 33.1575C103.677 34.2235 104.9 34.7565 106.446 34.7565C107.701 34.7565 108.735 34.5266 109.55 34.0668C110.386 33.586 111.055 32.9276 111.557 32.0916L113.25 33.2202C112.56 34.3071 111.651 35.1641 110.522 35.7911C109.394 36.3973 108.056 36.7004 106.509 36.7004C105.088 36.7004 103.823 36.3659 102.715 35.6971C101.608 35.0282 100.74 34.0981 100.113 32.9067C99.4862 31.7153 99.1726 30.3672 99.1726 28.8623C99.1726 27.3573 99.4757 26.0092 100.082 24.8178C100.709 23.6264 101.566 22.6963 102.653 22.0274C103.761 21.3586 105.015 21.0242 106.415 21.0242ZM111.275 27.5455C111.066 26.0196 110.554 24.8805 109.738 24.128C108.923 23.3547 107.815 22.968 106.415 22.968C105.056 22.968 103.938 23.4069 103.06 24.2848C102.203 25.1418 101.66 26.2287 101.43 27.5455H111.275ZM130.192 21.5258V36.1987H128.06V34.0354C127.454 34.8715 126.712 35.5299 125.834 36.0106C124.957 36.4705 123.995 36.7004 122.95 36.7004C121.55 36.7004 120.296 36.3659 119.188 35.6971C118.08 35.0282 117.213 34.0981 116.585 32.9067C115.958 31.7153 115.645 30.3567 115.645 28.8309C115.645 27.326 115.948 25.9883 116.554 24.8178C117.181 23.6264 118.038 22.6963 119.125 22.0274C120.233 21.3586 121.487 21.0242 122.887 21.0242C123.953 21.0242 124.925 21.2645 125.803 21.7453C126.702 22.2051 127.454 22.8635 128.06 23.7205V21.5258H130.192ZM122.887 34.7565C123.891 34.7565 124.779 34.5057 125.552 34.0041C126.347 33.5024 126.963 32.8022 127.402 31.9034C127.841 31.0047 128.06 29.9909 128.06 28.8623C128.06 27.7336 127.841 26.7198 127.402 25.8211C126.963 24.9223 126.347 24.2221 125.552 23.7205C124.779 23.2188 123.891 22.968 122.887 22.968C121.905 22.968 121.027 23.2188 120.254 23.7205C119.48 24.2221 118.874 24.9223 118.435 25.8211C117.996 26.6989 117.777 27.7022 117.777 28.8309C117.777 29.9805 117.996 31.0047 118.435 31.9034C118.874 32.8022 119.48 33.5024 120.254 34.0041C121.027 34.5057 121.905 34.7565 122.887 34.7565ZM140.493 36.7004C139.072 36.7004 137.807 36.3659 136.7 35.6971C135.592 35.0282 134.724 34.0981 134.097 32.9067C133.47 31.7153 133.157 30.3672 133.157 28.8623C133.157 27.3573 133.46 26.0092 134.066 24.8178C134.693 23.6264 135.56 22.6963 136.668 22.0274C137.776 21.3586 139.03 21.0242 140.43 21.0242C141.622 21.0242 142.657 21.2854 143.534 21.808C144.433 22.3096 145.248 23.0307 145.98 23.9713L144.412 25.194C143.388 23.71 142.061 22.968 140.43 22.968C139.448 22.968 138.56 23.2188 137.766 23.7205C136.992 24.2221 136.386 24.9223 135.947 25.8211C135.508 26.7198 135.289 27.7336 135.289 28.8623C135.289 29.9909 135.508 31.0047 135.947 31.9034C136.386 32.8022 136.992 33.5024 137.766 34.0041C138.56 34.5057 139.448 34.7565 140.43 34.7565C141.434 34.7565 142.259 34.5893 142.907 34.2549C143.555 33.8996 144.141 33.3875 144.663 32.7186L146.325 33.8787C145.635 34.7356 144.778 35.4254 143.754 35.9479C142.751 36.4495 141.664 36.7004 140.493 36.7004ZM149.854 36.1987V23.4696H147.346V21.5258H149.854V16.6662H151.986V21.5258H155.372V23.4696H151.986V36.1987H149.854Z" fill="#FF4D5A"/>
<path d="M173.356 31.6644H165.068V30.6284L174.029 18.9735H176.723V30.4989H179.054V31.6644H176.723V36.0674H173.356V31.6644ZM173.356 30.4989V22.0038L166.855 30.4989H173.356ZM186.52 36.5854C185.173 36.5854 184.042 36.3523 183.127 35.8861C182.229 35.4199 181.392 34.7206 180.615 33.7882L181.366 33.1148C181.987 33.8918 182.704 34.4702 183.515 34.8501C184.327 35.23 185.13 35.4199 185.924 35.4199C186.995 35.4199 187.858 35.0746 188.514 34.3839C189.17 33.676 189.498 32.5968 189.498 31.1464C189.498 29.8169 189.144 28.8241 188.436 28.1679C187.728 27.4945 186.718 27.1578 185.406 27.1578C184.595 27.1578 183.515 27.3564 182.169 27.7535L181.133 26.7434L181.417 18.9735H191.493V20.1131H184.422L184.189 26.0959L184.966 26.0441C185.846 25.9923 186.338 25.9664 186.442 25.9664C187.495 25.9664 188.523 26.1305 189.524 26.4585C190.543 26.7693 191.398 27.3132 192.088 28.0902C192.779 28.8672 193.124 29.886 193.124 31.1464C193.124 32.4932 192.77 33.5724 192.062 34.3839C191.354 35.1954 190.491 35.7652 189.472 36.0933C188.471 36.4213 187.487 36.5854 186.52 36.5854ZM198.716 25.9923C197.421 25.9923 196.402 25.6815 195.66 25.06C194.935 24.4384 194.572 23.5578 194.572 22.4182C194.572 21.2786 194.935 20.398 195.66 19.7764C196.402 19.1548 197.421 18.844 198.716 18.844C199.976 18.844 200.969 19.1634 201.694 19.8023C202.437 20.4239 202.808 21.2958 202.808 22.4182C202.808 23.5405 202.437 24.4211 201.694 25.06C200.969 25.6815 199.976 25.9923 198.716 25.9923ZM208.48 18.9735H211.226L198.69 36.0674H195.945L208.48 18.9735ZM198.69 24.9564C199.363 24.9564 199.873 24.7405 200.218 24.3089C200.563 23.8772 200.736 23.247 200.736 22.4182C200.736 21.5894 200.555 20.9591 200.192 20.5275C199.847 20.0958 199.338 19.88 198.664 19.88C198.008 19.88 197.507 20.0958 197.162 20.5275C196.817 20.9591 196.644 21.5894 196.644 22.4182C196.644 23.247 196.817 23.8772 197.162 24.3089C197.507 24.7405 198.017 24.9564 198.69 24.9564ZM208.506 36.1969C207.211 36.1969 206.192 35.8861 205.45 35.2645C204.725 34.6429 204.362 33.7623 204.362 32.6227C204.362 31.4831 204.725 30.6025 205.45 29.9809C206.192 29.3593 207.211 29.0485 208.506 29.0485C209.767 29.0485 210.759 29.368 211.485 30.0068C212.227 30.6284 212.598 31.5004 212.598 32.6227C212.598 33.745 212.227 34.6256 211.485 35.2645C210.759 35.8861 209.767 36.1969 208.506 36.1969ZM208.48 35.1609C209.154 35.1609 209.663 34.9451 210.008 34.5134C210.354 34.0817 210.526 33.4515 210.526 32.6227C210.526 31.7939 210.345 31.1637 209.982 30.732C209.637 30.3004 209.128 30.0845 208.454 30.0845C207.798 30.0845 207.297 30.3004 206.952 30.732C206.607 31.1637 206.434 31.7939 206.434 32.6227C206.434 33.4515 206.607 34.0817 206.952 34.5134C207.297 34.9451 207.807 35.1609 208.48 35.1609Z" fill="#08213F"/>
<rect x="80.5442" y="44.4076" width="290.334" height="14.985" rx="7.49249" stroke="url(#paint0_linear_104_134)" stroke-width="1.24875"/>
<rect x="79.9198" y="44.4077" width="106.768" height="14.985" rx="7.49249" fill="url(#paint1_linear_104_134)"/>
<defs>
<linearGradient id="paint0_linear_104_134" x1="225.711" y1="43.7832" x2="10.3021" y2="43.7832" gradientUnits="userSpaceOnUse">
<stop stop-color="#08213F"/>
<stop offset="1" stop-color="#FF4D5A"/>
</linearGradient>
<linearGradient id="paint1_linear_104_134" x1="186.688" y1="59.3927" x2="67.2801" y2="59.3927" gradientUnits="userSpaceOnUse">
<stop stop-color="#0A294E"/>
<stop offset="1" stop-color="#FF4D5A"/>
</linearGradient>
</defs>
</svg>
