<svg width="234" height="234" viewBox="0 0 234 234" fill="none" xmlns="http://www.w3.org/2000/svg">
<path d="M223.802 71.3073C215.773 53.1724 204.133 37.8304 188.537 25.5642C169.639 10.7062 148.127 2.44685 124.168 0.826994C109.895 -0.141194 95.8522 1.49728 82.1635 5.79454C64.5388 11.3281 49.085 20.5222 35.7799 33.3246C24.3404 44.3321 15.5783 57.1904 9.26271 71.7467C8.68552 73.0761 8.59615 73.9773 9.78777 75.1279C14.9117 80.0694 19.9053 85.1375 24.9473 90.1609C25.3681 90.6748 25.8671 91.103 26.247 91.6765C27.7812 94.0039 29.7585 95.9067 32.071 97.4633C34.4505 99.8018 36.8002 102.174 39.2318 104.457C40.0325 105.209 40.2857 105.983 40.2819 107.052C40.241 114.552 40.2819 122.055 40.2447 129.555C40.241 130.572 40.5612 131.294 41.265 131.994C46.5007 137.185 51.6879 142.428 56.9459 147.6C57.9327 148.569 58.2642 149.351 57.7838 150.788C55.5272 157.569 59.5861 164.957 66.464 166.86C73.3158 168.755 80.4878 164.641 82.2454 157.8C84.7217 148.174 75.9671 139.695 66.3076 142.439C64.8069 142.868 63.9094 142.663 62.8146 141.52C58.6961 137.237 54.4882 133.04 50.2133 128.918C49.1185 127.861 48.7685 126.811 48.7834 125.355C48.843 118.164 48.7722 110.969 48.8281 103.779C48.8392 102.487 48.4557 101.578 47.5434 100.696C44.3409 97.5936 41.2017 94.4284 38.0365 91.2855C36.6512 90.6673 36.2416 91.9669 35.5713 92.6186C34.7707 93.3894 34.1935 94.406 32.987 94.8045C32.9572 93.665 33.6387 93.0282 34.201 92.2909C34.8787 91.4009 36.115 90.9355 36.2565 89.6358C36.182 89.1033 35.6197 89.0214 35.3554 88.6639C34.3723 88.1687 34.2792 89.1033 33.9701 89.58C33.3929 90.47 32.596 90.8349 31.6092 90.5929C30.7863 90.3918 30.1532 89.7997 30.1048 88.9246C30.0489 87.8298 30.6932 87.1148 31.6762 86.6643C32.0635 86.4892 32.7226 86.7983 32.8046 86.0573C28.9542 82.1994 25.1224 78.3267 21.2459 74.4986C20.4974 73.7613 20.2591 73.199 20.7767 72.1228C29.7697 53.448 42.9668 38.5193 60.4761 27.4224C73.5429 19.1406 87.8051 14.0986 103.128 12.1064C106.197 11.7042 109.291 11.0302 112.431 11.5962C113.015 11.8941 113.637 11.7601 114.248 11.7712C116.858 11.8271 119.461 11.6819 122.06 11.4771H122.064C122.068 11.4771 122.068 11.4771 122.071 11.4771C122.075 11.4771 122.079 11.4771 122.083 11.4733C122.354 11.4547 122.623 11.4324 122.894 11.41C140.996 12.5719 157.738 17.9304 173.065 27.657C190.355 38.6347 203.347 53.4256 212.31 71.8138C212.876 72.9756 212.802 73.6943 211.834 74.6513C203.157 83.2346 194.566 91.8999 185.897 100.483C184.84 101.53 184.385 102.55 184.397 104.04C184.449 111.915 184.393 119.799 184.374 127.678C183.939 128.725 183.212 129.626 182.412 130.341C178.651 133.711 175.303 137.498 171.617 140.939C170.09 142.369 168.958 143.877 166.396 142.585C164.348 141.549 161.924 142.35 159.671 142.532C154.807 143.456 150.626 148.766 150.596 154.244C150.562 159.636 152.975 163.762 157.831 166.044C162.728 168.346 167.591 167.783 171.702 164.16C175.735 160.608 176.904 155.983 175.419 150.833C175.009 149.403 175.303 148.584 176.29 147.615C181.373 142.614 186.367 137.524 191.461 132.534C192.511 131.503 193.006 130.478 192.991 128.978C192.913 122.219 193.047 115.457 192.894 108.702C192.842 106.408 193.404 104.736 195.166 103.224C197.18 101.496 198.949 99.4816 200.822 97.5936C203.839 95.8024 206.088 93.2181 208.181 90.4737C208.441 90.1348 208.668 89.7587 208.97 89.4571C213.621 84.821 218.227 80.1402 222.968 75.5971C224.387 74.2342 224.614 73.1431 223.802 71.3073ZM69.8712 150.408C72.2061 150.401 74.1238 152.296 74.1164 154.605C74.1052 156.943 72.1912 158.843 69.8489 158.831C67.6779 158.82 65.7453 156.888 65.682 154.668C65.6187 152.393 67.5625 150.416 69.8712 150.408ZM163.458 158.798C161.056 158.824 159.142 156.992 159.101 154.627C159.064 152.382 160.94 150.438 163.175 150.408C165.588 150.375 167.52 152.203 167.539 154.542C167.558 156.765 165.629 158.776 163.458 158.798Z" fill="#08213F"/>
<path d="M232.806 108.132C232.143 99.4597 230.468 90.9695 227.932 82.6505C227.611 81.6004 227.302 81.3323 226.409 82.2707C224.32 84.4714 222.163 86.6126 219.959 88.7017C219.132 89.4837 218.983 90.1837 219.266 91.2934C222.283 103.053 223.12 114.984 221.996 127.064C220.22 146.134 213.651 163.412 202.483 178.926C191.997 193.486 178.617 204.69 162.482 212.525C150.544 218.323 137.92 221.731 124.667 222.684C121.878 222.881 121.867 222.818 121.867 220.081C121.867 192.164 121.878 164.246 121.844 136.329C121.841 135.052 122.135 134.437 123.427 133.912C131.455 130.661 135.835 122.644 134.494 113.942C133.31 106.267 126.309 99.7353 118.512 99.0352C109.277 98.2085 101.177 103.966 98.9467 112.944C96.813 121.546 101.419 130.483 109.88 133.961C111.038 134.437 111.392 134.981 111.392 136.221C111.351 164.447 111.358 192.678 111.354 220.904C111.354 221.153 111.328 221.403 111.354 221.649C111.459 222.617 111.135 222.881 110.092 222.818C95.1634 221.928 81.1321 217.809 67.7897 211.181C67.7562 211.155 67.7227 211.133 67.6855 211.11C66.8178 210.567 66.2667 211.282 65.7267 211.758C63.7717 213.479 61.9955 215.385 60.1671 217.24C59.791 217.62 59.3218 218.022 59.6048 218.681V218.685C71.0443 225.22 83.2807 229.573 96.2395 231.852C111.801 234.585 127.311 234.224 142.724 230.698C153.4 228.258 163.525 224.341 173.073 218.997C175.683 217.534 178.45 216.257 180.632 214.112C181.127 213.471 181.552 212.779 181.838 212.026C182.222 211.017 182.546 209.908 181.44 209.17C180.397 208.478 179.593 209.219 178.818 209.885C178.219 210.403 177.802 211.241 176.569 211.308C177.113 210.075 178.126 209.595 178.744 208.79C179.604 207.677 180.729 207.219 182.006 207.941C183.16 208.597 184.181 209.427 183.563 211.069C183.335 211.68 183.447 212.261 184.367 211.859C186.732 210.016 189.1 208.169 191.468 206.322C190.887 204.992 190.184 204.828 189.074 205.793C188.448 206.336 188.02 207.163 186.948 207.226C186.873 206.273 187.573 205.864 188.02 205.327C188.731 204.471 189.383 203.462 188.437 202.549C187.532 201.682 186.624 202.531 185.815 203.104C184.989 203.696 184.378 204.597 183.25 205.003C183.968 203.41 185.424 201.711 186.467 201.179C187.998 200.397 189.636 200.862 190.102 202.434C190.683 204.396 192.15 204.355 193.673 204.396C193.926 204.169 194.179 203.938 194.432 203.707C194.678 203.089 194.116 202.836 193.844 202.471C192.876 201.183 191.591 200.185 190.556 198.956C190.191 198.524 189.67 198.029 190.098 197.504C191.26 196.074 192.381 194.551 194.183 193.847C194.916 193.56 195.646 193.735 196.224 194.338C196.909 195.053 197.572 195.757 197.747 196.818C197.922 197.891 198.499 198.624 199.735 198.516H199.739C200.346 197.906 200.953 197.299 201.56 196.688C201.59 194.975 199.973 194.431 199.068 193.489C196.224 190.525 197.032 190.335 199.355 188.053C199.985 187.434 200.476 186.47 201.88 186.552C201.098 187.833 200.011 188.511 199.322 189.512C198.651 190.492 198.864 191.385 199.705 192.156C200.536 192.916 201.299 192.611 201.977 191.925C202.543 191.356 203.139 190.819 203.742 190.291C203.976 190.09 204.263 189.855 204.542 190.16C204.796 190.44 204.595 190.737 204.394 190.976C203.801 191.687 203.049 192.257 202.494 193.002C201.765 193.985 201.85 194.301 202.964 195.076C203.962 194.491 204.498 193.474 205.216 192.637C215.919 180.132 223.631 165.985 228.334 150.219C232.434 136.474 233.893 122.432 232.806 108.132ZM116.527 124.659C112.621 124.666 109.176 121.259 109.116 117.326C109.049 113.156 112.371 109.674 116.497 109.588C120.645 109.503 124.034 112.862 124.075 117.103C124.12 121.263 120.738 124.644 116.527 124.659Z" fill="#08213F"/>
<path d="M98.4664 139.877C98.4701 138.589 98.0717 137.673 97.1742 136.783C91.9274 131.584 86.7327 126.341 81.5008 121.132C80.9124 120.543 80.4842 119.985 80.4879 119.065C80.5289 109.137 80.5363 99.2098 80.5214 89.2821C80.5177 88.2953 80.8156 87.8187 81.7652 87.3383C86.2598 85.0556 88.7845 81.3691 89.0079 76.2712C89.2314 71.1733 86.1667 66.3212 81.497 64.2247C76.6598 62.05 71.0555 62.9661 67.2349 66.7867C60.8784 73.1357 62.6695 83.2905 70.5603 87.2564C71.6625 87.8112 71.9306 88.3475 71.9306 89.4497C71.9045 100.122 71.9567 110.795 71.8934 121.467C71.8859 123.102 72.3737 124.271 73.5169 125.396C78.559 130.356 83.5191 135.398 88.5648 140.35C89.533 141.3 89.883 142.275 89.883 143.616C89.8458 161.114 89.883 178.612 89.857 196.11C89.8495 200.549 90.3895 200.166 86.1555 198.538C72.8876 193.448 61.4034 185.691 51.8966 175.011C44.773 167.005 39.2059 158.094 35.3778 148.111C30.5853 135.595 28.7979 122.621 29.9783 109.279C30.3283 105.298 30.8236 101.306 32.0711 97.4633C30.5704 95.9254 29.1181 94.3353 27.5467 92.8719C26.6269 92.0117 26.4742 90.4216 24.9475 90.1609C24.806 90.8238 24.7017 91.4978 24.5118 92.1457C22.6685 98.4762 21.6891 104.959 21.3428 111.524C20.6614 124.345 22.3557 136.842 26.6567 148.978C30.2055 158.988 35.3406 168.111 41.9019 176.419C49.2676 185.751 58.1898 193.351 68.3967 199.428C77.1812 204.664 86.6024 208.302 96.6082 210.454C98.1797 210.793 98.4887 210.469 98.4887 208.939C98.4403 185.918 98.4366 162.898 98.4664 139.877ZM76.1757 80.0322C74.2468 80.0248 72.0572 78.0363 72.0125 76.2488C71.953 73.6869 73.7255 71.7877 76.1646 71.8063C78.7452 71.8287 80.4842 73.5975 80.4283 76.1557C80.3874 78.0958 78.2536 80.0397 76.1757 80.0322Z" fill="#08213F"/>
<path d="M208.181 90.4736C205.727 92.8456 203.276 95.2214 200.822 97.5935C201.452 97.5898 201.396 98.059 201.493 98.4872C203.809 108.679 204.107 118.931 202.695 129.287C200.968 141.966 196.488 153.611 189.577 164.294C181.779 176.352 171.55 185.926 159.008 192.979C154.532 195.496 149.855 197.566 145.006 199.279C143.372 199.856 143.185 199.041 143.189 197.842C143.193 196.792 143.338 195.742 143.338 194.692C143.353 177.625 143.364 160.563 143.331 143.497C143.331 142.216 143.711 141.318 144.627 140.417C149.672 135.461 154.629 130.415 159.671 125.459C160.806 124.342 161.335 123.209 161.324 121.564C161.246 110.891 161.287 100.219 161.291 89.5464C161.291 88.7011 161.067 87.7664 162.285 87.4648C164.001 87.0402 165.141 85.7518 166.303 84.5602C170.019 80.7656 170.809 75.0049 168.369 69.907C166.333 65.647 160.702 62.6047 155.869 63.1521C149.751 63.8484 145.658 67.7398 144.381 73.8357C143.521 77.9393 145.572 84.7129 151.437 87.3046C152.372 87.718 152.759 88.3324 152.752 89.4495C152.692 99.191 152.7 108.932 152.726 118.674C152.73 119.676 152.45 120.391 151.72 121.113C146.604 126.174 141.569 131.316 136.434 136.358C135.243 137.527 134.729 138.704 134.729 140.406C134.755 163.486 134.71 186.566 134.658 209.65C134.658 210.674 135.109 210.801 135.935 210.596C138.095 210.067 140.285 209.635 142.422 209.017C156.122 205.044 168.399 198.453 179.191 189.076C189.253 180.34 197.151 169.947 202.874 157.964C207.767 147.723 210.724 136.894 211.659 125.544C212.638 113.639 211.7 101.932 208.181 90.4736ZM157.101 71.7168C159.324 71.7056 161.164 73.6681 161.212 76.0997C161.25 78.0286 159.157 80.006 157.079 80.0097C154.55 80.0134 152.819 78.2409 152.826 75.6603C152.83 73.467 154.722 71.7243 157.101 71.7168Z" fill="#08213F"/>
<path d="M42.4529 206.686C38.5243 203.945 35.2362 200.493 31.9704 197.045C16.2635 180.459 6.25389 160.887 2.0311 138.485C-1.50278 119.728 -0.422878 101.128 5.25219 82.84C5.62829 81.6298 5.91875 81.2835 6.93907 82.3671C8.97599 84.5306 11.0688 86.6457 13.2248 88.6938C14.0478 89.4758 14.2638 90.1647 13.9733 91.2819C12.2567 97.8879 11.2289 104.606 10.8937 111.428C10.1676 126.077 12.2492 140.298 17.3843 154.054C23.1376 169.467 32.1306 182.757 43.9797 194.096C49.5393 199.417 55.7134 204.005 62.3194 207.982C62.796 208.269 63.2429 208.6 63.7009 208.913C63.6935 209.762 62.9934 209.687 62.5093 209.687C60.8671 209.691 59.7276 210.51 58.7781 211.743C57.9067 212.871 56.7597 213.728 55.7543 214.726C55.2516 215.225 54.6819 215.567 53.9297 215.266C53.3562 214.882 52.779 214.502 52.2055 214.119C52.0119 213.396 52.6338 213.162 53.0136 212.808C55.274 210.7 56.0708 207.639 54.9463 205.271C53.7844 202.821 50.2952 201.108 47.4391 201.618C45.8788 201.897 44.7617 202.813 43.9722 204.169C43.4807 205.022 43.2238 206.012 42.4529 206.686Z" fill="#08213F"/>
<path d="M122.578 64.6127C121.587 64.0541 120.962 63.5812 120.965 62.263C121.021 46.016 121.029 29.7691 120.973 13.5222C120.969 12.3417 121.237 11.6826 122.06 11.4778H122.064C122.068 11.4778 122.068 11.4778 122.071 11.4778C122.075 11.4778 122.079 11.4778 122.083 11.4741C122.31 11.4182 122.578 11.3959 122.894 11.4108C121.014 10.9081 119.096 11.2283 117.201 11.2358C115.611 11.2432 113.972 10.8634 112.431 11.597C112.36 12.6434 112.226 13.6897 112.226 14.7361C112.211 30.4878 112.207 46.2395 112.233 61.9911C112.237 63.2163 111.999 63.9722 110.744 64.5829C104.622 67.5582 102.093 75.2925 105.113 81.4331C108.2 87.7077 115.782 90.467 121.971 87.488C126.324 85.3952 128.834 81.8725 129.266 77.0688C129.765 71.5129 127.411 67.3422 122.578 64.6127ZM116.616 80.0478C114.326 80.0776 112.457 78.1412 112.479 75.7617C112.501 73.4344 114.244 71.7884 116.668 71.8145C118.996 71.8368 120.716 73.5908 120.72 75.9367C120.723 78.2269 118.936 80.018 116.616 80.0478Z" fill="#08213F"/>
<path d="M105.095 26.7929C105.098 30.9635 105.087 30.8928 101.025 31.6301C85.0421 34.5309 71.0779 41.5242 58.8787 52.2376C51.8668 58.393 46.296 65.6805 41.388 73.5116C40.2374 75.3512 39.0011 77.2429 38.3606 79.3878C38.0776 80.3336 37.6084 80.6241 36.804 79.8011C35.2438 78.2036 33.6798 76.6136 32.0711 75.0645C31.4641 74.4798 31.5051 74.0218 31.8812 73.2994C38.2638 61.0332 46.9253 50.7034 57.7765 42.1163C70.6831 31.8982 85.3065 25.7055 101.412 22.8047C105.121 22.1381 105.128 22.1828 105.095 25.8657C105.091 26.171 105.095 26.4838 105.095 26.7929Z" fill="#08213F"/>
<path d="M128.112 26.7855C128.112 26.3498 128.112 26.1636 128.112 25.9774C128.115 22.1754 128.123 22.1494 131.928 22.8308C147.93 25.687 162.497 31.8722 175.311 41.9153C184.449 49.0799 192.083 57.6483 198.119 67.6058C199.206 69.4006 200.316 71.1769 201.202 73.0872C201.634 74.0181 201.541 74.6772 200.774 75.381C199.497 76.5503 198.234 77.7494 197.087 79.0453C196.011 80.263 195.464 80.2778 194.652 78.7176C192.325 74.2192 189.826 69.8177 186.739 65.7699C180.345 57.3951 172.924 50.1523 164.072 44.3506C154.26 37.9159 143.562 33.8086 132.118 31.4737C130.856 31.2168 129.173 31.7158 128.406 30.7029C127.572 29.6007 128.253 27.9436 128.112 26.7855Z" fill="#08213F"/>
<path d="M42.4531 206.686C43.4734 201.383 48.4075 199.32 52.917 202.381C56.8158 205.029 56.9908 210.157 53.3266 213.177C52.9505 213.486 52.5819 213.806 52.2095 214.119C48.8394 211.795 45.3428 209.635 42.4531 206.686Z" fill="#08213F"/>
<path d="M194.432 203.707C192.868 202.072 191.319 200.423 189.733 198.806C189.048 198.11 189.163 197.544 189.822 196.922C190.72 196.073 191.55 195.153 192.459 194.316C194.645 192.312 197.624 193.191 198.078 196.122C198.272 197.358 198.812 197.976 199.739 198.516C198.249 200.534 196.291 202.069 194.432 203.707Z" fill="#08213F"/>
<path d="M53.9335 215.27C55.855 214.536 57.0317 212.901 58.3164 211.464C59.5788 210.052 60.8672 208.984 62.8855 209.256C63.2057 209.3 63.4925 209.189 63.6973 208.92C65.1347 209.539 66.5087 210.276 67.7897 211.184C67.4248 211.166 67.0785 211.121 66.7545 211.423C64.2707 213.746 61.7683 216.051 59.6011 218.688C57.7131 217.545 55.8214 216.409 53.9335 215.27Z" fill="#08213F"/>
<path d="M201.56 196.692C200.212 195.269 198.89 193.817 197.504 192.432C196.41 191.337 196.365 190.331 197.493 189.248C198.525 188.261 199.504 187.229 200.528 186.239C201.09 185.695 201.779 185.546 202.327 186.172C202.878 186.801 202.159 187.155 201.817 187.531C201.187 188.212 200.517 188.86 199.854 189.512C198.99 190.357 199.139 191.128 199.973 191.892C200.904 192.744 201.351 191.988 201.902 191.378C202.476 190.745 203.15 190.197 203.723 189.564C204.192 189.047 204.531 189.177 204.941 189.62C205.287 189.992 205.715 190.305 205.183 190.841C204.442 191.59 203.734 192.376 202.952 193.079C202.155 193.791 202.211 194.42 202.964 195.083C202.632 195.735 202.126 196.237 201.56 196.692Z" fill="#08213F"/>
<path d="M191.468 206.325C190.686 205.144 189.912 205.26 189.186 206.366C188.832 206.902 188.344 207.256 187.808 207.58C187.395 207.829 186.966 208.376 186.516 207.944C186.028 207.479 186.11 206.771 186.534 206.25C187.037 205.625 187.678 205.111 188.177 204.481C188.586 203.967 188.72 203.275 188.221 202.787C187.752 202.329 187.179 202.601 186.724 202.992C185.834 203.755 184.941 204.515 184.073 205.301C183.63 205.699 183.254 206.053 182.662 205.49C182.114 204.969 182.472 204.586 182.803 204.236C183.853 203.133 184.658 201.785 185.939 200.907C187.897 199.562 190.135 200.374 190.686 202.642C190.809 203.148 190.824 203.744 191.483 203.64C192.396 203.495 192.902 204.288 193.673 204.407C192.939 205.04 192.206 205.68 191.468 206.325Z" fill="#08213F"/>
<path d="M184.378 127.678C184.367 129.205 183.417 130.203 182.341 131.059C180.509 132.515 179.031 134.318 177.366 135.934C175.977 137.282 174.663 138.704 173.259 140.038C172.041 141.196 170.701 142.227 169.502 143.4C169.04 143.851 168.768 144.182 168.154 143.687C166.549 142.398 164.672 142.283 162.758 142.626C161.704 142.812 160.698 142.767 159.674 142.54C162.14 141.471 164.679 141.624 167.096 142.488C168.53 143.002 169.278 142.663 170.269 141.661C174.916 136.95 179.664 132.329 184.378 127.678Z" fill="#08213F"/>
<path d="M180.632 214.111C180.304 213.08 181.336 212.547 181.529 211.691C181.712 210.894 182.099 210.067 181.306 209.486C180.453 208.865 179.824 209.531 179.243 210.119C178.722 210.648 178.174 211.151 177.664 211.691C177.191 212.19 176.767 212.253 176.26 211.721C175.813 211.252 175.877 210.868 176.305 210.455C177.273 209.512 178.2 208.518 179.209 207.621C180.327 206.63 181.768 206.932 182.628 207.677C183.525 208.455 185.242 209.36 183.965 211.155C183.596 211.669 183.972 211.773 184.367 211.858C183.186 212.715 182.058 213.661 180.632 214.111Z" fill="#08213F"/>
<path d="M35.3554 88.6677C34.8005 88.6602 34.6069 89.0922 34.4915 89.4944C33.9999 91.2222 32.6147 91.4643 31.2853 91.0733C30.2687 90.7754 29.2111 89.8332 29.5574 88.5597C29.9224 87.208 30.5852 85.8451 32.4769 86.1802C32.5774 86.1988 32.6929 86.102 32.8046 86.061C33.7579 86.8281 34.7335 87.5729 35.3554 88.6677Z" fill="#08213F"/>
<path d="M38.0366 91.2898C36.8896 91.3456 36.2938 92.2729 35.806 93.0325C35.0054 94.2763 33.7281 94.8572 32.6855 95.9594C31.8364 93.3341 33.8361 92.2133 35.0352 90.7349C35.374 90.3141 35.8432 90.0013 36.2529 89.6401C36.8487 90.1875 37.4445 90.7387 38.0366 91.2898Z" fill="#08213F"/>
</svg>
