<svg width="628" height="631" viewBox="0 0 628 631" fill="none" xmlns="http://www.w3.org/2000/svg">
<path d="M583.713 309.3C583.713 457.552 463.526 577.733 315.279 577.733C261.465 577.733 211.349 561.895 169.344 534.624L68.2425 561.433L94.9953 462.723C64.6434 419.238 46.8452 366.343 46.8452 309.3C46.8452 161.053 167.026 40.8718 315.279 40.8718C463.532 40.8718 583.713 161.047 583.713 309.3Z" fill="#2EB843"/>
<path d="M472.048 391.881C473.164 384.27 469.553 379.962 462.767 376.93C452.204 372.21 441.974 366.743 431.528 361.751C421.458 356.932 411.597 351.613 401.034 347.91C393.688 345.334 390.225 346.658 385.757 352.957C378.195 363.6 369.678 373.461 361.155 383.321C357.815 387.179 353.618 388.165 348.903 386.403C345.458 385.114 342.149 383.469 338.753 382.027C295.669 363.773 263.641 333.211 240.049 293.295C236.37 287.064 237.202 282.799 242.73 277.894C242.742 277.881 242.761 277.869 242.773 277.857C243.365 277.16 243.963 276.464 244.548 275.761C250.89 268.132 257.921 261.051 262.087 251.763C264.127 247.209 264.343 242.963 262.451 238.433C254.211 218.749 246.101 199.01 237.751 179.375C235.409 173.859 232.216 168.713 225.77 167.185C222.091 166.316 218.264 166.365 214.48 166.267C212.415 164.707 206.678 164.707 204.632 166.267C196.7 167.154 189.847 170.211 184.535 176.318C181.946 179.289 179.395 182.284 176.862 185.297C170.594 192.767 166.04 201.228 162.817 210.374C159.97 218.441 158.503 226.81 158.306 235.377C157.455 238.446 157.467 241.515 158.299 244.59C159.199 257.914 162.811 270.535 167.944 282.806C174.643 298.81 184.473 312.917 194.333 327.03C200.952 336.496 208.077 345.574 215.127 354.707C215.336 354.972 215.54 355.237 215.743 355.502C216.433 356.248 217.154 356.969 217.814 357.745C236.407 379.549 257.034 399.123 280.835 415.226C309.073 434.343 340.737 445.307 373.314 454.058C386.435 457.583 399.759 458.403 413.255 456.461C427.38 454.428 439.158 447.433 450.275 439.107C459.31 432.353 466.015 423.909 468.677 412.607C470.144 406.358 471.512 400.115 472.129 393.718C472.116 393.533 472.098 393.348 472.086 393.157C472.036 392.732 471.987 392.3 472.048 391.881ZM472.048 391.881C473.164 384.27 469.553 379.962 462.767 376.93C452.204 372.21 441.974 366.743 431.528 361.751C421.458 356.932 411.597 351.613 401.034 347.91C393.688 345.334 390.225 346.658 385.757 352.957C378.195 363.6 369.678 373.461 361.155 383.321C357.815 387.179 353.618 388.165 348.903 386.403C345.458 385.114 342.149 383.469 338.753 382.027C295.669 363.773 263.641 333.211 240.049 293.295C236.37 287.064 237.202 282.799 242.73 277.894C242.742 277.881 242.761 277.869 242.773 277.857C243.365 277.16 243.963 276.464 244.548 275.761C250.89 268.132 257.921 261.051 262.087 251.763C264.127 247.209 264.343 242.963 262.451 238.433C254.211 218.749 246.101 199.01 237.751 179.375C235.409 173.859 232.216 168.713 225.77 167.185C222.091 166.316 218.264 166.365 214.48 166.267C212.415 164.707 206.678 164.707 204.632 166.267C196.7 167.154 189.847 170.211 184.535 176.318C181.946 179.289 179.395 182.284 176.862 185.297C170.594 192.767 166.04 201.228 162.817 210.374C159.97 218.441 158.503 226.81 158.306 235.377C157.455 238.446 157.467 241.515 158.299 244.59C159.199 257.914 162.811 270.535 167.944 282.806C174.643 298.81 184.473 312.917 194.333 327.03C200.952 336.496 208.077 345.574 215.127 354.707C215.336 354.972 215.54 355.237 215.743 355.502C216.433 356.248 217.154 356.969 217.814 357.745C236.407 379.549 257.034 399.123 280.835 415.226C309.073 434.343 340.737 445.307 373.314 454.058C386.435 457.583 399.759 458.403 413.255 456.461C427.38 454.428 439.158 447.433 450.275 439.107C459.31 432.353 466.015 423.909 468.677 412.607C470.144 406.358 471.512 400.115 472.129 393.718C472.116 393.533 472.098 393.348 472.086 393.157C472.036 392.732 471.987 392.3 472.048 391.881ZM524.654 161.262C525.086 161.78 525.548 162.273 526.109 162.674C525.64 162.131 525.154 161.663 524.654 161.262ZM280.366 159.124C280.336 159.136 280.311 159.142 280.28 159.155C280.588 159.149 280.89 159.149 281.198 159.149C280.927 159.056 280.588 159.044 280.366 159.124ZM472.048 391.881C473.164 384.27 469.553 379.962 462.767 376.93C452.204 372.21 441.974 366.743 431.528 361.751C421.458 356.932 411.597 351.613 401.034 347.91C393.688 345.334 390.225 346.658 385.757 352.957C378.195 363.6 369.678 373.461 361.155 383.321C357.815 387.179 353.618 388.165 348.903 386.403C345.458 385.114 342.149 383.469 338.753 382.027C295.669 363.773 263.641 333.211 240.049 293.295C236.37 287.064 237.202 282.799 242.73 277.894C242.742 277.881 242.761 277.869 242.773 277.857C243.365 277.16 243.963 276.464 244.548 275.761C250.89 268.132 257.921 261.051 262.087 251.763C264.127 247.209 264.343 242.963 262.451 238.433C254.211 218.749 246.101 199.01 237.751 179.375C235.409 173.859 232.216 168.713 225.77 167.185C222.091 166.316 218.264 166.365 214.48 166.267C212.415 164.707 206.678 164.707 204.632 166.267C196.7 167.154 189.847 170.211 184.535 176.318C181.946 179.289 179.395 182.284 176.862 185.297C170.594 192.767 166.04 201.228 162.817 210.374C159.97 218.441 158.503 226.81 158.306 235.377C157.455 238.446 157.467 241.515 158.299 244.59C159.199 257.914 162.811 270.535 167.944 282.806C174.643 298.81 184.473 312.917 194.333 327.03C200.952 336.496 208.077 345.574 215.127 354.707C215.336 354.972 215.54 355.237 215.743 355.502C216.433 356.248 217.154 356.969 217.814 357.745C236.407 379.549 257.034 399.123 280.835 415.226C309.073 434.343 340.737 445.307 373.314 454.058C386.435 457.583 399.759 458.403 413.255 456.461C427.38 454.428 439.158 447.433 450.275 439.107C459.31 432.353 466.015 423.909 468.677 412.607C470.144 406.358 471.512 400.115 472.129 393.718C472.116 393.533 472.098 393.348 472.086 393.157C472.036 392.732 471.987 392.3 472.048 391.881ZM280.366 159.124C280.336 159.136 280.311 159.142 280.28 159.155C280.588 159.149 280.89 159.149 281.198 159.149C280.927 159.056 280.588 159.044 280.366 159.124ZM524.654 161.262C525.086 161.78 525.548 162.273 526.109 162.674C525.64 162.131 525.154 161.663 524.654 161.262ZM524.654 161.262C525.086 161.78 525.548 162.273 526.109 162.674C525.64 162.131 525.154 161.663 524.654 161.262ZM472.048 391.881C473.164 384.27 469.553 379.962 462.767 376.93C452.204 372.21 441.974 366.743 431.528 361.751C421.458 356.932 411.597 351.613 401.034 347.91C393.688 345.334 390.225 346.658 385.757 352.957C378.195 363.6 369.678 373.461 361.155 383.321C357.815 387.179 353.618 388.165 348.903 386.403C345.458 385.114 342.149 383.469 338.753 382.027C295.669 363.773 263.641 333.211 240.049 293.295C236.37 287.064 237.202 282.799 242.73 277.894C242.742 277.881 242.761 277.869 242.773 277.857C243.365 277.16 243.963 276.464 244.548 275.761C250.89 268.132 257.921 261.051 262.087 251.763C264.127 247.209 264.343 242.963 262.451 238.433C254.211 218.749 246.101 199.01 237.751 179.375C235.409 173.859 232.216 168.713 225.77 167.185C222.091 166.316 218.264 166.365 214.48 166.267C212.415 164.707 206.678 164.707 204.632 166.267C196.7 167.154 189.847 170.211 184.535 176.318C181.946 179.289 179.395 182.284 176.862 185.297C170.594 192.767 166.04 201.228 162.817 210.374C159.97 218.441 158.503 226.81 158.306 235.377C157.455 238.446 157.467 241.515 158.299 244.59C159.199 257.914 162.811 270.535 167.944 282.806C174.643 298.81 184.473 312.917 194.333 327.03C200.952 336.496 208.077 345.574 215.127 354.707C215.336 354.972 215.54 355.237 215.743 355.502C216.433 356.248 217.154 356.969 217.814 357.745C236.407 379.549 257.034 399.123 280.835 415.226C309.073 434.343 340.737 445.307 373.314 454.058C386.435 457.583 399.759 458.403 413.255 456.461C427.38 454.428 439.158 447.433 450.275 439.107C459.31 432.353 466.015 423.909 468.677 412.607C470.144 406.358 471.512 400.115 472.129 393.718C472.116 393.533 472.098 393.348 472.086 393.157C472.036 392.732 471.987 392.3 472.048 391.881ZM280.366 159.124C280.336 159.136 280.311 159.142 280.28 159.155C280.588 159.149 280.89 159.149 281.198 159.149C280.927 159.056 280.588 159.044 280.366 159.124ZM472.048 391.881C473.164 384.27 469.553 379.962 462.767 376.93C452.204 372.21 441.974 366.743 431.528 361.751C421.458 356.932 411.597 351.613 401.034 347.91C393.688 345.334 390.225 346.658 385.757 352.957C378.195 363.6 369.678 373.461 361.155 383.321C357.815 387.179 353.618 388.165 348.903 386.403C345.458 385.114 342.149 383.469 338.753 382.027C295.669 363.773 263.641 333.211 240.049 293.295C236.37 287.064 237.202 282.799 242.73 277.894C242.742 277.881 242.761 277.869 242.773 277.857C243.365 277.16 243.963 276.464 244.548 275.761C250.89 268.132 257.921 261.051 262.087 251.763C264.127 247.209 264.343 242.963 262.451 238.433C254.211 218.749 246.101 199.01 237.751 179.375C235.409 173.859 232.216 168.713 225.77 167.185C222.091 166.316 218.264 166.365 214.48 166.267C212.415 164.707 206.678 164.707 204.632 166.267C196.7 167.154 189.847 170.211 184.535 176.318C181.946 179.289 179.395 182.284 176.862 185.297C170.594 192.767 166.04 201.228 162.817 210.374C159.97 218.441 158.503 226.81 158.306 235.377C157.455 238.446 157.467 241.515 158.299 244.59C159.199 257.914 162.811 270.535 167.944 282.806C174.643 298.81 184.473 312.917 194.333 327.03C200.952 336.496 208.077 345.574 215.127 354.707C215.336 354.972 215.54 355.237 215.743 355.502C216.433 356.248 217.154 356.969 217.814 357.745C236.407 379.549 257.034 399.123 280.835 415.226C309.073 434.343 340.737 445.307 373.314 454.058C386.435 457.583 399.759 458.403 413.255 456.461C427.38 454.428 439.158 447.433 450.275 439.107C459.31 432.353 466.015 423.909 468.677 412.607C470.144 406.358 471.512 400.115 472.129 393.718C472.116 393.533 472.098 393.348 472.086 393.157C472.036 392.732 471.987 392.3 472.048 391.881ZM280.366 159.124C280.336 159.136 280.311 159.142 280.28 159.155C280.588 159.149 280.89 159.149 281.198 159.149C280.927 159.056 280.588 159.044 280.366 159.124ZM524.654 161.262C525.086 161.78 525.548 162.273 526.109 162.674C525.64 162.131 525.154 161.663 524.654 161.262ZM524.654 161.262C525.086 161.78 525.548 162.273 526.109 162.674C525.64 162.131 525.154 161.663 524.654 161.262ZM462.767 376.93C452.204 372.21 441.974 366.743 431.528 361.751C421.458 356.932 411.597 351.613 401.034 347.91C393.688 345.334 390.225 346.658 385.757 352.957C378.195 363.6 369.678 373.461 361.155 383.321C357.815 387.179 353.618 388.165 348.903 386.403C345.458 385.114 342.149 383.469 338.753 382.027C295.669 363.773 263.641 333.211 240.049 293.295C236.37 287.064 237.202 282.799 242.73 277.894C242.742 277.881 242.761 277.869 242.773 277.857C243.365 277.16 243.963 276.464 244.548 275.761C250.89 268.132 257.921 261.051 262.087 251.763C264.127 247.209 264.343 242.963 262.451 238.433C254.211 218.749 246.101 199.01 237.751 179.375C235.409 173.859 232.216 168.713 225.77 167.185C222.091 166.316 218.264 166.365 214.48 166.267C212.415 164.707 206.678 164.707 204.632 166.267C196.7 167.154 189.847 170.211 184.535 176.318C181.946 179.289 179.395 182.284 176.862 185.297C170.594 192.767 166.04 201.228 162.817 210.374C159.97 218.441 158.503 226.81 158.306 235.377C157.455 238.446 157.467 241.515 158.299 244.59C159.199 257.914 162.811 270.535 167.944 282.806C174.643 298.81 184.473 312.917 194.333 327.03C200.952 336.496 208.077 345.574 215.127 354.707C215.336 354.972 215.54 355.237 215.743 355.502C216.433 356.248 217.154 356.969 217.814 357.745C236.407 379.549 257.034 399.123 280.835 415.226C309.073 434.343 340.737 445.307 373.314 454.058C386.435 457.583 399.759 458.403 413.255 456.461C427.38 454.428 439.158 447.433 450.275 439.107C459.31 432.353 466.015 423.909 468.677 412.607C470.144 406.358 471.512 400.115 472.129 393.718C472.116 393.533 472.098 393.348 472.086 393.157C472.036 392.732 471.987 392.3 472.048 391.881C473.164 384.27 469.553 379.962 462.767 376.93ZM280.366 159.124C280.336 159.136 280.311 159.142 280.28 159.155C280.588 159.149 280.89 159.149 281.198 159.149C280.927 159.056 280.588 159.044 280.366 159.124ZM623.715 278.455C621.669 258.808 617.922 239.493 612.339 220.518C605.4 196.945 595.588 174.623 583.287 153.405C573.076 135.792 561.064 119.454 547.586 104.145C537.59 92.8059 526.805 82.3476 515.342 72.5302C513.235 70.7183 510.954 69.1098 508.902 67.2179L508.896 67.2117C508.083 66.4722 507.306 65.6833 506.597 64.8205C505.87 63.8037 504.884 63.058 503.91 62.3061C489.15 50.9234 473.324 41.2231 456.746 32.7615C436.84 22.6052 416.022 14.7291 394.366 9.18876C373.844 3.93804 353.075 0.178722 331.777 0.314304C329.04 0.135582 326.267 0.690236 323.543 0H306.293C303.754 0.659422 301.16 0.160233 298.596 0.314304C289.771 0.28349 280.995 0.905934 272.244 2.13234C222.849 9.05318 177.737 26.8822 136.742 55.1942C132.705 57.986 128.478 60.5743 125.082 64.2166C124.478 65.1903 123.597 65.8805 122.703 66.5831C122.635 66.6324 122.567 66.6879 122.5 66.7433C115.887 71.9694 109.447 77.4173 103.37 83.2412C94.1877 92.0417 85.4118 101.23 77.2646 111.042C63.9776 127.046 52.2559 144.093 42.4385 162.415C28.8803 187.713 18.8226 214.337 12.6721 242.414C8.29033 262.425 5.92998 282.67 5.41846 303.124C5.098 315.857 5.87451 328.54 7.12556 341.217C9.23941 362.663 13.7013 383.598 20.2215 404.108C26.4275 423.644 34.7103 442.299 44.7126 460.184C46.1239 462.698 46.2841 465.015 45.5138 467.801C41.6065 481.939 37.7363 496.088 33.8599 510.238C25.1087 542.192 16.4253 574.165 7.61242 606.101C6.27509 610.945 4.94392 615.795 3.66822 620.657C2.87322 623.702 3.6559 624.404 6.77428 623.776C7.98219 623.535 9.17162 623.197 10.361 622.882C43.1103 614.205 75.9088 605.694 108.676 597.072C126.148 592.469 143.681 588.068 161.091 583.231C165.239 582.078 168.665 582.263 172.511 584.278C196.004 596.592 220.729 605.602 246.6 611.512C263.154 615.29 279.904 617.804 296.821 618.648C306.41 619.129 316.012 619.733 325.706 619.024C336.343 618.248 346.993 617.736 357.568 616.313C394.298 611.358 428.989 600.024 461.572 582.454C495.245 564.292 524.642 540.701 549.694 511.711C570.82 487.269 587.644 460.165 600.402 430.528C615.254 396.023 623.216 359.884 624.948 322.42C625.626 307.771 625.238 293.079 623.715 278.455ZM140.47 121.161C177.404 86.9759 220.55 64.5678 270.204 56.3775C352.816 42.7453 425.895 63.8221 488.614 119.633C502.24 131.755 514.134 145.479 524.71 160.338C525.234 161.071 525.647 161.891 526.109 162.674C544.628 189.365 558.038 218.355 565.323 250.081C567.43 259.251 569.409 268.452 570.05 277.875C571.239 283.101 571.405 288.451 571.689 293.757C573.47 326.771 569.55 359.07 558.969 390.47C558.655 391.394 558.673 392.51 557.687 393.126C553.583 405.39 548.504 417.229 542.422 428.655C535.334 441.973 527.181 454.563 517.937 466.495C482.821 511.841 437.5 541.952 382.361 557.273C353.02 565.426 323.093 567.879 292.723 565.186C251.512 561.525 213.475 548.528 178.403 526.724C175.987 525.226 173.898 525.072 171.248 525.775C140.353 533.965 109.434 542.057 78.4787 550.179C77.8131 549.076 78.4663 548.17 78.719 547.258C86.817 517.609 94.8964 487.953 103.087 458.335C103.672 456.215 103.37 454.668 102.218 452.918C87.1497 430.091 75.5143 405.661 68.1559 379.266C65.9866 371.476 63.8789 363.656 62.8498 355.601C61.1488 349.456 60.5757 343.127 59.8978 336.829C58.2585 321.594 58.0551 306.323 59.1028 291.021C60.5942 269.217 64.9513 248.004 71.8105 227.266C79.6065 203.706 91.0077 181.982 105.016 161.571C105.238 161.244 105.614 161.022 105.916 160.751C115.862 146.188 127.553 133.117 140.47 121.161ZM524.654 161.262C525.086 161.78 525.548 162.273 526.109 162.674C525.64 162.131 525.154 161.663 524.654 161.262ZM280.366 159.124C280.336 159.136 280.311 159.142 280.28 159.155C280.588 159.149 280.89 159.149 281.198 159.149C280.927 159.056 280.588 159.044 280.366 159.124ZM167.944 282.806C174.643 298.81 184.473 312.917 194.333 327.03C200.952 336.496 208.077 345.574 215.127 354.707C215.336 354.972 215.54 355.237 215.743 355.502C216.433 356.248 217.154 356.969 217.814 357.745C236.407 379.549 257.034 399.123 280.835 415.226C309.073 434.343 340.737 445.307 373.314 454.058C386.435 457.583 399.759 458.403 413.255 456.461C427.38 454.428 439.158 447.433 450.275 439.107C459.31 432.353 466.015 423.909 468.677 412.607C470.144 406.358 471.512 400.115 472.129 393.718C472.116 393.533 472.098 393.348 472.086 393.157C472.036 392.732 471.987 392.3 472.048 391.881C473.164 384.27 469.553 379.962 462.767 376.93C452.204 372.21 441.974 366.743 431.528 361.751C421.458 356.932 411.597 351.613 401.034 347.91C393.688 345.334 390.225 346.658 385.757 352.957C378.195 363.6 369.678 373.461 361.155 383.321C357.815 387.179 353.618 388.165 348.903 386.403C345.458 385.114 342.149 383.469 338.753 382.027C295.669 363.773 263.641 333.211 240.049 293.295C236.37 287.064 237.202 282.799 242.73 277.894C242.742 277.881 242.761 277.869 242.773 277.857C243.365 277.16 243.963 276.464 244.548 275.761C250.89 268.132 257.921 261.051 262.087 251.763C264.127 247.209 264.343 242.963 262.451 238.433C254.211 218.749 246.101 199.01 237.751 179.375C235.409 173.859 232.216 168.713 225.77 167.185C222.091 166.316 218.264 166.365 214.48 166.267C212.415 164.707 206.678 164.707 204.632 166.267C196.7 167.154 189.847 170.211 184.535 176.318C181.946 179.289 179.395 182.284 176.862 185.297C170.594 192.767 166.04 201.228 162.817 210.374C159.97 218.441 158.503 226.81 158.306 235.377C157.455 238.446 157.467 241.515 158.299 244.59C159.199 257.914 162.811 270.535 167.944 282.806ZM280.366 159.124C280.336 159.136 280.311 159.142 280.28 159.155C280.588 159.149 280.89 159.149 281.198 159.149C280.927 159.056 280.588 159.044 280.366 159.124ZM472.048 391.881C473.164 384.27 469.553 379.962 462.767 376.93C452.204 372.21 441.974 366.743 431.528 361.751C421.458 356.932 411.597 351.613 401.034 347.91C393.688 345.334 390.225 346.658 385.757 352.957C378.195 363.6 369.678 373.461 361.155 383.321C357.815 387.179 353.618 388.165 348.903 386.403C345.458 385.114 342.149 383.469 338.753 382.027C295.669 363.773 263.641 333.211 240.049 293.295C236.37 287.064 237.202 282.799 242.73 277.894C242.742 277.881 242.761 277.869 242.773 277.857C243.365 277.16 243.963 276.464 244.548 275.761C250.89 268.132 257.921 261.051 262.087 251.763C264.127 247.209 264.343 242.963 262.451 238.433C254.211 218.749 246.101 199.01 237.751 179.375C235.409 173.859 232.216 168.713 225.77 167.185C222.091 166.316 218.264 166.365 214.48 166.267C212.415 164.707 206.678 164.707 204.632 166.267C196.7 167.154 189.847 170.211 184.535 176.318C181.946 179.289 179.395 182.284 176.862 185.297C170.594 192.767 166.04 201.228 162.817 210.374C159.97 218.441 158.503 226.81 158.306 235.377C157.455 238.446 157.467 241.515 158.299 244.59C159.199 257.914 162.811 270.535 167.944 282.806C174.643 298.81 184.473 312.917 194.333 327.03C200.952 336.496 208.077 345.574 215.127 354.707C215.336 354.972 215.54 355.237 215.743 355.502C216.433 356.248 217.154 356.969 217.814 357.745C236.407 379.549 257.034 399.123 280.835 415.226C309.073 434.343 340.737 445.307 373.314 454.058C386.435 457.583 399.759 458.403 413.255 456.461C427.38 454.428 439.158 447.433 450.275 439.107C459.31 432.353 466.015 423.909 468.677 412.607C470.144 406.358 471.512 400.115 472.129 393.718C472.116 393.533 472.098 393.348 472.086 393.157C472.036 392.732 471.987 392.3 472.048 391.881ZM524.654 161.262C525.086 161.78 525.548 162.273 526.109 162.674C525.64 162.131 525.154 161.663 524.654 161.262ZM524.654 161.262C525.086 161.78 525.548 162.273 526.109 162.674C525.64 162.131 525.154 161.663 524.654 161.262ZM280.366 159.124C280.336 159.136 280.311 159.142 280.28 159.155C280.588 159.149 280.89 159.149 281.198 159.149C280.927 159.056 280.588 159.044 280.366 159.124ZM472.048 391.881C473.164 384.27 469.553 379.962 462.767 376.93C452.204 372.21 441.974 366.743 431.528 361.751C421.458 356.932 411.597 351.613 401.034 347.91C393.688 345.334 390.225 346.658 385.757 352.957C378.195 363.6 369.678 373.461 361.155 383.321C357.815 387.179 353.618 388.165 348.903 386.403C345.458 385.114 342.149 383.469 338.753 382.027C295.669 363.773 263.641 333.211 240.049 293.295C236.37 287.064 237.202 282.799 242.73 277.894C242.742 277.881 242.761 277.869 242.773 277.857C243.365 277.16 243.963 276.464 244.548 275.761C250.89 268.132 257.921 261.051 262.087 251.763C264.127 247.209 264.343 242.963 262.451 238.433C254.211 218.749 246.101 199.01 237.751 179.375C235.409 173.859 232.216 168.713 225.77 167.185C222.091 166.316 218.264 166.365 214.48 166.267C212.415 164.707 206.678 164.707 204.632 166.267C196.7 167.154 189.847 170.211 184.535 176.318C181.946 179.289 179.395 182.284 176.862 185.297C170.594 192.767 166.04 201.228 162.817 210.374C159.97 218.441 158.503 226.81 158.306 235.377C157.455 238.446 157.467 241.515 158.299 244.59C159.199 257.914 162.811 270.535 167.944 282.806C174.643 298.81 184.473 312.917 194.333 327.03C200.952 336.496 208.077 345.574 215.127 354.707C215.336 354.972 215.54 355.237 215.743 355.502C216.433 356.248 217.154 356.969 217.814 357.745C236.407 379.549 257.034 399.123 280.835 415.226C309.073 434.343 340.737 445.307 373.314 454.058C386.435 457.583 399.759 458.403 413.255 456.461C427.38 454.428 439.158 447.433 450.275 439.107C459.31 432.353 466.015 423.909 468.677 412.607C470.144 406.358 471.512 400.115 472.129 393.718C472.116 393.533 472.098 393.348 472.086 393.157C472.036 392.732 471.987 392.3 472.048 391.881ZM280.366 159.124C280.336 159.136 280.311 159.142 280.28 159.155C280.588 159.149 280.89 159.149 281.198 159.149C280.927 159.056 280.588 159.044 280.366 159.124ZM472.048 391.881C473.164 384.27 469.553 379.962 462.767 376.93C452.204 372.21 441.974 366.743 431.528 361.751C421.458 356.932 411.597 351.613 401.034 347.91C393.688 345.334 390.225 346.658 385.757 352.957C378.195 363.6 369.678 373.461 361.155 383.321C357.815 387.179 353.618 388.165 348.903 386.403C345.458 385.114 342.149 383.469 338.753 382.027C295.669 363.773 263.641 333.211 240.049 293.295C236.37 287.064 237.202 282.799 242.73 277.894C242.742 277.881 242.761 277.869 242.773 277.857C243.365 277.16 243.963 276.464 244.548 275.761C250.89 268.132 257.921 261.051 262.087 251.763C264.127 247.209 264.343 242.963 262.451 238.433C254.211 218.749 246.101 199.01 237.751 179.375C235.409 173.859 232.216 168.713 225.77 167.185C222.091 166.316 218.264 166.365 214.48 166.267C212.415 164.707 206.678 164.707 204.632 166.267C196.7 167.154 189.847 170.211 184.535 176.318C181.946 179.289 179.395 182.284 176.862 185.297C170.594 192.767 166.04 201.228 162.817 210.374C159.97 218.441 158.503 226.81 158.306 235.377C157.455 238.446 157.467 241.515 158.299 244.59C159.199 257.914 162.811 270.535 167.944 282.806C174.643 298.81 184.473 312.917 194.333 327.03C200.952 336.496 208.077 345.574 215.127 354.707C215.336 354.972 215.54 355.237 215.743 355.502C216.433 356.248 217.154 356.969 217.814 357.745C236.407 379.549 257.034 399.123 280.835 415.226C309.073 434.343 340.737 445.307 373.314 454.058C386.435 457.583 399.759 458.403 413.255 456.461C427.38 454.428 439.158 447.433 450.275 439.107C459.31 432.353 466.015 423.909 468.677 412.607C470.144 406.358 471.512 400.115 472.129 393.718C472.116 393.533 472.098 393.348 472.086 393.157C472.036 392.732 471.987 392.3 472.048 391.881ZM524.654 161.262C525.086 161.78 525.548 162.273 526.109 162.674C525.64 162.131 525.154 161.663 524.654 161.262ZM472.048 391.881C473.164 384.27 469.553 379.962 462.767 376.93C452.204 372.21 441.974 366.743 431.528 361.751C421.458 356.932 411.597 351.613 401.034 347.91C393.688 345.334 390.225 346.658 385.757 352.957C378.195 363.6 369.678 373.461 361.155 383.321C357.815 387.179 353.618 388.165 348.903 386.403C345.458 385.114 342.149 383.469 338.753 382.027C295.669 363.773 263.641 333.211 240.049 293.295C236.37 287.064 237.202 282.799 242.73 277.894C242.742 277.881 242.761 277.869 242.773 277.857C243.365 277.16 243.963 276.464 244.548 275.761C250.89 268.132 257.921 261.051 262.087 251.763C264.127 247.209 264.343 242.963 262.451 238.433C254.211 218.749 246.101 199.01 237.751 179.375C235.409 173.859 232.216 168.713 225.77 167.185C222.091 166.316 218.264 166.365 214.48 166.267C212.415 164.707 206.678 164.707 204.632 166.267C196.7 167.154 189.847 170.211 184.535 176.318C181.946 179.289 179.395 182.284 176.862 185.297C170.594 192.767 166.04 201.228 162.817 210.374C159.97 218.441 158.503 226.81 158.306 235.377C157.455 238.446 157.467 241.515 158.299 244.59C159.199 257.914 162.811 270.535 167.944 282.806C174.643 298.81 184.473 312.917 194.333 327.03C200.952 336.496 208.077 345.574 215.127 354.707C215.336 354.972 215.54 355.237 215.743 355.502C216.433 356.248 217.154 356.969 217.814 357.745C236.407 379.549 257.034 399.123 280.835 415.226C309.073 434.343 340.737 445.307 373.314 454.058C386.435 457.583 399.759 458.403 413.255 456.461C427.38 454.428 439.158 447.433 450.275 439.107C459.31 432.353 466.015 423.909 468.677 412.607C470.144 406.358 471.512 400.115 472.129 393.718C472.116 393.533 472.098 393.348 472.086 393.157C472.036 392.732 471.987 392.3 472.048 391.881ZM524.654 161.262C525.086 161.78 525.548 162.273 526.109 162.674C525.64 162.131 525.154 161.663 524.654 161.262ZM280.366 159.124C280.336 159.136 280.311 159.142 280.28 159.155C280.588 159.149 280.89 159.149 281.198 159.149C280.927 159.056 280.588 159.044 280.366 159.124ZM158.306 235.377C157.455 238.446 157.467 241.515 158.299 244.59C158.01 241.521 157.991 238.446 158.306 235.377ZM204.632 166.267C207.916 165.694 211.195 165.33 214.48 166.267C212.415 164.707 206.678 164.707 204.632 166.267ZM280.366 159.124C280.336 159.136 280.311 159.142 280.28 159.155C280.588 159.149 280.89 159.149 281.198 159.149C280.927 159.056 280.588 159.044 280.366 159.124ZM524.654 161.262C525.086 161.78 525.548 162.273 526.109 162.674C525.64 162.131 525.154 161.663 524.654 161.262Z" fill="#FEFEFE"/>
<path d="M506.012 65.1348C514.178 70.8539 521.579 77.4913 528.802 84.3135C577.716 130.547 609.036 186.592 622.199 252.651C625.065 267.035 626.889 281.579 627.413 296.265C628.036 298.94 627.111 301.713 627.931 304.375C627.931 310.125 627.931 315.875 627.931 321.625C627.117 324.281 628.054 327.048 627.401 329.711C624.714 380.511 610.737 428.039 584.415 471.517C536.992 549.84 468.474 599.772 378.817 618.821C305.665 634.37 235.507 623.757 169.115 589.141C166.749 587.908 164.709 587.693 162.151 588.364C108.978 602.385 55.7872 616.325 2.60207 630.284C2.12137 630.413 1.56672 630.376 1.30172 630.931C0.235552 631.177 -0.177357 630.764 0.069156 629.698C2.93487 622.149 4.61115 614.26 6.74349 606.501C19.1184 561.593 31.3824 516.648 43.6957 471.721C44.1641 470.007 44.2874 468.571 43.2952 466.815C22.5881 430.257 9.88653 391.099 4.84534 349.37C-8.21983 241.126 37.4836 132.045 123.892 65.671C124.453 65.2396 125.082 64.9006 125.68 64.5186C123.517 68.0067 119.85 69.8617 116.855 72.407C106.291 81.3677 96.3755 90.957 87.008 101.157C76.1923 112.94 66.455 125.537 57.5559 138.787C52.4778 146.348 47.7509 154.144 43.4616 162.181C30.6799 186.136 20.7824 211.206 14.6257 237.694C12.0189 248.91 9.86804 260.213 8.60466 271.688C7.77884 279.2 7.29198 286.725 6.69419 294.25C6.09023 301.849 6.06558 309.423 6.31209 316.978C6.8236 332.373 8.25954 347.688 10.965 362.898C13.8739 379.235 17.966 395.222 23.3893 410.887C29.1638 427.576 36.3435 443.643 45.0701 459.001C46.9066 462.236 47.1901 465.114 46.1362 468.787C40.8485 487.245 35.9306 505.807 30.8648 524.326C24.0179 549.347 17.1463 574.369 10.2871 599.39C8.33966 606.483 6.38604 613.57 4.42627 620.657C3.87778 622.642 3.5758 623.825 6.60174 623.012C29.6815 616.818 52.8044 610.797 75.9211 604.733C91.131 600.745 106.353 596.777 121.563 592.801C135.892 589.055 150.226 585.357 164.524 581.493C166.625 580.926 168.265 581.252 170.064 582.201C187.511 591.384 205.611 599.014 224.47 604.77C239.322 609.299 254.415 612.769 269.81 614.963C281.852 616.676 293.937 617.496 306.078 618.18C319.223 618.92 332.202 617.816 345.23 616.787C362.467 615.425 379.372 612.208 396.03 607.648C411.844 603.315 427.239 597.837 442.202 591.07C459.717 583.151 476.295 573.641 492.041 562.678C503.035 555.023 513.389 546.556 523.342 537.564C531.575 530.126 539.303 522.206 546.686 513.973C554.871 504.846 562.34 495.108 569.359 485.038C579.639 470.291 588.403 454.68 595.995 438.411C606.071 416.816 613.331 394.285 618.077 370.94C620.474 359.144 622.015 347.244 623.142 335.245C624.406 321.835 624.677 308.412 624.079 295.033C623.038 271.54 619.432 248.355 613.005 225.701C608.925 211.329 603.994 197.235 597.776 183.59C589.808 166.113 580.711 149.307 569.661 133.585C562.667 123.632 555.333 113.944 547.143 104.916C541.91 99.1536 536.894 93.1757 531.187 87.8818C523.619 80.8624 516.119 73.7443 507.898 67.4644C507.103 66.8543 506.203 66.2626 506.012 65.1348Z" fill="#DFDFDF"/>
<path d="M332.171 0C332.134 0.184885 332.159 0.363606 332.251 0.530002C329.33 0.690236 326.403 0.912097 323.549 0C326.421 0 329.299 0 332.171 0Z" fill="#909090"/>
<path d="M298.208 0.530002C298.288 0.363606 298.313 0.184885 298.282 0C300.95 0 303.619 0 306.294 0C303.65 0.893609 300.926 0.690236 298.208 0.530002Z" fill="#898989"/>
<path d="M627.931 304.375C626.957 301.725 627.259 298.989 627.413 296.265C627.58 296.345 627.746 296.376 627.931 296.364C627.931 299.032 627.931 301.701 627.931 304.375Z" fill="#888888"/>
<path d="M627.395 329.711C627.259 326.993 626.957 324.269 627.925 321.625C627.925 324.294 627.925 326.962 627.925 329.637L627.647 329.618L627.395 329.711Z" fill="#7F7F7F"/>
<path d="M472.129 393.718C471.513 400.115 470.144 406.358 468.678 412.607C466.015 423.91 459.31 432.353 450.275 439.107C439.158 447.433 427.381 454.428 413.255 456.462C399.759 458.403 386.435 457.583 373.314 454.058C340.738 445.307 309.073 434.343 280.835 415.226C257.034 399.123 236.407 379.55 217.814 357.746C217.155 356.969 216.433 356.248 215.743 355.502C215.54 355.237 215.336 354.972 215.127 354.707C215.336 354.763 215.534 354.831 215.725 354.917C218.295 355.965 219.533 358.497 221.24 360.433C242.515 384.622 266.056 406.142 293.98 422.548C306.059 429.647 318.829 435.243 331.949 440.081C346.309 445.369 360.754 450.367 375.687 453.849C383.212 455.605 390.878 456.992 398.52 456.813C409.675 456.548 420.811 455.494 431.072 450.089C440.113 445.332 448.667 440.075 456.124 432.963C462.404 426.966 466.052 419.731 468.123 411.522C469.325 406.752 470.557 401.988 470.915 397.04C471.007 395.813 471.161 394.531 471.876 393.447C471.925 393.379 471.975 393.311 472.024 393.243C472.043 393.213 472.061 393.182 472.086 393.157C472.098 393.348 472.116 393.533 472.129 393.718Z" fill="#2EB843"/>
<path d="M472.085 393.157C472.098 393.348 472.116 393.533 472.129 393.718C472.036 393.632 471.956 393.539 471.876 393.447C470.797 392.14 471.235 390.507 471.303 389.059C471.537 384.387 469.491 381.281 465.368 379.217C447.385 370.201 429.315 361.375 411.073 352.895C407.721 351.336 404.368 349.783 400.862 348.6C394.144 346.338 390.675 347.521 386.539 353.271C378.799 364.032 370.22 374.114 361.518 384.092C358.252 387.845 353.044 388.948 347.942 386.89C327.185 378.502 307.661 367.988 290.202 353.789C269.729 337.137 253.392 317.034 239.877 294.509C237.116 289.911 235.784 285.258 239.266 280.427C240.129 279.231 240.863 277.746 242.718 277.857H242.773C242.761 277.869 242.742 277.882 242.73 277.894C237.202 282.8 236.37 287.064 240.049 293.295C263.64 333.211 295.669 363.773 338.753 382.027C342.149 383.469 345.458 385.115 348.903 386.403C353.618 388.165 357.814 387.179 361.155 383.321C369.678 373.461 378.195 363.6 385.757 352.957C390.225 346.659 393.688 345.334 401.034 347.91C411.597 351.614 421.458 356.932 431.528 361.751C441.974 366.743 452.204 372.21 462.767 376.93C469.552 379.963 473.164 384.27 472.048 391.881C471.987 392.3 472.036 392.732 472.085 393.157Z" fill="#3FC250"/>
<path d="M158.305 235.376C158.305 238.446 158.299 241.521 158.299 244.59C157.467 241.515 157.455 238.446 158.305 235.376Z" fill="#58D164"/>
<path d="M472.086 393.157C472.098 393.348 472.116 393.533 472.129 393.718C471.512 400.115 470.144 406.358 468.678 412.607C466.015 423.91 459.31 432.353 450.275 439.107C439.158 447.433 427.381 454.428 413.255 456.462C399.759 458.403 386.435 457.583 373.314 454.058C340.737 445.307 309.073 434.343 280.835 415.226C257.034 399.123 236.407 379.55 217.814 357.746C217.155 356.969 216.433 356.248 215.743 355.502C215.54 355.237 215.336 354.972 215.127 354.707C208.077 345.574 200.952 336.496 194.334 327.03C184.473 312.917 174.643 298.811 167.944 282.806C162.811 270.536 159.199 257.914 158.3 244.59C158.01 241.521 157.991 238.446 158.306 235.377C158.503 226.81 159.97 218.441 162.817 210.374C166.04 201.228 170.594 192.767 176.862 185.298C179.395 182.284 181.946 179.289 184.535 176.318C189.847 170.211 196.7 167.154 204.632 166.267C207.916 165.694 211.195 165.33 214.48 166.267C218.264 166.365 222.091 166.316 225.77 167.185C232.216 168.713 235.409 173.859 237.751 179.375C246.101 199.01 254.212 218.749 262.451 238.433C264.343 242.963 264.128 247.209 262.088 251.764C257.922 261.051 250.89 268.132 244.548 275.762C243.963 276.464 243.365 277.161 242.773 277.857C242.761 277.869 242.743 277.882 242.73 277.894C237.202 282.8 236.37 287.064 240.049 293.295C263.641 333.211 295.669 363.773 338.753 382.027C342.149 383.469 345.458 385.115 348.903 386.403C353.618 388.165 357.815 387.179 361.155 383.321C369.678 373.461 378.195 363.6 385.757 352.957C390.225 346.659 393.688 345.334 401.034 347.91C411.598 351.614 421.458 356.932 431.528 361.751C441.974 366.743 452.204 372.21 462.767 376.93C469.553 379.963 473.164 384.27 472.049 391.881C471.987 392.3 472.036 392.732 472.086 393.157Z" fill="#FEFEFE"/>
</svg>
