<svg width="374" height="64" viewBox="0 0 374 64" fill="none" xmlns="http://www.w3.org/2000/svg">
<path d="M231.275 39.3983H223.014V38.3658L231.946 26.7496H234.63V38.2367H236.954V39.3983H234.63V43.7866H231.275V39.3983ZM231.275 38.2367V29.7698L224.795 38.2367H231.275ZM244.395 44.3029C243.053 44.3029 241.925 44.0706 241.013 43.6059C240.118 43.1413 239.284 42.4443 238.509 41.515L239.258 40.8439C239.877 41.6183 240.592 42.1948 241.4 42.5734C242.209 42.952 243.01 43.1413 243.801 43.1413C244.868 43.1413 245.729 42.7971 246.383 42.1087C247.036 41.4032 247.363 40.3276 247.363 38.882C247.363 37.5569 247.011 36.5674 246.305 35.9135C245.599 35.2423 244.593 34.9067 243.285 34.9067C242.476 34.9067 241.4 35.1046 240.058 35.5004L239.026 34.4937L239.31 26.7496H249.351V27.8854H242.304L242.072 33.8484L242.846 33.7967C243.724 33.7451 244.214 33.7193 244.317 33.7193C245.367 33.7193 246.391 33.8828 247.389 34.2098C248.405 34.5195 249.256 35.0616 249.945 35.836C250.633 36.6104 250.977 37.6258 250.977 38.882C250.977 40.2243 250.625 41.2999 249.919 42.1087C249.213 42.9176 248.353 43.4855 247.338 43.8124C246.339 44.1394 245.359 44.3029 244.395 44.3029ZM256.55 33.7451C255.26 33.7451 254.244 33.4353 253.504 32.8158C252.782 32.1963 252.42 31.3186 252.42 30.1828C252.42 29.047 252.782 28.1694 253.504 27.5498C254.244 26.9303 255.26 26.6205 256.55 26.6205C257.807 26.6205 258.796 26.9389 259.519 27.5756C260.259 28.1952 260.629 29.0642 260.629 30.1828C260.629 31.3014 260.259 32.1791 259.519 32.8158C258.796 33.4353 257.807 33.7451 256.55 33.7451ZM266.282 26.7496H269.018L256.525 43.7866H253.788L266.282 26.7496ZM256.525 32.7126C257.196 32.7126 257.703 32.4975 258.048 32.0672C258.392 31.637 258.564 31.0089 258.564 30.1828C258.564 29.3568 258.383 28.7287 258.022 28.2984C257.678 27.8682 257.17 27.6531 256.499 27.6531C255.845 27.6531 255.346 27.8682 255.002 28.2984C254.657 28.7287 254.485 29.3568 254.485 30.1828C254.485 31.0089 254.657 31.637 255.002 32.0672C255.346 32.4975 255.854 32.7126 256.525 32.7126ZM266.308 43.9157C265.017 43.9157 264.002 43.6059 263.262 42.9864C262.539 42.3669 262.178 41.4892 262.178 40.3534C262.178 39.2176 262.539 38.3399 263.262 37.7204C264.002 37.1009 265.017 36.7911 266.308 36.7911C267.564 36.7911 268.554 37.1095 269.277 37.7462C270.017 38.3658 270.387 39.2348 270.387 40.3534C270.387 41.472 270.017 42.3497 269.277 42.9864C268.554 43.6059 267.564 43.9157 266.308 43.9157ZM266.282 42.8831C266.953 42.8831 267.461 42.668 267.805 42.2378C268.149 41.8076 268.321 41.1794 268.321 40.3534C268.321 39.5274 268.141 38.8992 267.779 38.469C267.435 38.0388 266.928 37.8237 266.256 37.8237C265.602 37.8237 265.103 38.0388 264.759 38.469C264.415 38.8992 264.243 39.5274 264.243 40.3534C264.243 41.1794 264.415 41.8076 264.759 42.2378C265.103 42.668 265.611 42.8831 266.282 42.8831Z" fill="#08213F"/>
<path d="M0 34.2512C0 32.9228 0 31.5944 0 30.2661C0.202479 30.0804 0.349736 29.8381 0.65959 29.7737C3.47282 29.1954 5.05737 27.2488 6.14032 24.7777C7.29997 22.1286 7.75862 19.3138 8.09148 16.4622C8.25408 15.0633 8.14057 13.6582 8.34611 12.2639C8.44582 11.5889 8.36759 10.8941 8.29549 10.2038C7.94883 6.86595 9.10694 4.15396 11.7407 2.06628C12.7562 1.26097 13.9695 1.13979 15.1813 0.984863C31.2308 0.984863 47.2803 0.984863 63.3298 0.984863C64.1167 1.16893 64.9742 1.06616 65.7028 1.46345C68.1909 2.81638 69.711 4.87644 70.119 7.70348C70.2693 8.73888 70.1696 9.78349 70.1788 10.822C70.2172 15.3424 70.4427 19.8583 72.1008 24.1457C72.9353 26.3039 74.098 28.229 76.3053 29.2859C76.7011 29.4745 77.1091 29.6157 77.5325 29.7092C77.9221 29.7951 78.2519 29.9623 78.5111 30.2645C78.5111 31.5929 78.5111 32.9213 78.5111 34.2497C78.2995 34.466 78.1138 34.6914 77.7779 34.7605C75.4095 35.2483 73.9032 36.8021 72.8034 38.8392C71.4949 41.2628 71.001 43.918 70.5899 46.6009C70.3077 48.4462 70.3368 50.3115 70.1604 52.1629C70.0868 52.9452 70.162 53.7383 70.2233 54.5298C70.4918 57.9673 69.2033 60.6992 66.3854 62.701C65.4681 63.3529 64.3729 63.3407 63.3314 63.5309C47.2312 63.5309 31.1296 63.5309 15.0294 63.5309C13.9956 63.3192 12.9264 63.3069 12.003 62.6335C9.18671 60.5826 7.98411 57.7863 8.28629 54.3917C8.44428 52.6169 8.20806 50.8759 8.16971 49.1227C8.13443 47.4737 7.84912 45.8262 7.51626 44.1987C7.21867 42.7415 6.78611 41.3318 6.23543 39.9528C5.64793 38.4802 4.77512 37.2117 3.6032 36.1441C2.84391 35.4523 1.92201 35.0841 0.958706 34.8172C0.567554 34.7129 0.240827 34.5733 0 34.2512Z" fill="#564696"/>
<path d="M47.2359 17.2122C49.4432 18.4992 50.7072 20.4473 50.8805 22.9614C51.1628 27.0723 49.2622 29.7766 45.3553 31.1142C45.2633 31.1464 45.1758 31.194 45.0178 31.2661C46.4459 31.5453 47.7866 31.852 48.9217 32.7018C49.658 33.5885 49.5843 33.8277 48.5934 34.4567C47.9078 34.8908 47.1684 35.2405 46.5364 35.759C46.337 35.9231 46.1023 36.0213 45.8308 35.9952C44.4641 34.9874 42.9271 34.4229 41.2444 34.2296C40.1231 34.1008 38.9987 34.179 37.8758 34.1652C36.6242 34.1514 35.3709 34.1483 34.1193 34.1683C33.2342 34.1821 33.0409 34.3738 33.0363 35.2696C33.021 37.8758 33.0286 40.4804 33.0332 43.0866C33.0332 43.4194 33.0256 43.7569 33.2848 44.0192C33.9091 44.3582 34.5917 44.4287 35.282 44.4456C36.0474 44.464 36.8128 44.4333 37.5783 44.461C37.7807 44.4686 38.0216 44.4962 38.0292 44.7631C38.0369 45.0086 37.8283 45.1175 37.6181 45.1359C35.9676 45.2801 34.3187 45.4641 32.6574 45.2939C32.527 45.2801 32.392 45.2463 32.3092 45.1512C31.7263 44.4794 31.1572 44.7355 30.5544 45.1328C30.0221 45.4841 29.4638 45.7924 28.9208 46.1283C28.6554 46.2909 28.4253 46.4857 28.2765 46.7664C27.7182 47.8264 28.0694 48.443 29.2567 48.4476C32.7786 48.4614 36.299 48.4369 39.8209 48.4676C40.2274 48.4706 40.7826 48.2881 40.9376 48.9477C36.5475 48.9569 32.1574 48.96 27.7673 48.9814C27.3347 48.983 27.1506 48.8419 27.1859 48.4124C27.1982 48.2605 27.1874 48.1056 27.1874 47.9537C27.1859 37.4892 27.1844 27.0263 27.189 16.5618C27.189 16.2642 27.1015 15.9483 27.2825 15.666C27.6399 15.8133 27.6415 16.1385 27.6445 16.4407C27.6752 20.9259 27.6691 25.4095 27.6491 29.8948C27.6476 30.1248 27.6031 30.3503 27.5525 30.5298C27.6016 30.2199 27.7826 29.973 28.0986 29.7828C29.0128 29.229 29.9117 28.6477 30.8581 28.1491C31.4471 27.8393 31.7769 27.3944 31.872 26.7257C31.9549 26.1474 32.0132 25.5629 32.1543 24.9923C32.2233 24.7147 32.2693 24.4309 32.6329 24.3925C33.0685 24.5689 33.001 24.9678 33.0133 25.3098C33.0486 26.3299 33.0225 27.3515 33.0302 28.3716C33.0332 28.9054 33.2112 29.2888 33.8125 29.2766C36.1318 29.2321 38.4603 29.4791 40.7688 29.117C42.0696 28.913 43.3121 28.5265 44.1972 27.4405C45.6329 25.678 45.363 22.8663 44.0392 21.6698C43.8704 21.518 43.7094 21.3462 43.6603 21.1069C43.6219 20.6958 43.8321 20.4503 44.1788 20.2617C45.073 19.7754 45.9213 19.2125 46.7895 18.6817C47.1331 18.4716 47.489 18.3228 47.1285 17.8243C46.9966 17.6386 46.9981 17.3809 47.2359 17.2122Z" fill="#F6EFF8"/>
<path d="M40.9375 48.9429C40.6307 48.7634 40.2933 48.8156 39.965 48.8156C36.3679 48.8125 32.7709 48.8217 29.1738 48.8033C28.6507 48.8003 27.9144 49.0702 27.6966 48.3631C27.4681 47.6207 27.5708 46.7509 28.1721 46.2279C29.1891 45.3428 30.4485 44.7875 31.5989 44.0834C31.8704 43.9178 32.0192 44.1524 32.122 44.3687C32.3168 44.7783 32.619 44.9654 33.0853 44.9884C34.6392 45.0636 36.1762 44.8228 37.7239 44.6893C36.3557 44.6893 34.9874 44.6924 33.6207 44.6863C33.2955 44.6847 32.9519 44.7537 32.6589 44.5313C32.9641 44.1187 33.4166 44.1632 33.8461 44.1617C36.2191 44.1494 38.5921 44.1847 40.9651 44.1463C42.4177 44.1233 43.8182 43.8073 44.9917 42.8992C46.7296 41.5555 47.1959 39.1748 46.2342 36.9307C46.0808 36.5733 45.7525 36.2389 45.9857 35.791C46.59 35.0332 47.4935 34.685 48.2896 34.2233C48.9799 33.823 49.325 33.4686 48.9216 32.7017C51.066 33.9257 52.2349 35.8539 52.5463 38.2192C52.8607 40.6137 52.4742 42.9284 50.9433 44.9255C49.2744 47.1037 46.9658 48.1683 44.3459 48.6484C43.2246 48.8539 42.0895 49.0211 40.9375 48.9429Z" fill="#F0E5F3"/>
<path d="M32.6359 24.4385C32.4932 25.2899 32.3184 26.1381 32.2171 26.9956C32.1404 27.6491 31.8091 28.0571 31.2569 28.3685C30.3703 28.867 29.5343 29.4683 28.617 29.8993C27.8193 30.2736 27.7212 31.0084 27.2825 31.6633C27.2825 26.3299 27.2825 20.9964 27.2825 15.6645C27.4942 15.4451 27.7657 15.5571 28.005 15.5556C32.4411 15.5479 36.8787 15.5126 41.3149 15.5694C43.4102 15.5954 45.4488 15.9989 47.2374 17.2153C47.2726 17.4745 47.3355 17.7552 47.561 17.8856C48.3433 18.3427 47.8218 18.5145 47.4076 18.7645C46.2127 19.4839 45.0316 20.2218 43.8443 20.9534C43.5544 21.2173 43.2553 21.0578 42.9884 20.9366C41.726 20.3614 40.3654 20.3015 39.0247 20.234C37.3972 20.1527 35.7636 20.2018 34.133 20.2187C33.2479 20.2279 33.0592 20.4273 33.0362 21.3063C33.0163 22.0702 33.0531 22.8356 33.0132 23.5979C32.9964 23.917 33.0347 24.2805 32.6359 24.4385Z" fill="#FFFEFF"/>
<path d="M45.9859 35.7903C47.0105 37.0942 47.2744 38.602 47.0121 40.1804C46.624 42.5166 44.9903 43.9432 42.4195 44.3681C40.5972 44.6687 38.7641 44.5675 36.9326 44.5782C35.5076 44.5859 34.0826 44.5491 32.6575 44.5307C32.6591 41.1882 32.6713 37.8473 32.6483 34.5049C32.6437 33.9557 32.7496 33.7655 33.3478 33.7747C35.6686 33.8131 37.9925 33.7395 40.3134 33.8039C42.3949 33.8637 44.4059 34.2441 45.9859 35.7903Z" fill="#564696"/>
<path d="M32.6359 24.4382C32.6435 23.1389 32.6681 21.8412 32.6497 20.542C32.642 20.0741 32.7294 19.8609 33.2663 19.8763C35.7344 19.9468 38.2056 19.8042 40.6752 19.9729C41.8195 20.0511 42.8564 20.3963 43.8428 20.95C45.2555 22.1388 45.7433 23.6697 45.4779 25.4598C45.2034 27.3051 44.102 28.4617 42.3825 29.0814C41.4452 29.4204 40.4835 29.6459 39.4849 29.652C37.4171 29.6658 35.3479 29.6474 33.2801 29.6811C32.7586 29.6903 32.6481 29.5124 32.6543 29.0308C32.6711 27.4999 32.6451 25.969 32.6359 24.4382Z" fill="#584596"/>
<path d="M96.1994 25.6281C97.4285 25.9406 98.3764 26.5447 99.043 27.4405C99.7096 28.3363 100.043 29.5133 100.043 30.9716C100.043 32.8673 99.4701 34.3672 98.3243 35.4713C97.1785 36.5546 95.6057 37.0962 93.6058 37.0962H85.8563V15.785H92.8871C94.7828 15.785 96.2723 16.285 97.3556 17.2849C98.4389 18.264 98.9805 19.5764 98.9805 21.2222C98.9805 22.2846 98.7409 23.2012 98.2618 23.972C97.7827 24.7219 97.0952 25.274 96.1994 25.6281ZM88.1999 24.8782H93.1684C95.3974 24.8782 96.5119 23.6595 96.5119 21.2222C96.5119 20.1181 96.189 19.2639 95.5432 18.6598C94.8974 18.0557 94.0016 17.7536 92.8559 17.7536H88.1999V24.8782ZM93.2933 35.1588C94.6266 35.1588 95.6682 34.7838 96.4182 34.0339C97.1889 33.2839 97.5743 32.2632 97.5743 30.9716C97.5743 29.68 97.1889 28.6696 96.4182 27.9405C95.6682 27.1905 94.6266 26.8156 93.2933 26.8156H88.1999V35.1588H93.2933ZM109.674 37.5962C108.278 37.5962 107.029 37.2628 105.924 36.5962C104.82 35.9296 103.956 35.0026 103.331 33.8151C102.706 32.6069 102.393 31.2528 102.393 29.7529C102.393 28.253 102.695 26.9197 103.3 25.7531C103.925 24.5657 104.779 23.6387 105.862 22.972C106.966 22.3054 108.216 21.9721 109.612 21.9721C111.007 21.9721 112.257 22.3054 113.361 22.972C114.466 23.6387 115.33 24.5657 115.955 25.7531C116.58 26.9406 116.892 28.2842 116.892 29.7841C116.892 31.284 116.58 32.6277 115.955 33.8151C115.351 35.0026 114.497 35.9296 113.393 36.5962C112.309 37.2628 111.07 37.5962 109.674 37.5962ZM109.612 35.6588C110.612 35.6588 111.497 35.4088 112.268 34.9088C113.059 34.4089 113.674 33.711 114.111 32.8152C114.549 31.9194 114.768 30.9091 114.768 29.7841C114.768 28.6592 114.549 27.6488 114.111 26.7531C113.674 25.8573 113.059 25.1594 112.268 24.6594C111.497 24.1595 110.612 23.9095 109.612 23.9095C108.633 23.9095 107.758 24.1595 106.987 24.6594C106.216 25.1594 105.612 25.8573 105.174 26.7531C104.737 27.628 104.518 28.628 104.518 29.7529C104.518 30.8987 104.737 31.9194 105.174 32.8152C105.612 33.711 106.216 34.4089 106.987 34.9088C107.758 35.4088 108.633 35.6588 109.612 35.6588ZM126.275 37.5962C124.879 37.5962 123.629 37.2628 122.525 36.5962C121.421 35.9296 120.556 35.0026 119.931 33.8151C119.306 32.6069 118.994 31.2528 118.994 29.7529C118.994 28.253 119.296 26.9197 119.9 25.7531C120.525 24.5657 121.379 23.6387 122.462 22.972C123.567 22.3054 124.816 21.9721 126.212 21.9721C127.608 21.9721 128.858 22.3054 129.962 22.972C131.066 23.6387 131.931 24.5657 132.556 25.7531C133.181 26.9406 133.493 28.2842 133.493 29.7841C133.493 31.284 133.181 32.6277 132.556 33.8151C131.951 35.0026 131.097 35.9296 129.993 36.5962C128.91 37.2628 127.67 37.5962 126.275 37.5962ZM126.212 35.6588C127.212 35.6588 128.098 35.4088 128.868 34.9088C129.66 34.4089 130.274 33.711 130.712 32.8152C131.149 31.9194 131.368 30.9091 131.368 29.7841C131.368 28.6592 131.149 27.6488 130.712 26.7531C130.274 25.8573 129.66 25.1594 128.868 24.6594C128.098 24.1595 127.212 23.9095 126.212 23.9095C125.233 23.9095 124.358 24.1595 123.587 24.6594C122.817 25.1594 122.212 25.8573 121.775 26.7531C121.338 27.628 121.119 28.628 121.119 29.7529C121.119 30.8987 121.338 31.9194 121.775 32.8152C122.212 33.711 122.817 34.4089 123.587 34.9088C124.358 35.4088 125.233 35.6588 126.212 35.6588ZM137.282 37.0962V24.4095H134.782V22.4721H137.282V17.6286H139.407V22.4721H142.782V24.4095H139.407V37.0962H137.282ZM150.262 37.5962C148.845 37.5962 147.596 37.2941 146.512 36.69C145.45 36.0858 144.637 35.2317 144.075 34.1276L145.981 33.1902C146.752 34.8359 148.262 35.6588 150.512 35.6588C151.595 35.6588 152.491 35.4609 153.199 35.0651C153.908 34.6693 154.262 34.0547 154.262 33.2214C154.262 32.3673 153.97 31.7319 153.387 31.3153C152.824 30.8987 151.824 30.6278 150.387 30.5028C148.387 30.3362 146.95 29.8883 146.075 29.1592C145.221 28.4301 144.794 27.4614 144.794 26.2531C144.794 24.899 145.283 23.847 146.262 23.097C147.241 22.3471 148.585 21.9721 150.293 21.9721C153.189 21.9721 155.158 23.1179 156.199 25.4094L154.293 26.3468C153.939 25.5136 153.418 24.899 152.731 24.5032C152.064 24.1074 151.199 23.9095 150.137 23.9095C149.054 23.9095 148.221 24.1074 147.637 24.5032C147.075 24.899 146.794 25.4615 146.794 26.1906C146.794 26.8781 147.096 27.4405 147.7 27.878C148.325 28.2946 149.387 28.5655 150.887 28.6905C152.741 28.8571 154.116 29.3154 155.012 30.0654C155.928 30.7945 156.387 31.7632 156.387 32.9714C156.387 33.9505 156.105 34.7942 155.543 35.5025C154.981 36.19 154.231 36.7108 153.293 37.0649C152.356 37.4191 151.345 37.5962 150.262 37.5962ZM160.382 37.0962V24.4095H157.882V22.4721H160.382V17.6286H162.507V22.4721H165.882V24.4095H162.507V37.0962H160.382ZM175.394 21.9721C175.894 21.9721 176.373 22.045 176.831 22.1908V24.1282C176.394 23.9199 175.914 23.8157 175.394 23.8157C174.498 23.8157 173.665 24.0657 172.894 24.5657C172.123 25.0657 171.498 25.7948 171.019 26.7531C170.561 27.6905 170.331 28.805 170.331 30.0966V37.0962H168.207V22.4721H170.331V25.4094C170.894 24.3261 171.602 23.4824 172.456 22.8783C173.331 22.2742 174.31 21.9721 175.394 21.9721ZM192.388 22.4721V37.0962H190.264V34.9401C189.659 35.7734 188.92 36.4296 188.045 36.9087C187.17 37.367 186.212 37.5962 185.17 37.5962C183.774 37.5962 182.524 37.2628 181.42 36.5962C180.316 35.9296 179.452 35.0026 178.827 33.8151C178.202 32.6277 177.889 31.2736 177.889 29.7529C177.889 28.253 178.191 26.9197 178.795 25.7531C179.42 24.5657 180.275 23.6387 181.358 22.972C182.462 22.3054 183.712 21.9721 185.108 21.9721C186.17 21.9721 187.139 22.2117 188.014 22.6908C188.909 23.1491 189.659 23.8053 190.264 24.6594V22.4721H192.388ZM185.108 35.6588C186.108 35.6588 186.993 35.4088 187.764 34.9088C188.555 34.4089 189.17 33.711 189.607 32.8152C190.045 31.9194 190.264 30.9091 190.264 29.7841C190.264 28.6592 190.045 27.6488 189.607 26.7531C189.17 25.8573 188.555 25.1594 187.764 24.6594C186.993 24.1595 186.108 23.9095 185.108 23.9095C184.128 23.9095 183.254 24.1595 182.483 24.6594C181.712 25.1594 181.108 25.8573 180.67 26.7531C180.233 27.628 180.014 28.628 180.014 29.7529C180.014 30.8987 180.233 31.9194 180.67 32.8152C181.108 33.711 181.712 34.4089 182.483 34.9088C183.254 35.4088 184.128 35.6588 185.108 35.6588ZM203.561 21.9721C204.957 21.9721 206.207 22.3054 207.311 22.972C208.415 23.6387 209.279 24.5657 209.904 25.7531C210.529 26.9406 210.842 28.2946 210.842 29.8154C210.842 31.3153 210.529 32.659 209.904 33.8464C209.3 35.013 208.446 35.9296 207.342 36.5962C206.259 37.2628 205.019 37.5962 203.624 37.5962C202.561 37.5962 201.582 37.367 200.686 36.9087C199.811 36.4296 199.072 35.7629 198.468 34.9088V43.3458H196.343V22.4721H198.468V24.6282C199.072 23.7949 199.811 23.1491 200.686 22.6908C201.561 22.2117 202.519 21.9721 203.561 21.9721ZM203.624 35.6588C204.603 35.6588 205.478 35.4088 206.248 34.9088C207.019 34.4089 207.623 33.7214 208.061 32.8464C208.498 31.9507 208.717 30.9403 208.717 29.8154C208.717 28.6696 208.498 27.6488 208.061 26.7531C207.623 25.8573 207.019 25.1594 206.248 24.6594C205.478 24.1595 204.603 23.9095 203.624 23.9095C202.624 23.9095 201.728 24.1595 200.936 24.6594C200.165 25.1594 199.561 25.8573 199.124 26.7531C198.686 27.6488 198.468 28.6592 198.468 29.7841C198.468 30.9091 198.686 31.9194 199.124 32.8152C199.561 33.711 200.165 34.4089 200.936 34.9088C201.728 35.4088 202.624 35.6588 203.624 35.6588Z" fill="#FF4D5A"/>
<rect x="84.01" y="45.1677" width="289.368" height="14.9351" rx="7.46755" stroke="url(#paint0_linear_104_83)" stroke-width="1.24459"/>
<rect x="83.3877" y="45.168" width="106.413" height="14.9351" rx="7.46755" fill="url(#paint1_linear_104_83)"/>
<defs>
<linearGradient id="paint0_linear_104_83" x1="228.694" y1="44.5454" x2="14.0017" y2="44.5454" gradientUnits="userSpaceOnUse">
<stop stop-color="#08213F"/>
<stop offset="1" stop-color="#FF4D5A"/>
</linearGradient>
<linearGradient id="paint1_linear_104_83" x1="189.8" y1="60.1031" x2="70.7901" y2="60.1031" gradientUnits="userSpaceOnUse">
<stop stop-color="#0A294E"/>
<stop offset="1" stop-color="#FF4D5A"/>
</linearGradient>
</defs>
</svg>
