<svg width="118" height="342" viewBox="0 0 118 342" fill="none" xmlns="http://www.w3.org/2000/svg">
<path d="M59.4421 79.9682C52.7036 79.9682 47.2371 85.4271 47.2371 92.1732C47.2371 98.9117 52.7036 104.378 59.4421 104.378C66.1805 104.378 71.6471 98.9117 71.6471 92.1732C71.6471 85.4271 66.1805 79.9682 59.4421 79.9682ZM59.4421 100.373C54.9144 100.373 51.2423 96.7009 51.2423 92.1732C51.2423 87.6455 54.9144 83.9734 59.4421 83.9734C63.9697 83.9734 67.6418 87.6455 67.6418 92.1732C67.6418 96.7009 63.9697 100.373 59.4421 100.373Z" fill="white"/>
<path d="M59.4421 79.9682C52.7036 79.9682 47.2371 85.4271 47.2371 92.1732C47.2371 98.9117 52.7036 104.378 59.4421 104.378C66.1805 104.378 71.6471 98.9117 71.6471 92.1732C71.6471 85.4271 66.1805 79.9682 59.4421 79.9682ZM59.4421 100.373C54.9144 100.373 51.2423 96.7009 51.2423 92.1732C51.2423 87.6455 54.9144 83.9734 59.4421 83.9734C63.9697 83.9734 67.6418 87.6455 67.6418 92.1732C67.6418 96.7009 63.9697 100.373 59.4421 100.373Z" fill="white"/>
<path d="M79.4376 116.735C84.8359 96.5423 81.9134 76.2284 70.3747 55.7782C78.3851 52.2576 84.6769 45.5948 86.4713 38.1067C91.1656 37.8417 95.9431 37.6222 99.0625 36.5698C99.9786 36.2593 100.827 35.7596 101.47 35.0403C105.756 30.225 94.4288 26.2273 87.6752 25.2279C82.5797 -6.37486 41.2477 -6.22344 33.6083 17.437C27.7632 16.9146 22.4708 17.0433 18.4807 18.6787C17.5797 19.0497 16.762 19.6402 16.2169 20.4504C13.6351 24.2891 19.1546 27.575 30.3147 30.4673C31.6094 43.0887 37.1744 51.72 48.2815 55.1801C36.6065 75.8498 35.0771 96.1637 38.9991 117.182C-12.9025 143.401 -6.08826 182.121 21.0247 225.157C25.4994 231.547 29.2017 238.081 30.3147 245.077C31.6019 256.85 34.85 266.33 42.497 270.638C33.7067 276.929 36.5838 282.199 41.596 285.712C38.6886 290.626 38.4993 295.684 43.0951 300.991C38.2419 307.101 38.4236 311.689 43.7614 314.718C45.7073 315.823 47.8954 316.444 50.1289 316.641C60.9484 317.618 62.1901 327.816 61.5616 339.802V339.885C61.5616 340.786 62.2961 341.528 63.2046 341.528C64.363 341.528 65.3322 340.65 65.4533 339.499C67.2326 322.819 62.0159 313.242 48.5844 312.023C41.437 310.016 43.1557 306.874 45.5861 303.633C53.6193 308.585 75.3945 310.811 82.4434 303.164C83.9425 301.544 83.7229 298.939 81.9588 297.614C73.5849 291.315 50.6362 294.457 46.3357 299.295C42.9059 296.024 42.338 292.337 44.6927 288.211C55.709 293.011 79.748 295.063 84.1469 287.915C84.8662 286.749 84.7224 285.273 83.8819 284.19C77.3176 275.695 50.0456 277.641 44.3898 283.721C39.8546 280.571 40.8843 276.967 46.0858 273.038C59.9565 277.437 79.6344 280.087 85.9111 273.295C87.077 272.038 86.9483 270.07 85.6763 268.919C76.992 261.06 57.723 263.876 46.2903 268.245C41.6036 265.663 38.9915 261.681 36.8791 257.35C36.2507 256.063 35.8721 254.67 35.7282 253.239C34.161 237.831 28.5582 228.359 22.5238 219.516C-6.02769 178.381 -1.03818 140.441 39.5972 121.225L44.988 160.46C35.1301 165.691 28.7247 171.34 30.61 177.987C31.2611 188.496 32.624 198.399 34.956 207.485L43.4889 206.887L42.5424 187.709C42.4894 186.641 43.3147 185.733 44.3823 185.68L46.6082 185.574C47.8121 185.521 48.8645 186.384 49.0311 187.58C51.628 205.706 54.3007 222.741 57.4201 233.25C59.4871 241.957 62.5383 249.938 68.126 256.033C70.6472 258.788 74.0998 260.53 77.8324 260.704C86.1836 261.098 90.1434 254.73 93.3158 247.136C93.8761 245.788 94.3228 244.388 94.6332 242.957C96.6094 234.023 100.615 224.119 105.778 213.671C105.983 213.247 106.225 212.83 106.475 212.422C130.181 174.489 113.993 127.903 79.4376 116.735ZM87.819 28.6199C92.112 29.2256 95.4888 30.5505 97.9571 32.5948C98.2826 32.8674 98.2145 33.3974 97.8132 33.5412C94.4818 34.7602 91.1504 35.0176 87.819 34.3135V28.6199ZM30.61 26.8254C26.4382 26.0759 23.069 24.8948 20.525 23.2593C19.9496 22.8884 20.0783 22.0101 20.7218 21.7981C24.0835 20.7154 27.801 20.2762 32.0107 20.7305L30.61 26.8254ZM52.423 301.006C60.3351 298.205 68.7014 297.228 77.893 299.598C78.5214 299.757 78.6729 300.59 78.1353 300.938C73.4562 303.921 62.6368 304.981 52.4685 302.248C51.8552 302.081 51.8173 301.218 52.423 301.006ZM67.1039 282.949C84.9646 283.842 83.5337 289.134 66.8389 288.408C61.5238 288.18 56.2011 287.143 50.8785 285.917L48.9856 285.114C55.3683 283.38 61.4329 282.661 67.1039 282.949ZM79.3391 272.296C70.1021 274.287 61.1074 272.841 52.1808 270.441C75.2885 264.452 85.5249 270.691 79.3391 272.296ZM84.3287 23.6909C71.3817 20.6397 54.7247 18.7544 37.2047 17.1417C46.4871 -1.52921 77.2419 -1.52921 84.3287 23.6909ZM35.2058 20.5564C52.7562 21.7148 69.7841 23.3956 84.3287 27.522V34.6996C64.681 33.9652 47.5774 31.8755 34.5093 27.628C34.2821 25.7882 34.6304 23.3048 35.2058 20.5564ZM34.4335 31.2168C49.3718 35.1918 64.9915 38.1597 82.928 37.7055C80.0508 43.8761 76.9996 49.9483 68.1563 52.5831C66.5209 49.441 64.2116 46.3292 61.1755 43.2477C60.1458 42.1953 58.465 42.1877 57.3747 43.172C54.4824 45.7916 52.0672 48.9337 50.0835 52.5831C38.8779 47.1848 35.1982 39.621 34.4335 31.2168ZM58.9571 46.9425C64.9309 54.6123 69.9204 62.4183 73.1458 70.4591H45.7375C48.4859 62.9407 53.0515 55.0665 58.9571 46.9425ZM43.6403 120.029C40.5285 104.795 39.5669 89.6751 43.6403 74.7974H74.3421C77.9309 88.0776 78.5366 101.456 75.6898 117.485L70.1475 158.817H49.0311L43.6403 120.029ZM47.2367 163.011H70.1475L78.5366 168.553H40.0439L47.2367 163.011ZM52.5366 184.711C52.3625 183.295 51.2646 182.167 49.8564 181.947C48.0544 181.674 46.4341 181.599 44.9653 181.682C41.7626 181.856 39.1429 184.324 38.7946 187.512C38.5448 189.806 38.7113 192.721 39.2262 196.136L39.7713 203.132C39.8016 203.465 39.5442 203.745 39.2111 203.745C38.9082 203.745 38.6432 203.54 38.5599 203.253C35.9554 194.182 34.3124 185.339 34.6152 176.957C34.6985 174.52 36.7201 172.596 39.1581 172.596H81.3531C82.5721 172.596 83.6397 173.46 83.8365 174.663C84.9192 181.266 82.4434 192.047 79.8464 202.965C79.8161 203.079 79.6571 203.056 79.6571 202.95L79.5814 188.542C79.8464 184.521 77.8779 182.454 74.1149 181.955L67.4976 181.894C66.748 181.886 66.1044 182.439 66.006 183.189L63.2576 203.745H54.8761L52.5366 184.711ZM56.2238 207.788H62.5081L59.366 222.915L56.2238 207.788ZM108.504 199.997L100.403 217.07C96.7456 223.324 93.225 231.138 90.1662 244.426C89.9769 245.251 89.7119 246.061 89.3636 246.841C84.5558 257.683 75.4929 263.649 66.642 247.174L61.7661 232.047L70.1475 185.922L72.9338 185.839C74.1073 185.801 75.0613 186.755 75.0311 187.928L74.5692 204.585C74.5313 206.168 75.8109 207.47 77.4009 207.44L81.921 207.372C83.0794 207.349 84.0409 206.493 84.1924 205.35L88.4172 173.944C87.5995 168.606 80.543 164.593 74.0468 160.46L79.1347 120.922C102.666 127.774 123.533 162.178 109.034 198.786C108.875 199.195 108.693 199.596 108.504 199.997Z" fill="white"/>
<path fill-rule="evenodd" clip-rule="evenodd" d="M53.529 144.794C54.1562 144.794 54.6647 145.302 54.6647 145.93V155.818C54.6647 156.445 54.1562 156.954 53.529 156.954C52.9018 156.954 52.3933 156.445 52.3933 155.818V145.93C52.3933 145.302 52.9018 144.794 53.529 144.794Z" fill="white"/>
<path fill-rule="evenodd" clip-rule="evenodd" d="M59.3361 144.794C59.9634 144.794 60.4718 145.302 60.4718 145.93V155.818C60.4718 156.445 59.9634 156.954 59.3361 156.954C58.7089 156.954 58.2004 156.445 58.2004 155.818V145.93C58.2004 145.302 58.7089 144.794 59.3361 144.794Z" fill="white"/>
<path fill-rule="evenodd" clip-rule="evenodd" d="M65.2114 144.794C65.8386 144.794 66.3471 145.302 66.3471 145.93V155.818C66.3471 156.445 65.8386 156.954 65.2114 156.954C64.5842 156.954 64.0757 156.445 64.0757 155.818V145.93C64.0757 145.302 64.5842 144.794 65.2114 144.794Z" fill="white"/>
<path d="M59.4421 79.9682C52.7036 79.9682 47.2371 85.4271 47.2371 92.1732C47.2371 98.9117 52.7036 104.378 59.4421 104.378C66.1805 104.378 71.6471 98.9117 71.6471 92.1732C71.6471 85.4271 66.1805 79.9682 59.4421 79.9682ZM59.4421 100.373C54.9144 100.373 51.2423 96.7009 51.2423 92.1732C51.2423 87.6455 54.9144 83.9734 59.4421 83.9734C63.9697 83.9734 67.6418 87.6455 67.6418 92.1732C67.6418 96.7009 63.9697 100.373 59.4421 100.373Z" fill="white"/>
<path fill-rule="evenodd" clip-rule="evenodd" d="M59.6382 8.10567C59.7068 7.4822 60.2678 7.03235 60.8913 7.1009C64.706 7.52032 68.305 8.98738 71.1547 10.6982C73.9707 12.3888 76.2018 14.4071 77.162 16.0443C77.4793 16.5853 77.298 17.2812 76.7569 17.5985C76.2159 17.9158 75.5201 17.7344 75.2027 17.1934C74.52 16.0292 72.6588 14.2505 69.9856 12.6456C67.3461 11.061 64.0589 9.73426 60.643 9.35869C60.0196 9.29014 59.5697 8.72915 59.6382 8.10567Z" fill="white"/>
</svg>
