<svg width="366" height="63" viewBox="0 0 366 63" fill="none" xmlns="http://www.w3.org/2000/svg">
<path d="M223.714 21.818H219.325C218.293 21.818 217.492 22.0675 216.925 22.5666C216.374 23.0484 216.098 23.7454 216.098 24.6575H215.324V22.7214C215.324 21.3447 216.055 20.6564 217.518 20.6564H226.837V21.818L220.384 37.6934H217.26L223.714 21.818ZM233.824 38.2096C232.481 38.2096 231.354 37.9773 230.442 37.5127C229.547 37.048 228.712 36.351 227.938 35.4218L228.687 34.7506C229.306 35.525 230.02 36.1015 230.829 36.4801C231.638 36.8587 232.438 37.048 233.23 37.048C234.297 37.048 235.157 36.7038 235.811 36.0155C236.465 35.3099 236.792 34.2343 236.792 32.7888C236.792 31.4637 236.439 30.4741 235.734 29.8202C235.028 29.149 234.021 28.8135 232.714 28.8135C231.905 28.8135 230.829 29.0114 229.487 29.4072L228.454 28.4004L228.738 20.6564H238.78V21.7922H231.733L231.5 27.7551L232.275 27.7035C233.152 27.6518 233.643 27.626 233.746 27.626C234.796 27.626 235.82 27.7895 236.818 28.1165C237.833 28.4263 238.685 28.9683 239.374 29.7428C240.062 30.5172 240.406 31.5325 240.406 32.7888C240.406 34.1311 240.053 35.2066 239.348 36.0155C238.642 36.8243 237.782 37.3922 236.766 37.7192C235.768 38.0461 234.787 38.2096 233.824 38.2096ZM245.979 27.6518C244.689 27.6518 243.673 27.3421 242.933 26.7226C242.21 26.103 241.849 25.2254 241.849 24.0896C241.849 22.9538 242.21 22.0761 242.933 21.4566C243.673 20.837 244.689 20.5273 245.979 20.5273C247.235 20.5273 248.225 20.8457 248.948 21.4824C249.688 22.1019 250.058 22.971 250.058 24.0896C250.058 25.2082 249.688 26.0858 248.948 26.7226C248.225 27.3421 247.235 27.6518 245.979 27.6518ZM255.711 20.6564H258.447L245.953 37.6934H243.217L255.711 20.6564ZM245.953 26.6193C246.625 26.6193 247.132 26.4042 247.476 25.974C247.821 25.5437 247.993 24.9156 247.993 24.0896C247.993 23.2635 247.812 22.6354 247.451 22.2052C247.106 21.7749 246.599 21.5598 245.928 21.5598C245.274 21.5598 244.775 21.7749 244.43 22.2052C244.086 22.6354 243.914 23.2635 243.914 24.0896C243.914 24.9156 244.086 25.5437 244.43 25.974C244.775 26.4042 245.282 26.6193 245.953 26.6193ZM255.737 37.8224C254.446 37.8224 253.431 37.5127 252.691 36.8931C251.968 36.2736 251.607 35.3959 251.607 34.2601C251.607 33.1243 251.968 32.2467 252.691 31.6272C253.431 31.0076 254.446 30.6979 255.737 30.6979C256.993 30.6979 257.983 31.0162 258.705 31.653C259.445 32.2725 259.815 33.1416 259.815 34.2601C259.815 35.3787 259.445 36.2564 258.705 36.8931C257.983 37.5127 256.993 37.8224 255.737 37.8224ZM255.711 36.7899C256.382 36.7899 256.89 36.5748 257.234 36.1445C257.578 35.7143 257.75 35.0862 257.75 34.2601C257.75 33.4341 257.57 32.806 257.208 32.3757C256.864 31.9455 256.356 31.7304 255.685 31.7304C255.031 31.7304 254.532 31.9455 254.188 32.3757C253.844 32.806 253.672 33.4341 253.672 34.2601C253.672 35.0862 253.844 35.7143 254.188 36.1445C254.532 36.5748 255.04 36.7899 255.711 36.7899Z" fill="#08213F"/>
<path d="M3.90586 4.39756V59.0796H58.5879V4.39756H3.90586ZM0 0.491699H62.4938V62.9855H0V0.491699Z" fill="#F47301"/>
<mask id="mask0_104_45" style="mask-type:alpha" maskUnits="userSpaceOnUse" x="13" y="16" width="35" height="30">
<path d="M34.1958 45.4092C33.8312 44.3416 33.4537 43.287 33.0631 42.2455C32.6725 41.2039 32.2949 40.1363 31.9304 39.0427H20.5253C20.1607 40.1363 19.7897 41.2104 19.4121 42.265C19.0345 43.3196 18.6635 44.3676 18.2989 45.4092H13.1823C14.1978 42.5189 15.1612 39.8499 16.0726 37.4022C16.984 34.9545 17.8758 32.637 18.7481 30.4498C19.6204 28.2625 20.4862 26.1794 21.3455 24.2004C22.2048 22.2214 23.0901 20.2685 24.0015 18.3416H28.6495C29.5608 20.2685 30.4462 22.2214 31.3055 24.2004C32.1647 26.1794 33.0305 28.2625 33.9029 30.4498C34.7752 32.637 35.6735 34.9545 36.5979 37.4022C37.5223 39.8499 38.4922 42.5189 39.5078 45.4092H34.1958ZM26.2278 23.5754C25.6289 24.9555 24.9454 26.635 24.1773 28.614C23.4091 30.593 22.6084 32.7412 21.7751 35.0587H30.6805C29.8473 32.7412 29.0401 30.58 28.2589 28.5749C27.4777 26.5699 26.8007 24.9034 26.2278 23.5754ZM46.4993 45.4092H41.7732V24.9815H46.4993V45.4092ZM47.007 19.0056C47.007 19.8909 46.7206 20.594 46.1477 21.1147C45.5749 21.6355 44.8979 21.8959 44.1167 21.8959C43.3095 21.8959 42.6194 21.6355 42.0466 21.1147C41.4737 20.594 41.1873 19.8909 41.1873 19.0056C41.1873 18.0942 41.4737 17.3781 42.0466 16.8573C42.6194 16.3366 43.3095 16.0762 44.1167 16.0762C44.8979 16.0762 45.5749 16.3366 46.1477 16.8573C46.7206 17.3781 47.007 18.0942 47.007 19.0056Z" fill="white"/>
</mask>
<g mask="url(#mask0_104_45)">
<path d="M34.1958 45.4092C33.8312 44.3416 33.4537 43.287 33.0631 42.2455C32.6725 41.2039 32.2949 40.1363 31.9304 39.0427H20.5253C20.1607 40.1363 19.7897 41.2104 19.4121 42.265C19.0345 43.3196 18.6635 44.3676 18.2989 45.4092H13.1823C14.1978 42.5189 15.1612 39.8499 16.0726 37.4022C16.984 34.9545 17.8758 32.637 18.7481 30.4498C19.6204 28.2625 20.4862 26.1794 21.3455 24.2004C22.2048 22.2214 23.0901 20.2685 24.0015 18.3416H28.6495C29.5608 20.2685 30.4462 22.2214 31.3055 24.2004C32.1647 26.1794 33.0305 28.2625 33.9029 30.4498C34.7752 32.637 35.6735 34.9545 36.5979 37.4022C37.5223 39.8499 38.4922 42.5189 39.5078 45.4092H34.1958ZM26.2278 23.5754C25.6289 24.9555 24.9454 26.635 24.1773 28.614C23.4091 30.593 22.6084 32.7412 21.7751 35.0587H30.6805C29.8473 32.7412 29.0401 30.58 28.2589 28.5749C27.4777 26.5699 26.8007 24.9034 26.2278 23.5754ZM46.4993 45.4092H41.7732V24.9815H46.4993V45.4092ZM47.007 19.0056C47.007 19.8909 46.7206 20.594 46.1477 21.1147C45.5749 21.6355 44.8979 21.8959 44.1167 21.8959C43.3095 21.8959 42.6194 21.6355 42.0466 21.1147C41.4737 20.594 41.1873 19.8909 41.1873 19.0056C41.1873 18.0942 41.4737 17.3781 42.0466 16.8573C42.6194 16.3366 43.3095 16.0762 44.1167 16.0762C44.8979 16.0762 45.5749 16.3366 46.1477 16.8573C46.7206 17.3781 47.007 18.0942 47.007 19.0056Z" fill="white"/>
<path d="M62.4938 0.491699H0V62.9855H62.4938V0.491699Z" fill="#F47301"/>
</g>
<path d="M77.0165 36.603V34.5407H79.0789V17.3542H77.0165V15.2918H83.4849V17.3542H81.4225V34.5407H83.4849V36.603H77.0165ZM87.3403 36.603V13.9169H89.4652V36.603H87.3403ZM106.374 21.9789V36.603H104.249V34.1657C103.749 35.1031 103.083 35.8322 102.25 36.353C101.437 36.853 100.489 37.103 99.406 37.103C98.3852 37.103 97.4374 36.8947 96.5624 36.478C95.7083 36.0614 95.0209 35.4468 94.5001 34.6344C94.0001 33.8219 93.7501 32.8637 93.7501 31.7596V21.9789H95.875V30.8221C95.875 33.7178 97.1666 35.1656 99.7497 35.1656C101.25 35.1656 102.375 34.6344 103.125 33.572C103.874 32.5095 104.249 31.0825 104.249 29.291V21.9789H106.374ZM115.471 37.103C114.054 37.103 112.804 36.8009 111.721 36.1968C110.659 35.5927 109.846 34.7386 109.284 33.6345L111.19 32.697C111.961 34.3427 113.471 35.1656 115.721 35.1656C116.804 35.1656 117.7 34.9677 118.408 34.5719C119.117 34.1761 119.471 33.5615 119.471 32.7283C119.471 31.8741 119.179 31.2388 118.596 30.8221C118.033 30.4055 117.033 30.1347 115.596 30.0097C113.596 29.843 112.159 29.3951 111.284 28.666C110.43 27.9369 110.003 26.9682 110.003 25.7599C110.003 24.4059 110.492 23.3538 111.471 22.6039C112.45 21.8539 113.794 21.4789 115.502 21.4789C118.398 21.4789 120.366 22.6247 121.408 24.9162L119.502 25.8537C119.148 25.0204 118.627 24.4059 117.94 24.01C117.273 23.6142 116.408 23.4163 115.346 23.4163C114.263 23.4163 113.429 23.6142 112.846 24.01C112.284 24.4059 112.002 24.9683 112.002 25.6974C112.002 26.3849 112.304 26.9474 112.909 27.3848C113.534 27.8015 114.596 28.0723 116.096 28.1973C117.95 28.3639 119.325 28.8222 120.221 29.5722C121.137 30.3013 121.596 31.27 121.596 32.4783C121.596 33.4574 121.314 34.3011 120.752 35.0094C120.189 35.6968 119.439 36.2176 118.502 36.5718C117.565 36.9259 116.554 37.103 115.471 37.103ZM125.591 36.603V23.9163H123.091V21.9789H125.591V17.1355H127.716V21.9789H131.091V23.9163H127.716V36.603H125.591ZM140.602 21.4789C141.102 21.4789 141.582 21.5519 142.04 21.6977V23.6351C141.602 23.4267 141.123 23.3226 140.602 23.3226C139.707 23.3226 138.873 23.5726 138.103 24.0725C137.332 24.5725 136.707 25.3016 136.228 26.2599C135.769 27.1973 135.54 28.3119 135.54 29.6035V36.603H133.415V21.9789H135.54V24.9162C136.103 23.833 136.811 22.9893 137.665 22.3851C138.54 21.781 139.519 21.4789 140.602 21.4789ZM157.597 21.9789V36.603H155.472V34.4469C154.868 35.2802 154.129 35.9364 153.254 36.4155C152.379 36.8738 151.421 37.103 150.379 37.103C148.983 37.103 147.733 36.7697 146.629 36.1031C145.525 35.4364 144.661 34.5094 144.036 33.322C143.411 32.1345 143.098 30.7805 143.098 29.2597C143.098 27.7598 143.4 26.4266 144.004 25.26C144.629 24.0725 145.483 23.1455 146.567 22.4789C147.671 21.8123 148.921 21.4789 150.316 21.4789C151.379 21.4789 152.348 21.7185 153.223 22.1977C154.118 22.656 154.868 23.3122 155.472 24.1663V21.9789H157.597ZM150.316 35.1656C151.316 35.1656 152.202 34.9156 152.973 34.4157C153.764 33.9157 154.379 33.2178 154.816 32.322C155.254 31.4263 155.472 30.4159 155.472 29.291C155.472 28.166 155.254 27.1557 154.816 26.2599C154.379 25.3641 153.764 24.6663 152.973 24.1663C152.202 23.6663 151.316 23.4163 150.316 23.4163C149.337 23.4163 148.462 23.6663 147.692 24.1663C146.921 24.6663 146.317 25.3641 145.879 26.2599C145.442 27.1349 145.223 28.1348 145.223 29.2597C145.223 30.4055 145.442 31.4263 145.879 32.322C146.317 33.2178 146.921 33.9157 147.692 34.4157C148.462 34.9156 149.337 35.1656 150.316 35.1656ZM162.677 36.603V21.9789H164.801V36.603H162.677ZM163.739 19.1353C163.26 19.1353 162.854 18.9687 162.52 18.6354C162.208 18.3021 162.052 17.8958 162.052 17.4167C162.052 16.9584 162.208 16.573 162.52 16.2605C162.854 15.9272 163.26 15.7605 163.739 15.7605C164.197 15.7605 164.593 15.9272 164.926 16.2605C165.26 16.573 165.426 16.9688 165.426 17.4479C165.426 17.9062 165.26 18.3021 164.926 18.6354C164.593 18.9687 164.197 19.1353 163.739 19.1353ZM170.663 36.603V23.9163H168.163V21.9789H170.663V17.1355H172.788V21.9789H176.163V23.9163H172.788V36.603H170.663ZM184.862 37.103C183.466 37.103 182.216 36.7697 181.112 36.1031C180.008 35.4364 179.143 34.5094 178.518 33.322C177.893 32.1137 177.581 30.7596 177.581 29.2597C177.581 27.7598 177.883 26.4266 178.487 25.26C179.112 24.0725 179.966 23.1455 181.049 22.4789C182.154 21.8123 183.404 21.4789 184.799 21.4789C186.195 21.4789 187.445 21.8123 188.549 22.4789C189.653 23.1455 190.518 24.0725 191.143 25.26C191.768 26.4474 192.08 27.7911 192.08 29.291C192.08 30.7909 191.768 32.1345 191.143 33.322C190.538 34.5094 189.684 35.4364 188.58 36.1031C187.497 36.7697 186.258 37.103 184.862 37.103ZM184.799 35.1656C185.799 35.1656 186.685 34.9156 187.455 34.4157C188.247 33.9157 188.862 33.2178 189.299 32.322C189.736 31.4263 189.955 30.4159 189.955 29.291C189.955 28.166 189.736 27.1557 189.299 26.2599C188.862 25.3641 188.247 24.6663 187.455 24.1663C186.685 23.6663 185.799 23.4163 184.799 23.4163C183.82 23.4163 182.945 23.6663 182.174 24.1663C181.404 24.6663 180.799 25.3641 180.362 26.2599C179.925 27.1349 179.706 28.1348 179.706 29.2597C179.706 30.4055 179.925 31.4263 180.362 32.322C180.799 33.2178 181.404 33.9157 182.174 34.4157C182.945 34.9156 183.82 35.1656 184.799 35.1656ZM202.275 21.4789C202.775 21.4789 203.254 21.5519 203.712 21.6977V23.6351C203.275 23.4267 202.796 23.3226 202.275 23.3226C201.379 23.3226 200.546 23.5726 199.775 24.0725C199.004 24.5725 198.379 25.3016 197.9 26.2599C197.442 27.1973 197.213 28.3119 197.213 29.6035V36.603H195.088V21.9789H197.213V24.9162C197.775 23.833 198.483 22.9893 199.337 22.3851C200.212 21.781 201.191 21.4789 202.275 21.4789Z" fill="#FF4D5A"/>
<rect x="75.9201" y="44.6745" width="289.368" height="14.9351" rx="7.46755" stroke="url(#paint0_linear_104_45)" stroke-width="1.24459"/>
<rect x="75.2979" y="44.6748" width="220.293" height="14.9351" rx="7.46755" fill="url(#paint1_linear_104_45)"/>
<defs>
<linearGradient id="paint0_linear_104_45" x1="220.604" y1="44.0522" x2="5.91182" y2="44.0522" gradientUnits="userSpaceOnUse">
<stop stop-color="#08213F"/>
<stop offset="1" stop-color="#FF4D5A"/>
</linearGradient>
<linearGradient id="paint1_linear_104_45" x1="295.591" y1="59.6099" x2="49.2186" y2="59.6099" gradientUnits="userSpaceOnUse">
<stop stop-color="#0A294E"/>
<stop offset="1" stop-color="#FF4D5A"/>
</linearGradient>
</defs>
</svg>
