<svg width="374" height="58" viewBox="0 0 374 58" fill="none" xmlns="http://www.w3.org/2000/svg">
<path d="M59.6615 32.7525C57.2383 32.7662 55.14 33.3539 53.3801 34.2286C52.7304 32.9302 52.0806 31.7958 51.9723 30.9485C51.8504 29.9644 51.7015 29.3631 51.8504 28.1877C51.9993 27.0123 52.6762 25.3449 52.6762 25.2083C52.6627 25.0853 52.5273 24.4839 51.1329 24.4702C49.7386 24.4566 48.5338 24.7436 48.3984 25.1126C48.263 25.4816 47.9923 26.329 47.8163 27.2037C47.5726 28.4884 45.0276 33.0395 43.5791 35.4313C43.1053 34.5019 42.6991 33.6819 42.6179 33.0259C42.4961 32.0418 42.3472 31.4405 42.4961 30.2651C42.645 29.0897 43.3219 27.4223 43.3219 27.2857C43.3083 27.1627 43.1729 26.5613 41.7786 26.5476C40.3842 26.534 39.1794 26.821 39.044 27.19C38.9087 27.559 38.7597 28.4337 38.4619 29.2811C38.1776 30.1284 34.7933 37.7274 33.9133 39.7091C33.4666 40.7205 33.074 41.5268 32.7897 42.0735C32.5055 42.6202 32.7762 42.1145 32.7491 42.1692C32.5055 42.6338 32.3701 42.8935 32.3701 42.8935V42.9072C32.1806 43.2489 31.9775 43.5769 31.8827 43.5769C31.815 43.5769 31.6797 42.6612 31.9098 41.4038C32.4107 38.7661 33.6291 34.6523 33.6155 34.5019C33.6155 34.4336 33.8457 33.7092 32.8304 33.3402C31.8421 32.9712 31.4901 33.5862 31.4089 33.5862C31.3277 33.5862 31.26 33.8049 31.26 33.8049C31.26 33.8049 32.3565 29.1717 29.1617 29.1717C27.1582 29.1717 24.3965 31.3721 23.0293 33.3812C22.1629 33.8596 20.3218 34.8709 18.3724 35.9506C17.6278 36.3606 16.8562 36.798 16.1252 37.1943L15.9763 37.0303C12.1046 32.8619 4.94328 29.9098 5.2411 24.3062C5.3494 22.2698 6.05334 16.8987 18.9951 10.3931C29.5949 5.06294 38.0829 6.52532 39.5584 9.77809C41.6567 14.4249 35.0234 23.0625 24.004 24.3062C19.8074 24.7846 17.6008 23.1445 17.0457 22.5295C16.4636 21.8872 16.3824 21.8598 16.1658 21.9828C15.8138 22.1742 16.0304 22.7482 16.1658 23.0899C16.4907 23.9509 17.8444 25.4816 20.1458 26.247C22.1629 26.9167 27.0905 27.2857 33.0469 24.9623C39.7209 22.3518 44.9328 15.1083 43.4031 9.05374C41.8463 2.88987 31.7203 0.867134 22.1493 4.29758C16.4501 6.34765 10.277 9.54575 5.83675 13.7416C0.557155 18.7164 -0.282165 23.0625 0.0698077 24.8666C1.30171 31.3038 10.0875 35.4996 13.6072 38.602C13.4312 38.6977 13.2688 38.7934 13.1199 38.8754C11.36 39.7501 4.65899 43.2899 2.98035 47.0347C1.08511 51.2715 3.27818 54.3192 4.74022 54.7292C9.26171 56.0003 13.8915 53.7179 16.3959 49.9594C18.8868 46.201 18.589 41.3218 17.4383 39.0941L17.3977 39.0121L18.7785 38.192C19.672 37.659 20.5519 37.167 21.3235 36.7433C20.8904 37.9324 20.579 39.3401 20.4165 41.3901C20.227 43.7956 21.2017 46.9117 22.4878 48.1417C23.0563 48.6747 23.7332 48.6884 24.1529 48.6884C25.642 48.6884 26.3189 47.4447 27.0634 45.955C27.984 44.1372 28.7962 42.0325 28.7962 42.0325C28.7962 42.0325 27.7809 47.7317 30.5561 47.7317C31.5714 47.7317 32.5867 46.406 33.0469 45.7226V45.7363C33.0469 45.7363 33.074 45.6953 33.1282 45.5996C33.2365 45.4356 33.2906 45.3399 33.2906 45.3399V45.3126C33.6967 44.6019 34.6038 42.9755 35.9575 40.2831C37.7038 36.8117 39.3825 32.4655 39.3825 32.4655C39.3825 32.4655 39.5449 33.5315 40.0458 35.2809C40.3436 36.3196 40.9934 37.454 41.4943 38.561C41.0882 39.1351 40.8445 39.4631 40.8445 39.4631L40.858 39.4767C40.5331 39.9141 40.1676 40.3788 39.7886 40.8435C38.4078 42.5108 36.7562 44.4106 36.5396 44.9573C36.2824 45.5996 36.3365 46.078 36.8374 46.4606C37.2029 46.734 37.8527 46.7887 38.5431 46.734C39.7886 46.652 40.655 46.3376 41.0882 46.1463C41.765 45.9003 42.5367 45.5313 43.2812 44.9846C44.635 43.9732 45.4608 42.5382 45.3795 40.6248C45.3389 39.5724 45.0005 38.5337 44.5808 37.5497C44.7027 37.372 44.8245 37.1943 44.9463 37.003C47.0853 33.8459 48.7368 30.3744 48.7368 30.3744C48.7368 30.3744 48.8993 31.4405 49.4001 33.1899C49.6574 34.0782 50.1718 35.0486 50.6321 36.0053C48.6285 37.659 47.3695 39.5724 46.9363 40.8298C46.1376 43.1532 46.7604 44.2056 47.9381 44.4516C48.4661 44.5609 49.2242 44.3149 49.7927 44.0689C50.4967 43.8366 51.3495 43.4402 52.1347 42.8525C53.4884 41.8412 54.788 40.4334 54.7204 38.5337C54.6797 37.659 54.4496 36.798 54.1382 35.978C55.844 35.2673 58.0506 34.8573 60.8528 35.1989C66.877 35.9096 68.0682 39.7091 67.8381 41.2945C67.608 42.8799 66.349 43.7545 65.9293 44.0279C65.5097 44.2876 65.3743 44.3832 65.4149 44.5746C65.4691 44.8616 65.6586 44.8479 66.0241 44.7933C66.525 44.7112 69.1918 43.4949 69.3001 40.5701C69.4626 36.8117 65.9293 32.7115 59.6615 32.7525ZM13.2011 48.5654C11.2111 50.7658 8.40886 51.5995 7.21756 50.8888C5.93151 50.1371 6.43239 46.898 8.88266 44.5609C10.3718 43.1395 12.3076 41.8275 13.5801 41.0211C13.8644 40.8435 14.2976 40.5838 14.8121 40.2694C14.8933 40.2148 14.9474 40.1874 14.9474 40.1874C15.0422 40.1328 15.1505 40.0644 15.2588 39.9961C16.1658 43.3309 15.2994 46.2556 13.2011 48.5654ZM27.7538 38.5747C27.0634 40.2831 25.6014 44.6702 24.7214 44.4242C23.9633 44.2192 23.5031 40.8981 24.5725 37.618C25.114 35.9643 26.2647 33.9962 26.9416 33.2309C28.0381 32.0008 29.2294 31.5908 29.5272 32.0965C29.8792 32.7525 28.187 37.5087 27.7538 38.5747ZM39.7615 44.3696C39.4637 44.5199 39.1929 44.6292 39.0711 44.5472C38.9763 44.4926 39.1929 44.2876 39.1929 44.2876C39.1929 44.2876 40.6956 42.6612 41.2912 41.9095C41.6297 41.4721 42.0358 40.9665 42.469 40.3924V40.5564C42.469 42.5245 40.6008 43.8366 39.7615 44.3696ZM49.0211 42.2375C48.8045 42.0735 48.8316 41.5678 49.5626 39.9824C49.8469 39.3537 50.4967 38.3014 51.6203 37.3037C51.7557 37.7137 51.8369 38.11 51.8233 38.479C51.8098 40.9391 50.077 41.8548 49.0211 42.2375Z" fill="#CF649A"/>
<path d="M87.672 33.6403C86.1043 33.6403 84.5785 33.2536 83.0945 32.4803C81.6105 31.686 80.3773 30.62 79.3949 29.2823L81.3074 27.5893C82.0599 28.7807 83.0213 29.7317 84.1918 30.4424C85.3623 31.1321 86.6269 31.477 87.9855 31.477C89.4695 31.477 90.5982 31.153 91.3715 30.5051C92.1449 29.8362 92.5316 28.9374 92.5316 27.8088C92.5316 26.5756 92.1135 25.635 91.2775 24.987C90.4623 24.3182 89.156 23.7329 87.3584 23.2313C82.8437 22.1235 80.5863 20.0752 80.5863 17.0862C80.5863 15.226 81.1924 13.7942 82.4047 12.7909C83.617 11.7877 85.2996 11.286 87.4525 11.286C89.0201 11.286 90.4205 11.5786 91.6537 12.1639C92.9078 12.7491 94.026 13.6479 95.0084 14.8602L93.1586 16.4278C92.4062 15.4036 91.5806 14.6512 90.6818 14.1704C89.783 13.6688 88.7066 13.418 87.4525 13.418C86.1357 13.418 85.0592 13.7315 84.2232 14.3586C83.3871 14.9647 82.9691 15.8008 82.9691 16.8668C82.9691 17.9536 83.3558 18.8211 84.1291 19.469C84.9025 20.0961 86.2088 20.629 88.0482 21.068C90.2219 21.6532 91.9045 22.4579 93.0959 23.4821C94.3082 24.5063 94.9144 25.9485 94.9144 27.8088C94.9144 28.9583 94.6217 29.9721 94.0365 30.8499C93.4513 31.7278 92.6047 32.4176 91.4969 32.9192C90.4101 33.3999 89.1351 33.6403 87.672 33.6403ZM111.939 18.4657V33.1387H109.807V30.9754C109.201 31.8114 108.459 32.4698 107.581 32.9506C106.703 33.4104 105.742 33.6403 104.697 33.6403C103.296 33.6403 102.042 33.3059 100.934 32.637C99.8265 31.9682 98.9591 31.0381 98.332 29.8467C97.705 28.6553 97.3915 27.2967 97.3915 25.7708C97.3915 24.2659 97.6945 22.9282 98.3007 21.7577C98.9277 20.5663 99.7847 19.6362 100.872 18.9674C101.979 18.2985 103.233 17.9641 104.634 17.9641C105.7 17.9641 106.672 18.2045 107.55 18.6852C108.448 19.145 109.201 19.8034 109.807 20.6604V18.4657H111.939ZM104.634 31.6965C105.637 31.6965 106.525 31.4456 107.299 30.944C108.093 30.4424 108.71 29.7422 109.149 28.8434C109.588 27.9446 109.807 26.9309 109.807 25.8022C109.807 24.6735 109.588 23.6598 109.149 22.761C108.71 21.8622 108.093 21.162 107.299 20.6604C106.525 20.1588 105.637 19.9079 104.634 19.9079C103.651 19.9079 102.774 20.1588 102 20.6604C101.227 21.162 100.621 21.8622 100.182 22.761C99.7429 23.6389 99.5234 24.6422 99.5234 25.7708C99.5234 26.9204 99.7429 27.9446 100.182 28.8434C100.621 29.7422 101.227 30.4424 102 30.944C102.774 31.4456 103.651 31.6965 104.634 31.6965ZM121.048 33.6403C119.627 33.6403 118.373 33.3372 117.286 32.7311C116.22 32.1249 115.405 31.268 114.841 30.1602L116.753 29.2196C117.526 30.8708 119.042 31.6965 121.299 31.6965C122.386 31.6965 123.285 31.4979 123.995 31.1008C124.706 30.7036 125.061 30.087 125.061 29.251C125.061 28.394 124.769 27.7565 124.184 27.3385C123.619 26.9204 122.616 26.6487 121.174 26.5233C119.167 26.3561 117.725 25.9067 116.847 25.1752C115.99 24.4436 115.562 23.4717 115.562 22.2594C115.562 20.9008 116.053 19.8452 117.035 19.0928C118.018 18.3403 119.366 17.9641 121.08 17.9641C123.985 17.9641 125.96 19.1137 127.005 21.4129L125.093 22.3534C124.737 21.5174 124.215 20.9008 123.525 20.5036C122.856 20.1065 121.989 19.9079 120.923 19.9079C119.836 19.9079 119 20.1065 118.415 20.5036C117.85 20.9008 117.568 21.4651 117.568 22.1967C117.568 22.8864 117.871 23.4508 118.477 23.8897C119.104 24.3077 120.17 24.5795 121.675 24.7049C123.536 24.8721 124.915 25.3319 125.814 26.0844C126.734 26.8159 127.193 27.7879 127.193 29.0002C127.193 29.9825 126.911 30.829 126.347 31.5397C125.783 32.2295 125.03 32.752 124.09 33.1073C123.149 33.4626 122.135 33.6403 121.048 33.6403ZM135.592 33.6403C134.17 33.6403 132.916 33.3372 131.829 32.7311C130.763 32.1249 129.948 31.268 129.384 30.1602L131.296 29.2196C132.07 30.8708 133.585 31.6965 135.843 31.6965C136.929 31.6965 137.828 31.4979 138.539 31.1008C139.249 30.7036 139.605 30.087 139.605 29.251C139.605 28.394 139.312 27.7565 138.727 27.3385C138.163 26.9204 137.159 26.6487 135.717 26.5233C133.711 26.3561 132.268 25.9067 131.39 25.1752C130.534 24.4436 130.105 23.4717 130.105 22.2594C130.105 20.9008 130.596 19.8452 131.579 19.0928C132.561 18.3403 133.909 17.9641 135.623 17.9641C138.528 17.9641 140.504 19.1137 141.549 21.4129L139.636 22.3534C139.281 21.5174 138.758 20.9008 138.069 20.5036C137.4 20.1065 136.532 19.9079 135.466 19.9079C134.379 19.9079 133.543 20.1065 132.958 20.5036C132.394 20.9008 132.112 21.4651 132.112 22.1967C132.112 22.8864 132.415 23.4508 133.021 23.8897C133.648 24.3077 134.714 24.5795 136.219 24.7049C138.079 24.8721 139.459 25.3319 140.357 26.0844C141.277 26.8159 141.737 27.7879 141.737 29.0002C141.737 29.9825 141.455 30.829 140.89 31.5397C140.326 32.2295 139.573 32.752 138.633 33.1073C137.692 33.4626 136.679 33.6403 135.592 33.6403Z" fill="#FF4D5A"/>
<path d="M165.141 33.5243C163.57 33.5243 162.292 33.2912 161.308 32.825C160.341 32.3589 159.46 31.6596 158.666 30.7272L159.391 29.9761C160.099 30.7703 160.85 31.366 161.644 31.7632C162.456 32.1603 163.241 32.3589 164.001 32.3589C165.072 32.3589 165.935 32.0222 166.591 31.3488C167.265 30.6581 167.601 29.6135 167.601 28.2149C167.601 26.8854 167.29 25.8839 166.669 25.2105C166.047 24.5371 165.253 24.2004 164.286 24.2004C163.803 24.2004 163.414 24.2349 163.121 24.304C162.844 24.3558 162.326 24.4853 161.567 24.6925L160.945 23.7083L168.016 17.0779H163.38C162.344 17.0779 161.541 17.3283 160.971 17.829C160.418 18.3125 160.142 19.0118 160.142 19.9269H159.365V17.9844C159.365 16.6031 160.099 15.9125 161.567 15.9125H170.321V17.0779L163.872 23.1385C163.993 23.1212 164.208 23.104 164.519 23.0867C164.847 23.0522 165.184 23.0349 165.529 23.0349C166.41 23.0349 167.282 23.2162 168.145 23.5788C169.026 23.9241 169.76 24.4853 170.347 25.2623C170.934 26.0393 171.227 27.0235 171.227 28.2149C171.227 29.5444 170.882 30.6063 170.191 31.4006C169.501 32.1948 168.689 32.7473 167.757 33.0581C166.842 33.3689 165.97 33.5243 165.141 33.5243ZM179.877 33.5243C175.388 33.5243 173.143 30.5027 173.143 24.4594C173.143 18.4161 175.388 15.3945 179.877 15.3945C184.366 15.3945 186.611 18.4161 186.611 24.4594C186.611 30.5027 184.366 33.5243 179.877 33.5243ZM179.877 32.3589C180.965 32.3589 181.75 31.7286 182.234 30.4682C182.735 29.2077 182.985 27.2048 182.985 24.4594C182.985 21.714 182.735 19.7111 182.234 18.4506C181.75 17.1902 180.965 16.5599 179.877 16.5599C178.789 16.5599 177.995 17.1902 177.494 18.4506C177.011 19.7111 176.769 21.714 176.769 24.4594C176.769 27.2048 177.011 29.2077 177.494 30.4682C177.995 31.7286 178.789 32.3589 179.877 32.3589ZM192.657 22.9313C191.362 22.9313 190.343 22.6205 189.601 21.9989C188.876 21.3773 188.513 20.4967 188.513 19.3571C188.513 18.2175 188.876 17.3369 189.601 16.7153C190.343 16.0938 191.362 15.783 192.657 15.783C193.918 15.783 194.91 16.1024 195.636 16.7412C196.378 17.3628 196.749 18.2348 196.749 19.3571C196.749 20.4795 196.378 21.3601 195.636 21.9989C194.91 22.6205 193.918 22.9313 192.657 22.9313ZM202.421 15.9125H205.167L192.631 33.0063H189.886L202.421 15.9125ZM192.631 21.8953C193.305 21.8953 193.814 21.6795 194.159 21.2478C194.505 20.8162 194.677 20.1859 194.677 19.3571C194.677 18.5283 194.496 17.8981 194.133 17.4664C193.788 17.0348 193.279 16.8189 192.605 16.8189C191.949 16.8189 191.449 17.0348 191.103 17.4664C190.758 17.8981 190.585 18.5283 190.585 19.3571C190.585 20.1859 190.758 20.8162 191.103 21.2478C191.449 21.6795 191.958 21.8953 192.631 21.8953ZM202.447 33.1358C201.152 33.1358 200.134 32.825 199.391 32.2035C198.666 31.5819 198.303 30.7013 198.303 29.5617C198.303 28.4221 198.666 27.5415 199.391 26.9199C200.134 26.2983 201.152 25.9875 202.447 25.9875C203.708 25.9875 204.701 26.3069 205.426 26.9458C206.168 27.5674 206.539 28.4393 206.539 29.5617C206.539 30.684 206.168 31.5646 205.426 32.2035C204.701 32.825 203.708 33.1358 202.447 33.1358ZM202.421 32.0999C203.095 32.0999 203.604 31.884 203.949 31.4524C204.295 31.0207 204.467 30.3905 204.467 29.5617C204.467 28.7329 204.286 28.1026 203.924 27.671C203.578 27.2393 203.069 27.0235 202.396 27.0235C201.739 27.0235 201.239 27.2393 200.893 27.671C200.548 28.1026 200.375 28.7329 200.375 29.5617C200.375 30.3905 200.548 31.0207 200.893 31.4524C201.239 31.884 201.748 32.0999 202.421 32.0999Z" fill="#08213F"/>
<rect x="78.6244" y="40.847" width="294.751" height="15.7513" rx="7.87563" stroke="url(#paint0_linear_104_141)" stroke-width="1.24875"/>
<rect x="78.0468" y="41.3472" width="63.0618" height="14.985" rx="7.49249" fill="url(#paint1_linear_104_141)"/>
<defs>
<linearGradient id="paint0_linear_104_141" x1="226" y1="40.2227" x2="7.32762" y2="40.2227" gradientUnits="userSpaceOnUse">
<stop stop-color="#08213F"/>
<stop offset="1" stop-color="#FF4D5A"/>
</linearGradient>
<linearGradient id="paint1_linear_104_141" x1="141.109" y1="56.3321" x2="70.5812" y2="56.3321" gradientUnits="userSpaceOnUse">
<stop stop-color="#0A294E"/>
<stop offset="1" stop-color="#FF4D5A"/>
</linearGradient>
</defs>
</svg>
